<svg version="1.1" xmlns="http://www.w3.org/2000/svg" 
	 viewBox="0 0 6210 1575" preserveAspectRatio="none">
<style type="text/css">
	.st0{display:none;}
	.st1{display:inline;fill:#FFFFFF;}
	.st2{display:inline;fill:#E2E9F0;}
	.st3{display:inline;fill:#F3F6F9;}
	.st4{fill:#F3F6F9;}
	.st5{fill:#E2E9F0;}
	.st6{fill:#FFFFFF;}
</style>
<g id="Layer_1" class="st0">
	<path class="st1" d="M1835.35,818.41c0.41,0.01,0.82,0.03,1.23,0.06c-0.48-0.02-0.96-0.05-1.37-0.06H1835.35z"/>
	<path class="st2" d="M6210.5,1360.04c0,77.95,0,155.9,0,233.85c-2070.33,0-4140.67,0-6211,0c0-87.94,0-175.89,0-263.83
		c12.91-0.65,25.82-1.43,38.73-1.92c20.9-0.79,41.82-1.19,62.72-2.14c17.37-0.79,35,2.11,52.07-3.7c2.7-0.92,5.95-0.2,8.95-0.24
		c3.33-0.04,6.67,0.09,9.99-0.14c18.16-1.24,36.3-3.37,54.48-3.68c34.65-0.6,69.31-0.23,103.97-0.12
		c5.27,0.02,10.56,1.34,15.82,1.17c26.85-0.91,53.69-2.44,80.55-3.14c28.52-0.74,56.98,0.21,85.52-3.58
		c22.27-2.96,45.09-1.64,67.66-2.59c8.91-0.37,17.79-1.55,26.65-2.66c18.35-2.3,36.65-5.16,55.04-7.13
		c16.77-1.8,33.64-2.66,50.45-4.09c17.46-1.49,34.69-4.77,52.12-6.71c25.88-2.88,51.38-9.21,76.99-14.29
		c10.05-2,19.87-5.46,29.98-6.75c20.66-2.63,41.48-3.9,62.16-6.37c13.79-1.65,27.36-4.2,40.11-10.69
		c11.74-5.98,23.57-12.26,36.84-14.5c10.1-1.71,20.22-3.27,30.36-4.68c10.47-1.46,20.96-2.8,31.47-3.94
		c8.88-0.96,17.84-1.29,26.7-2.37c13.77-1.67,27.45-4.1,41.24-5.53c16.78-1.74,33.64-2.73,50.46-4.13
		c15.16-1.26,30.3-2.78,45.47-3.92c19.81-1.49,39.64-2.8,59.46-4.05c22.48-1.42,44.96-2.93,67.47-3.94
		c21.89-0.99,43.82-2.2,65.72-1.94c63.56,0.77,127.13-2.06,190.7,1.56c23.48,1.34,47.01,1.56,70.46,4.1
		c18.42,1.99,36.99,2.53,55.44,4.25c18.76,1.75,37.51,3.79,56.16,6.41c19.29,2.7,38.47,6.26,57.69,9.43
		c18.91,3.12,37.85,6.02,56.72,9.39c14.32,2.56,28.43,6.64,42.83,8.38c27.34,3.31,54.16,8.93,80.86,15.39
		c7.4,1.79,14.84,3.43,22.32,4.82c17.22,3.19,34.58,5.71,51.7,9.36c19.42,4.13,38.58,9.51,57.98,13.73
		c14.2,3.09,28.78,4.52,42.91,7.86c36.09,8.52,72.02,17.7,108.02,26.62c14.15,3.5,28.2,7.48,42.46,10.42
		c22.34,4.6,44.98,7.8,67.21,12.88c35.84,8.19,71.61,16.76,107.07,26.44c26.91,7.35,54.25,12.2,81.68,16.35
		c25.21,3.81,50.26,7.93,75.02,14.06c19.58,4.85,39.02,10.28,59.18,12.84c17.34,2.2,34.6,5.53,51.62,9.56
		c20.29,4.81,40.47,9.69,61.25,12.22c17.68,2.16,35.15,5.99,52.69,9.25c20.8,3.87,41.35,9.12,62.58,10.52
		c7.58,0.5,15.19,1.22,22.66,2.54c16.27,2.88,32.4,6.62,48.71,9.24c22.5,3.61,44.69,8.81,67.58,10.61
		c21.02,1.65,41.75,6.61,62.72,9.23c20.99,2.63,42.11,4.23,63.19,6.16c16.14,1.47,32.31,2.75,48.46,4.11
		c8.57,0.72,17.15,1.42,25.72,2.18c13.83,1.23,27.65,2.59,41.49,3.72c9.9,0.81,19.82,1.33,29.73,1.97
		c20.82,1.35,41.63,3.31,62.47,3.92c38.56,1.13,77.13,1.52,115.71,2.11c11.99,0.18,24,0.26,35.99-0.02
		c21.25-0.49,42.48-1.29,63.72-1.97c1-0.03,2-0.11,2.99-0.24c14.74-1.9,29.47-3.93,44.22-5.69c12.8-1.53,25.66-2.56,38.44-4.2
		c6.21-0.8,12.28-2.74,18.47-3.76c17.94-2.95,36.01-5.17,53.83-8.68c18.18-3.58,36.16-8.19,54.15-12.67
		c21.54-5.36,43.1-10.66,64.46-16.69c43.72-12.34,87.38-24.88,130.91-37.87c17.81-5.32,35.15-12.17,52.81-18.02
		c23.65-7.83,47.48-15.11,71.07-23.1c36.81-12.46,73.44-25.46,110.25-37.95c20.44-6.93,41.13-13.12,61.61-19.95
		c23.3-7.76,46.38-16.17,69.74-23.73c21.78-7.05,43.75-13.5,65.72-19.94c31.5-9.24,62.96-18.66,94.65-27.18
		c24.28-6.53,48.88-11.9,73.37-17.62c32.54-7.6,65.34-13.86,98.43-18.58c11.77-1.68,23.49-3.67,35.27-5.26
		c17.36-2.34,34.72-4.76,52.14-6.54c11.85-1.22,23.81-1.54,35.72-2.04c18.57-0.79,37.15-2.02,55.72-1.93
		c32.91,0.17,65.81,1.07,98.71,1.92c12.92,0.33,25.83,1.17,38.73,2.06c16.5,1.14,32.98,2.58,49.47,3.87
		c9.9,0.77,19.84,1.25,29.71,2.29c16.43,1.73,32.81,3.8,49.22,5.73c9.51,1.12,19.04,2.13,28.53,3.4
		c15.72,2.11,31.42,4.38,47.13,6.59c13.08,1.84,26.18,3.5,39.22,5.58c11.76,1.88,23.4,4.44,35.16,6.3
		c15.34,2.42,30.78,4.2,46.11,6.72c13.04,2.14,25.98,4.93,38.97,7.42c21.11,4.04,42.22,8.04,63.33,12.09
		c16.88,3.24,33.72,6.7,50.64,9.72c17.89,3.19,35.93,5.59,53.77,9.02c35.4,6.8,70.67,14.28,106.08,21.05
		c16.87,3.22,33.94,5.32,50.88,8.18c14.33,2.42,28.57,5.45,42.91,7.79c16.3,2.65,32.69,4.72,49.01,7.25
		c13.72,2.12,27.35,4.79,41.09,6.75c13.09,1.87,26.38,2.46,39.36,4.83c18.9,3.44,37.7,7.03,57.01,7.37
		c8.24,0.14,16.52,1.17,24.68,2.44c17.67,2.73,35.26,5.63,53.25,5.57c11.57-0.04,23.23,0.64,34.71,2.12
		c18.11,2.34,36.21,4.09,54.49,3.77C6188.5,1359.88,6199.5,1360.04,6210.5,1360.04z"/>
	<path class="st3" d="M6210.5,1220.13v139.91c-11,0-22-0.16-32.99,0.03c-18.28,0.33-36.38-1.43-54.49-3.77
		c-11.48-1.48-23.14-2.15-34.71-2.12c-18,0.06-35.59-2.84-53.25-5.57c-8.17-1.26-16.44-2.29-24.69-2.44
		c-19.31-0.34-38.1-3.93-57-7.36c-12.99-2.37-26.28-2.96-39.37-4.83c-13.73-1.96-27.37-4.63-41.08-6.75
		c-16.32-2.52-32.71-4.59-49.01-7.25c-14.35-2.33-28.58-5.36-42.91-7.78c-16.94-2.87-34.02-4.96-50.89-8.18
		c-35.4-6.77-70.67-14.25-106.07-21.05c-17.84-3.43-35.88-5.83-53.77-9.02c-16.92-3.02-33.76-6.48-50.64-9.71
		c-21.11-4.05-42.22-8.05-63.33-12.09c-12.99-2.49-25.93-5.28-38.97-7.42c-15.33-2.51-30.77-4.29-46.11-6.72
		c-11.76-1.85-23.4-4.42-35.16-6.29c-13.04-2.08-26.14-3.74-39.22-5.58c-15.71-2.21-31.41-4.49-47.13-6.59
		c-9.5-1.27-19.02-2.28-28.53-3.4c-16.41-1.93-32.79-4-49.22-5.73c-9.87-1.04-19.81-1.52-29.71-2.29
		c-16.49-1.28-32.98-2.73-49.48-3.87c-12.89-0.89-25.8-1.73-38.72-2.06c-32.9-0.85-65.81-1.75-98.72-1.92
		c-18.57-0.1-37.15,1.14-55.72,1.93c-11.92,0.5-23.87,0.82-35.72,2.04c-17.42,1.79-34.78,4.2-52.14,6.54
		c-11.78,1.59-23.51,3.58-35.27,5.26c-33.09,4.72-65.89,10.98-98.43,18.59c-24.49,5.72-49.09,11.08-73.37,17.62
		c-31.7,8.52-63.15,17.94-94.65,27.18c-21.97,6.44-43.94,12.89-65.72,19.94c-23.36,7.56-46.45,15.96-69.74,23.73
		c-20.48,6.82-41.17,13.01-61.61,19.94c-36.81,12.49-73.44,25.49-110.25,37.96c-23.59,7.98-47.43,15.26-71.07,23.1
		c-17.66,5.85-35,12.7-52.81,18.02c-43.53,12.99-87.19,25.54-130.91,37.87c-21.35,6.03-42.92,11.33-64.46,16.69
		c-17.99,4.47-35.97,9.08-54.15,12.67c-17.82,3.51-35.89,5.72-53.83,8.68c-6.2,1.02-12.26,2.96-18.47,3.76
		c-12.78,1.64-25.65,2.67-38.45,4.2c-14.75,1.76-29.48,3.78-44.22,5.68c-0.99,0.13-1.99,0.21-2.99,0.24
		c-21.24,0.68-42.47,1.48-63.72,1.97c-11.99,0.28-23.99,0.21-35.99,0.02c-38.57-0.59-77.15-0.98-115.7-2.1
		c-20.85-0.61-41.65-2.57-62.47-3.92c-9.91-0.65-19.84-1.17-29.73-1.98c-13.84-1.13-27.66-2.49-41.49-3.72
		c-8.57-0.76-17.15-1.46-25.72-2.18c-16.16-1.36-32.32-2.64-48.47-4.11c-21.07-1.93-42.19-3.53-63.18-6.16
		c-20.97-2.62-41.71-7.58-62.72-9.23c-22.89-1.79-45.08-6.99-67.59-10.61c-16.31-2.62-32.43-6.36-48.71-9.24
		c-7.47-1.32-15.08-2.04-22.66-2.54c-21.22-1.4-41.78-6.65-62.58-10.52c-17.53-3.26-35.01-7.09-52.68-9.25
		c-20.79-2.53-40.96-7.41-61.25-12.22c-17.01-4.04-34.28-7.37-51.62-9.56c-20.16-2.56-39.6-7.99-59.17-12.84
		c-24.77-6.14-49.82-10.26-75.02-14.07c-27.44-4.14-54.78-9-81.69-16.35c-35.45-9.68-71.23-18.25-107.07-26.44
		c-22.22-5.07-44.86-8.27-67.2-12.87c-14.27-2.94-28.32-6.92-42.46-10.42c-36-8.92-71.93-18.09-108.02-26.62
		c-14.13-3.33-28.71-4.76-42.91-7.85c-19.41-4.22-38.56-9.6-57.98-13.73c-17.13-3.65-34.48-6.17-51.7-9.36
		c-7.48-1.38-14.93-3.03-22.32-4.82c-26.7-6.46-53.52-12.08-80.86-15.39c-14.4-1.75-28.51-5.83-42.83-8.38
		c-18.86-3.37-37.81-6.27-56.72-9.39c-19.22-3.17-38.4-6.73-57.69-9.43c-18.65-2.62-37.4-4.65-56.16-6.41
		c-18.45-1.72-37.03-2.26-55.44-4.25c-23.45-2.54-46.98-2.76-70.47-4.1c-63.57-3.63-127.14-0.8-190.7-1.56
		c-21.9-0.27-43.83,0.94-65.72,1.93c-22.5,1.02-44.98,2.53-67.47,3.95c-19.83,1.25-39.65,2.56-59.46,4.05
		c-15.17,1.14-30.31,2.66-45.48,3.92c-16.81,1.4-33.67,2.39-50.45,4.13c-13.79,1.43-27.47,3.86-41.24,5.53
		c-8.87,1.07-17.82,1.4-26.71,2.37c-10.51,1.13-21,2.47-31.47,3.93c-10.14,1.42-20.26,2.97-30.36,4.68
		c-13.27,2.25-25.1,8.53-36.84,14.5c-12.75,6.5-26.32,9.05-40.11,10.69c-20.68,2.47-41.51,3.75-62.17,6.38
		c-10.11,1.28-19.93,4.75-29.98,6.74c-25.62,5.09-51.12,11.42-76.99,14.3c-17.43,1.94-34.67,5.22-52.12,6.71
		c-16.82,1.43-33.69,2.29-50.46,4.09c-18.38,1.98-36.68,4.83-55.03,7.13c-8.86,1.11-17.75,2.29-26.65,2.66
		c-22.56,0.95-45.39-0.37-67.66,2.59c-28.53,3.79-56.99,2.85-85.51,3.58c-26.86,0.7-53.7,2.23-80.55,3.14
		c-5.26,0.18-10.55-1.15-15.82-1.17c-34.66-0.11-69.32-0.47-103.97,0.13c-18.17,0.31-36.31,2.44-54.47,3.68
		c-3.32,0.23-6.66,0.1-10,0.14c-2.99,0.03-6.25-0.68-8.95,0.23c-17.07,5.81-34.69,2.92-52.07,3.7c-20.89,0.95-41.81,1.35-62.72,2.14
		c-12.91,0.49-25.82,1.27-38.73,1.92v-53.97c7.91,0.64,15.82,1.73,23.74,1.78c7.24,0.04,14.67-2.34,21.68-1.31
		c10.03,1.48,19.73-0.6,29.56-0.76c18.17-0.28,36.31-2.3,54.47-3.58c1.66-0.11,3.33-0.14,5-0.12c18.6,0.31,37.03-1.61,55.48-3.78
		c12.49-1.46,25.15-1.33,37.71-2.28c12.85-0.97,25.66-2.4,38.49-3.62c8.24-0.78,16.5-1.38,24.71-2.34c21-2.46,41.98-5.07,62.96-7.61
		c12.14-1.47,24.31-2.79,36.43-4.41c9.17-1.23,18.29-2.82,27.43-4.24c12.07-1.88,24.14-3.8,36.22-5.61
		c14.05-2.11,28.11-4.15,42.18-6.16c23.4-3.33,46.22-9.17,68.13-17.89c25.5-10.14,52.38-13.44,79.04-18.3
		c14.23-2.6,29.12-2.95,42.44-9.49c5.91-2.89,11.74-6.22,16.94-10.23c7.33-5.65,15.23-8.89,24.41-10.15
		c11.13-1.52,22.22-3.67,33.11-6.38c4.98-1.24,9.45-4.52,14.18-6.83c3.23-1.58,6.43-3.23,9.75-4.61c6.38-2.65,12.82-5.18,19.27-7.67
		c2.46-0.95,5-1.7,7.53-2.43c9.83-2.83,19.91-4.33,29.49-8.61c6.35-2.85,14.21-2.51,21.44-3.23c14.8-1.48,29.69-2.28,44.41-4.3
		c5.35-0.74,10.24-4.41,15.5-6.31c5.55-2.01,11.19-3.94,16.96-5.13c10.99-2.28,22.06-4.29,33.17-5.85
		c5.22-0.72,10.62-0.05,15.94-0.17c3.52-0.08,7.1-0.12,10.55-0.73c5.51-0.98,10.92-2.52,16.41-3.66
		c12.93-2.71,25.64-5.83,38.05-10.7c7.14-2.81,15.59-2.44,23.49-3.09c4.96-0.41,10-0.27,14.98-0.04c15.06,0.7,29.63-2.57,44.37-4.78
		c7.1-1.06,14.47-0.49,21.72-0.38c7.27,0.11,14.55,0.9,21.82,0.78c6.26-0.1,12.55-1.87,18.74-1.5c15.47,0.95,30.27-3.08,45.38-4.84
		c15.74-1.84,31.14-5.85,47.27-5.54c17.89,0.34,35.83-0.87,53.72-1.85c18.84-1.04,37.66-2.41,56.46-4
		c21.09-1.79,42.2-3.51,63.2-6.11c27.86-3.47,55.58-8.01,83.42-11.63c30.84-4,61.52-8.74,91.87-15.6c2.55-0.58,5.28-0.5,7.94-0.53
		c6.33-0.07,12.68-0.39,18.98,0.05c18.48,1.28,36.32-2.21,54.12-6.47c16.38-3.91,32.82-7.58,49.28-11.13
		c3.2-0.69,6.64-0.58,9.95-0.42c24.1,1.13,47.48-3.21,70.89-8.28c7.91-1.71,16.4-1.01,24.62-0.94c16.09,0.14,32.28,1.76,48.24,0.49
		c8.92-0.7,17.35-6.42,26.25-9.02c4.89-1.43,10.44-2.06,15.45-1.36c15.06,2.11,29.88,5.98,45.3,5.16c3.25-0.17,6.56,0.68,9.84,1.07
		c2.3,0.27,4.72,1.17,6.87,0.74c13.61-2.77,27.78-1.12,41.2-6.02c5-1.83,11.29-2.13,16.52-0.98c19.06,4.2,37.94,9.26,56.86,14.07
		c23.12,5.86,46.3,11.51,69.31,17.79c24.29,6.64,48.41,13.91,72.6,20.91c21.67,6.27,43.37,12.4,64.96,18.9
		c12.06,3.63,23.91,7.96,35.89,11.88c23.95,7.83,47.98,15.39,71.84,23.44c19.83,6.69,39.46,13.94,59.18,20.92
		c34.73,12.28,69.43,24.65,104.21,36.79c15.03,5.24,30.27,9.91,45.34,15.03c21.71,7.37,43.12,15.72,65.08,22.18
		c28.06,8.26,55.27,18.8,82.86,28.33c29.8,10.29,60.07,19.24,90.13,28.81c17.35,5.52,34.62,11.3,52.04,16.61
		c21.24,6.47,42.53,12.79,63.92,18.76c18.83,5.24,37.84,9.81,56.72,14.85c22.1,5.91,44.04,12.43,66.23,17.92
		c27.62,6.83,55.39,13.09,83.19,19.19c20.02,4.39,40.15,8.34,60.31,12.09c19.82,3.69,39.69,7.09,59.61,10.24
		c18.59,2.94,37.23,5.67,55.92,7.95c15.1,1.84,30.31,2.68,45.44,4.29c16.1,1.71,32.14,3.91,48.23,5.7
		c8.54,0.95,17.13,1.68,25.72,2.12c16.57,0.85,33.14,1.62,49.72,2.05c31.9,0.82,63.81,1.86,95.72,1.83
		c14.82-0.01,29.65-2.32,44.48-3.56c9.24-0.77,18.52-1.15,27.71-2.29c18.35-2.27,36.7-4.61,54.95-7.56
		c18.6-3.01,37.13-6.53,55.59-10.29c19.46-3.97,38.82-8.37,58.18-12.8c42.05-9.61,83.32-21.99,124.3-35.38
		c26.52-8.67,53.28-16.66,79.55-26.03c40.33-14.37,80.39-29.55,120.48-44.6c34.19-12.82,68.28-25.89,102.39-38.93
		c28.52-10.91,56.94-22.09,85.5-32.89c25.15-9.51,50.33-18.96,75.68-27.91c46.04-16.27,92.08-32.54,138.38-48.04
		c26.72-8.95,53.83-16.83,80.98-24.4c24.24-6.75,48.62-13.12,73.22-18.34c23.91-5.08,48.17-8.52,72.29-12.62
		c15.3-2.6,30.62-5.09,45.94-7.59c1.63-0.27,3.32-0.2,4.98-0.33c15.49-1.3,30.98-2.6,46.47-3.89c0.99-0.08,2-0.08,3-0.1
		c25.57-0.67,51.14-1.86,76.71-1.86c24.91-0.01,49.85,0.67,74.71,2.05c15.47,0.86,30.83,3.62,46.24,5.47
		c2.31,0.28,4.65,0.24,6.98,0.32c22.19,0.78,44.16,3.29,66,7.34c11.36,2.1,22.95,2.94,34.38,4.69c15.34,2.34,30.65,4.93,45.94,7.58
		c15.31,2.65,30.6,5.41,45.87,8.31c13.32,2.53,26.61,5.21,39.87,8.01c28.16,5.94,56.36,11.68,84.41,18.11
		c23.24,5.33,46.22,11.77,69.42,17.31c48.96,11.68,98,23.02,146.98,34.64c19.66,4.66,39.19,9.88,58.85,14.52
		c27.7,6.53,55.42,13.01,83.23,19.06c27.79,6.05,55.66,11.78,83.58,17.21c17.84,3.46,35.89,5.81,53.73,9.25
		c18.92,3.65,37.92,5.17,57.16,6.43c21.39,1.41,43.03,0.23,64.31,4.97c10.54,2.36,21.77,1.58,32.66,2.51
		c11.19,0.95,22.35,2.25,33.52,3.41c0.99,0.11,1.96,0.41,2.95,0.46C6181.35,1218.76,6195.92,1219.44,6210.5,1220.13z"/>
	<path class="st3" d="M6210.5,914.32v199.87c-14.36-2.22-28.83-3.93-43.07-6.77c-27.25-5.42-54.41-11.31-81.52-17.38
		c-12.59-2.82-24.95-6.67-37.48-9.81c-29.86-7.5-59.91-14.33-89.61-22.41c-27.52-7.49-54.79-15.93-81.98-24.56
		c-26.87-8.52-53.63-17.44-80.21-26.83c-25.97-9.18-51.68-19.1-77.45-28.83c-18.32-6.92-36.66-13.82-54.81-21.17
		c-29.54-11.94-58.91-24.31-88.4-36.36c-23.04-9.42-46.21-18.53-69.23-27.98c-28.87-11.85-57.6-24.04-86.48-35.84
		c-16.9-6.9-33.84-13.73-51.02-19.88c-25.96-9.27-51.91-18.72-78.31-26.6c-25.05-7.47-50.55-13.51-76.06-19.26
		c-20.62-4.64-41.51-8.11-62.35-11.69c-8.13-1.39-16.46-1.61-24.7-2.41c-12.5-1.22-24.99-2.51-37.49-3.68
		c-2.97-0.28-5.98-0.3-8.97-0.3c-20.66-0.03-41.33-0.28-61.98,0.06c-17.25,0.29-34.72-0.27-51.66,2.34
		c-22.21,3.43-44.82,3.32-66.81,8.92c-14.01,3.57-28.83,3.82-43.04,6.77c-45.39,9.45-90.76,18.82-135,33.29
		c-43.13,14.1-86.94,26.16-130.52,38.89c-37.87,11.06-75.7,22.27-113.79,32.55c-35.49,9.58-71.27,18.11-106.96,26.94
		c-28.93,7.16-57.84,14.41-86.9,21.05c-34.51,7.88-69.13,15.3-103.76,22.64c-23.29,4.93-46.62,9.8-70.06,13.92
		c-16.26,2.85-32.79,4.12-49.12,6.58c-17.64,2.66-35.2,5.86-52.79,8.85c-17.6,3-35.17,6.09-52.77,9.03
		c-15.64,2.61-31.28,5.19-46.95,7.54c-15.36,2.31-30.79,4.19-46.15,6.48c-25.48,3.8-50.93,7.8-76.41,11.63
		c-2.62,0.39-5.33,0.09-7.97,0.36c-11.17,1.14-22.33,2.37-33.5,3.57c-7.23,0.79-14.48,1.51-21.7,2.4
		c-15.08,1.87-30.12,4.05-45.22,5.7c-21.03,2.3-42.12,4.09-63.16,6.35c-15.43,1.66-30.81,3.79-46.23,5.58
		c-7.89,0.91-15.8,1.6-23.72,2.25c-17.14,1.42-34.33,2.5-51.45,4.2c-13.14,1.31-26.21,3.36-39.3,5.09c-1.64,0.22-3.26,0.69-4.9,0.77
		c-15.58,0.72-31.17,1.1-46.72,2.14c-10.54,0.7-21.01,2.29-31.51,3.48c-1.32,0.15-2.64,0.33-3.97,0.4
		c-13.91,0.69-27.85,0.98-41.72,2.12c-19.43,1.6-38.8,3.94-58.21,5.75c-10.22,0.95-20.48,1.62-30.73,2.09
		c-17.57,0.82-35.17,1.1-52.72,2.16c-11.19,0.69-22.33,2.39-33.49,3.62c-0.99,0.11-1.99,0.21-2.98,0.25
		c-18.91,0.68-37.83,1.07-56.72,2.13c-11.2,0.62-22.33,2.34-33.5,3.46c-3.31,0.33-6.65,0.34-9.97,0.42
		c-26.9,0.68-53.81,1.26-80.71,2.06c-15.58,0.46-31.16,1.2-46.73,1.97c-10.91,0.54-21.83,1.22-32.72,2.08
		c-3.67,0.29-7.41,1.14-8.07,5.87c-21.05-7.19-42.12-14.29-63.13-21.59c-13.17-4.58-26.22-9.5-39.35-14.22
		c-42.17-15.19-84.33-30.44-126.56-45.46c-8.43-2.99-17.2-5.09-24.05-11.31c-1.63-1.48-2.99-3.26-4.68-5.12
		c1.3-0.94,2.03-1.94,2.82-1.98c16.57-0.81,33.17-2.49,49.71-2c21.85,0.65,43.75,0.56,65.45-0.67c27.28-1.56,54.6,0.13,81.71-2.02
		c12.11-0.96,24.22-0.55,36.26-0.78c-25.8-9.71-91.12-51.31-104.22-50.75c-7.43-4.58-10-5.63-15.16-6.8
		c-3.84-0.88-5.89-1.86-9.77-2.58c-18.53-3.44-37.02-7.1-55.55-10.52c-20.46-3.77-41.03-7.04-61.43-11.13
		c-36.97-7.4-73.82-15.38-110.78-22.85c-28.82-5.83-57.78-10.97-86.57-16.92c-18.46-3.82-36.67-8.85-55.1-12.82
		c-43.32-9.33-86.71-18.37-130.09-27.45c-2.09-0.43-4.34-0.05-6.98-0.05c0.34,3.79,0.62,6.9,0.99,11.11
		c-23.21,0.36-45.21-3.99-67.92-7.47c-1.86,6.26-5.65,8.87-12.46,5.89c-2.24-0.97-5.28-0.36-7.92-0.14
		c-5.92,0.5-11.83,1.18-17.73,1.86c-1.48,0.17-2.93,0.64-6.86,1.53c4.93,2.99,8,4.64,10.8,6.66c1.18,0.85,1.81,2.46,2.68,3.73
		c-17.15-3.58-34.25-7.43-51.47-10.68c-24.68-4.67-49.41-9.06-74.17-13.28c-19.82-3.37-39.68-6.56-59.6-9.35
		c-14.07-1.97-28.25-3.17-42.39-4.63c-19.06-1.97-38.14-3.86-57.21-5.78c-0.22-0.02-0.48-0.05-0.75-0.07
		c-0.17-0.02-0.35-0.03-0.53-0.04c-0.16-0.01-0.32-0.02-0.48-0.03c-0.48-0.02-0.96-0.05-1.37-0.06c-0.14,0-0.27-0.01-0.39-0.01
		c-15.27-0.25-30.55-0.54-45.82-0.81c-19.88-0.36-39.77-0.69-59.65-0.9c-5.57-0.07-11.13-0.12-16.7-0.16
		c-15.24-0.11-30.5,1.01-45.72,1.94c-18.18,1.11-36.36,2.19-54.47,4.07c-20.03,2.07-39.96,5.19-59.96,7.57
		c-14.12,1.67-28.33,2.6-42.44,4.35c-14.43,1.79-28.81,4.03-43.17,6.36c-18.58,3.01-37.13,6.23-55.67,9.5
		c-23.77,4.19-47.53,8.38-71.25,12.82c-26.65,4.99-53.3,10-79.84,15.48c-24.63,5.1-49.13,10.85-73.69,16.27
		c-38.77,8.56-77.57,17-116.32,25.66c-26.17,5.85-52.24,12.15-78.41,17.98c-36.5,8.12-73.04,16.04-109.58,23.96
		c-35.89,7.77-71.77,15.6-107.71,23.11c-30.43,6.36-60.84,12.96-91.48,18.17c-19.57,3.33-38.91,7.52-58.31,11.61
		c-17.12,3.61-34.51,5.97-51.78,8.89c-17.92,3.03-35.82,6.18-53.77,9.06c-15.33,2.47-30.71,4.61-46.06,6.94
		c-16.33,2.47-32.63,5.11-48.98,7.43c-12.11,1.72-24.28,3.01-36.41,4.55c-13.76,1.75-27.52,3.55-41.27,5.37
		c-15.77,2.1-31.49,2.04-47.24-0.47c-19.58-3.13-39.2-5.93-58.79-8.96c-16.4-2.54-33.01-2.7-49.43-4.34
		c-30.62-3.05-61.18-1.02-91.75-1.37c-13.48-0.15-26.98,2.33-40.48,3.53c-6.59,0.58-13.23,0.78-19.8,1.5
		c-13.14,1.45-26.25,3.14-39.37,4.72V940.3c19.82-1.32,39.62-3.17,59.46-3.84c24.9-0.84,49.8-0.08,74.73-1.79
		c17.12-1.18,34.42-0.31,51.74,1.22c25.43,2.25,51.11,1.65,76.68,2.45c15.58,0.49,31.15,1.33,46.72,2.03
		c0.99,0.05,1.98,0.25,2.97,0.36c10.5,1.19,20.99,2.52,31.5,3.54c15.81,1.54,31.7,2.35,47.43,4.39c20.96,2.72,41.88,5.9,62.67,9.67
		c29.6,5.35,59.17,10.95,88.55,17.35c19.74,4.29,39.19,9.96,58.65,15.41c6.62,1.85,12.75,4.51,18,9.91
		c4.74,4.87,11.96,8.27,19.07,6.57c6.45-1.54,6.25-8.63,7.82-13.94c1.83-6.18,4.79-7.76,11.16-6.7c7.16,1.19,14.34,2.21,21.54,3.1
		c1.55,0.19,3.77,0.07,4.72-0.88c7.02-6.94,14.73-4.23,22.37-1.87c5.05,1.55,9.95,1.62,14.43-1.21c7.76-4.9,15.59-4.37,23.92-1.64
		c3.2,1.05,7.81,1.8,10.33,0.28c9.46-5.71,19.93-6.38,30.34-7.76c5.56-0.74,11.1-1.81,16.69-2.18c11.6-0.77,21.65-8.68,33.9-6.93
		c2.39,0.34,5.26-2.45,7.87-3.87c6.45-3.49,12.72-6.95,20.7-4.89c2.93,0.76,6.8,0.16,9.59-1.18c8.94-4.29,18.05-7.93,27.63-10.52
		c5.35-1.45,10.53-3.51,15.82-5.23c0.44-0.14,0.89-0.28,1.34-0.41c0.46-0.14,0.92-0.26,1.38-0.38c0.86-0.22,1.74-0.43,2.61-0.64
		c0.45-0.11,0.91-0.21,1.37-0.31c1.02-0.24,2.04-0.47,3.05-0.72c0.46-0.11,0.93-0.23,1.39-0.35c0.1-0.02,0.2-0.05,0.31-0.08
		c0.35-0.09,0.71-0.2,1.06-0.3c0.22-0.07,0.45-0.14,0.67-0.21c0.67-0.2,1.32-0.43,1.96-0.68c0.21-0.08,0.42-0.16,0.63-0.25
		c0.04-0.01,0.09-0.03,0.13-0.05c0.35-0.15,0.7-0.31,1.04-0.47c0.63-0.3,1.23-0.63,1.81-1c0.35-0.22,0.7-0.46,1.03-0.71
		c0.17-0.13,0.33-0.26,0.49-0.39l0.03-0.03c0.17-0.14,0.33-0.28,0.49-0.43c7.63-7.03,16.45-12.62,25.86-17.01
		c0.08-0.04,0.16-0.08,0.25-0.11c3.05-1.42,6.17-2.71,9.33-3.88c1.01-0.37,2.01-0.75,3.02-1.14c2.87-1.07,5.74-2.18,8.6-3.3
		c3.15-1.22,6.3-2.46,9.45-3.69c2.56-1,5.12-2.01,7.69-3c3.05-1.18,6.1-2.34,9.17-3.48c1.25-0.46,2.5-0.92,3.76-1.37
		c1.44-0.52,2.88-1.04,4.33-1.54c0.73-0.25,1.45-0.5,2.18-0.75c0.72-0.25,1.45-0.5,2.18-0.74c2.25-0.75,4.51-1.48,6.78-2.19
		c1.21-0.37,2.42-0.74,3.63-1.09c2.4-0.7,4.82-1.37,7.26-2c17.98-4.63,36.18-8.9,53.49-15.41c20.36-7.66,41.49-11.26,62.52-15.7
		c15.2-3.2,30.4-6.45,45.65-9.41c18.81-3.66,37.65-7.14,56.51-10.53c13.01-2.35,26.62-2.8,38.95-7.04c12.86-4.41,26-4.76,38.97-6.73
		c15.34-2.34,30.95-2.93,46.43-4.34c7.24-0.66,14.72-0.54,21.67-2.39c13.75-3.64,28.47-2.64,41.66-8.88
		c1.69-0.8,3.97-0.23,5.89-0.66c11.32-2.51,24.03,0.8,33.86-8.29c1.46-1.35,4.38-1.1,6.6-1.68c8.33-2.16,17.4-2.96,24.73-6.95
		c6.41-3.49,11.8-7.84,19.66-7.62c1.87,0.05,5.18-2.81,5.49-4.72c1.06-6.47,5.24-6.85,10.24-6.71c3.33,0.1,6.84,0.63,9.95-0.22
		c2.87-0.77,6.56-2.55,7.64-4.91c1.64-3.57,1.09-7.77-3.6-10.08c-1.64-0.81-2.64-2.92-3.95-4.46c6.19-5.11,15.01-1.76,20.85-9.49
		c-13.77-2.47-25.73-4.78-37.76-6.73c-19.88-3.24-39.8-6.27-59.72-9.32c-10.78-1.65-21.57-3.21-32.37-4.73
		c-13.41-1.88-26.82-3.68-40.23-5.52c-10.81-1.49-21.6-3.12-32.42-4.46c-12.47-1.54-24.99-2.63-37.44-4.29
		c-17.68-2.37-35.26-5.4-52.96-7.57c-19.36-2.38-38.78-4.14-58.19-6.08c-20.73-2.06-41.44-4.29-62.2-5.94
		c-21.46-1.7-42.97-2.78-64.46-4.13c-1.66-0.11-3.32-0.2-4.97-0.36c-12.5-1.2-24.97-2.86-37.5-3.53
		c-19.55-1.05-39.14-1.44-58.71-2.12c-0.43-0.02-0.85-0.04-1.28-0.07c-0.23-0.01-0.45-0.03-0.67-0.05c-0.2-0.01-0.41-0.03-0.61-0.05
		c-0.14-0.01-0.29-0.03-0.43-0.05l-2.22-0.24c-0.74-0.09-1.48-0.18-2.21-0.27c-0.74-0.09-1.48-0.18-2.22-0.28
		c-2.96-0.38-5.92-0.78-8.87-1.16c-0.74-0.1-1.48-0.19-2.22-0.28c-0.74-0.1-1.48-0.18-2.22-0.27c-0.74-0.09-1.47-0.17-2.21-0.24
		c-0.74-0.09-1.48-0.16-2.22-0.23c-1.48-0.14-2.96-0.26-4.44-0.35c-0.3-0.02-0.61-0.04-0.92-0.05c-1.07-0.07-2.14-0.12-3.21-0.15
		c-0.84-0.02-1.68-0.04-2.52-0.04c-38.21-0.11-76.32-2.63-114.46-3.64c-44.83-1.19-89.76-1.93-134.7,1.09
		c-4.39,0.29-8.78,0.54-13.18,0.75c-1.91,0.09-3.83,0.18-5.74,0.25c-7.86,0.32-15.72,0.52-23.58,0.65c-1.8,0.04-3.61,0.07-5.42,0.09
		c-2.28,0.04-4.57,0.07-6.85,0.09c-2.29,0.03-4.58,0.05-6.86,0.07c-6.86,0.06-13.72,0.1-20.58,0.16c-3.42,0.03-6.83,0.06-10.25,0.1
		c-2.2,0.02-4.41,0.05-6.61,0.09c-2.2,0.03-4.41,0.06-6.61,0.11c-0.42,0.01-0.83,0.01-1.25,0.02c-0.9,0.02-1.81,0.04-2.71,0.06
		c-2.79,0.06-5.56,0.21-8.34,0.44c-0.32,0.02-0.65,0.05-0.97,0.08c-0.59,0.05-1.18,0.11-1.77,0.17c-1.22,0.11-2.45,0.23-3.67,0.35
		c-3.84,0.37-7.67,0.75-11.51,1.13c-2.53,0.24-5.06,0.48-7.59,0.7c-1.63,0.15-3.26,0.29-4.89,0.42c-2.59,0.2-5.18,0.38-7.77,0.53
		c-18.22,1.04-36.48,1.44-54.72,2.13c-0.15,0-0.29,0.01-0.44,0.02c-0.85,0.09-1.69,0.17-2.54,0.25c-4.15,0.41-8.29,0.83-12.44,1.24
		c-1.09,0.11-2.17,0.22-3.25,0.33c-1.8,0.18-3.6,0.36-5.4,0.54c-0.46,0.04-0.91,0.09-1.37,0.13c-1.41,0.14-2.83,0.28-4.25,0.42
		c-3.59,0.34-7.19,0.67-10.78,0.99c-9.89,0.88-19.82,1.41-29.71,2.25c-13.84,1.18-27.66,2.47-41.48,3.79
		c-14.48,1.39-28.97,2.78-43.43,4.37c-9.19,1.01-18.31,2.55-27.5,3.58c-14.13,1.58-28.32,2.64-42.42,4.43
		c-17.69,2.25-35.3,5.11-52.97,7.53c-16.37,2.25-32.81,4.02-49.15,6.48c-19.27,2.89-38.47,6.23-57.68,9.51
		c-25.73,4.39-51.42,9.05-77.16,13.34c-14.99,2.5-30.06,4.5-45.09,6.72V514.58c3.52-0.75,7.25-1,10.53-2.33
		c29.85-12.08,59.37-25.01,89.5-36.32c18.88-7.09,38.69-11.71,58.01-17.68c11.08-3.43,21.85-7.95,33.04-10.96
		c24.61-6.62,49.39-12.57,74.09-18.86c7.7-1.96,15.29-4.39,23.04-6.11c20.33-4.53,40.62-9.37,61.12-12.98
		c20.48-3.61,41.21-5.79,61.8-8.77c9.49-1.37,18.88-3.35,28.37-4.7c9.15-1.31,18.37-2.15,27.56-3.22c9.19-1.07,18.37-2.2,27.57-3.21
		c3.62-0.4,7.28-0.85,10.9-0.73c13.01,0.45,25.81-0.89,38.5-3.71c1.28-0.28,2.64-0.28,3.97-0.32c25.57-0.68,51.15-1.24,76.72-2.07
		c11.25-0.36,22.58-2.51,33.72-1.72c38.9,2.74,77.82,1.28,116.72,1.87c6.59,0.1,13.15,1.42,19.73,2.07
		c6.91,0.68,13.82,1.45,20.75,1.78c17.23,0.83,34.52,0.9,51.71,2.27c13.8,1.09,27.46,3.89,41.24,5.46
		c10.19,1.17,20.49,1.38,30.71,2.36c10.18,0.98,20.32,2.46,30.5,3.57c6.25,0.69,12.55,0.88,18.78,1.7
		c16.05,2.11,32.07,4.39,48.09,6.72c11.44,1.68,22.83,3.63,34.27,5.32c10.13,1.5,20.32,2.56,30.41,4.27
		c11.09,1.88,22.06,4.46,33.14,6.42c15.61,2.77,31.3,5.1,46.91,7.88c13.99,2.48,27.94,5.22,41.88,8.01
		c26.26,5.26,52.54,10.46,78.74,16.04c17.15,3.66,34.13,8.07,51.25,11.89c27.43,6.13,54.97,11.82,82.36,18.15
		c13.55,3.14,26.8,7.58,40.31,10.91c23.78,5.86,47.71,11.12,71.47,17.04c12.86,3.2,25.42,7.61,38.28,10.85
		c45.33,11.44,90.4,23.73,135.09,37.51c27.85,8.58,56.19,15.6,84.25,23.5c34.79,9.8,69.53,19.74,104.27,29.69
		c26.14,7.49,52.27,15.02,78.37,22.66c24.19,7.08,48.29,14.48,72.5,21.49c30.58,8.86,61.25,17.38,91.83,26.2
		c24.5,7.08,48.89,14.6,73.43,21.58c42.73,12.15,85.53,24.04,128.31,36.04c25.21,7.07,50.38,14.33,75.66,21.15
		c43.84,11.83,87.74,23.44,131.65,35.02c20.82,5.5,41.66,10.96,62.6,16.03c28.32,6.85,56.7,13.46,85.11,19.9
		c39.05,8.86,78.13,17.58,117.24,26.13c37.5,8.2,75.04,16.15,112.59,24.12c21.35,4.52,42.68,9.19,64.14,13.16
		c14.94,2.76,30.1,4.31,45.11,6.66c14.04,2.2,27.99,4.94,42.04,7.09c12.4,1.9,24.88,3.4,37.34,4.91
		c56.84,13.86,117.98,54.58,152.64,65.09c12.92-0.89,25.82-1.99,38.73-2.95c0.66-0.05,1.32-0.11,1.99-0.14
		c16.91-0.68,33.83-1.12,50.72-2.1c17.18-0.99,34.34-2.31,51.48-3.85c20.42-1.83,40.82-3.91,61.19-6.14
		c15.44-1.69,30.82-3.81,46.23-5.68c1.98-0.24,4-0.1,5.99-0.26c15.49-1.26,30.98-2.62,46.48-3.82c10.9-0.83,21.83-1.28,32.72-2.21
		c11.19-0.97,22.34-2.4,33.52-3.45c10.22-0.96,20.48-1.52,30.69-2.55c8.21-0.84,16.37-2.17,24.56-3.19
		c2.96-0.37,5.95-0.46,8.91-0.77c10.51-1.11,21.02-2.26,31.53-3.41c1.32-0.14,2.62-0.48,3.94-0.53c17.58-0.7,35.17-1.12,52.73-2.12
		c16.51-0.95,32.98-2.58,49.48-3.74c4.98-0.35,10.02,0.18,14.99-0.25c10.2-0.89,20.37-2.07,30.54-3.27
		c12.48-1.48,24.94-3,37.39-4.68c11.14-1.5,22.22-3.34,33.36-4.82c13.75-1.84,27.55-3.33,41.3-5.2c10.15-1.38,20.27-3.01,30.37-4.74
		c25.41-4.35,50.83-8.66,76.18-13.3c23.74-4.35,47.41-9.02,71.08-13.72c23.04-4.58,46.1-9.05,69.01-14.19
		c16.79-3.76,33.31-8.7,50.02-12.81c45.09-11.07,90-22.74,133.91-37.97c13.78-4.78,27.55-9.59,41.28-14.53
		c20.91-7.52,41.91-14.8,62.61-22.85c18.55-7.23,36.73-15.41,55.12-23.05c9.8-4.08,19.8-7.71,29.55-11.9
		c9.47-4.06,18.72-8.61,28.09-12.91c29.59-13.57,58.73-28.14,89.3-39.52c24.24-9.01,48.19-18.86,72.64-27.24
		c32.63-11.19,66.22-19.16,99.87-26.51c16.09-3.51,32.84-3.83,49.09-6.75c17.1-3.08,34.35-2.67,51.45-4.27
		c16.32-1.53,32.54-1.49,48.77-1.3c12.18,0.14,24.34,2.22,36.5,3.44c0.99,0.1,1.99,0.35,2.98,0.29c17.42-1.03,34.21,3.47,51.17,6.11
		c18.94,2.96,37.73,6.94,56.59,10.42c3.56,0.65,7.21,1.6,10.76,1.4c9.17-0.5,17.78,1.68,26.39,4.32
		c11.1,3.39,22.33,6.38,33.33,10.06c5.96,1.99,11.68,4.8,17.3,7.65c25.41,12.91,53.25,18.11,80.42,25.32
		c25.29,6.72,50.77,12.74,76.22,18.85c17.04,4.08,34.32,7.21,51.23,11.77c25.29,6.81,50.56,13.82,75.42,22.03
		c18.88,6.24,37.02,14.69,55.65,21.72c7.98,3.01,16.62,4.31,24.55,7.45c31.49,12.45,62.71,25.55,94.21,37.97
		c33.67,13.27,67.32,26.59,101.35,38.88c51.85,18.73,103.98,36.69,156.1,54.7c5.82,2.01,12.26,2.89,18.46,3.09
		c13.98,0.44,28.07,1.14,41.97-0.05C6121.33,912.32,6165.93,915.42,6210.5,914.32z"/>
	<path class="st2" d="M6210.5,1114.19v27.99c-18.49-1.3-36.97-2.6-55.46-3.9c-10.24-0.71-20.5-1.19-30.72-2.19
		c-12.83-1.25-25.64-2.73-38.41-4.47c-11.12-1.52-22.16-3.6-33.24-5.35c-17.63-2.77-35.33-5.08-52.87-8.29
		c-22.43-4.11-44.79-8.63-67.07-13.49c-33.63-7.34-67.25-14.73-100.7-22.83c-39.26-9.5-78.4-19.53-117.48-29.79
		c-60.23-15.82-120.26-32.46-180.59-47.93c-44.24-11.34-88.76-21.67-133.28-31.85c-28.03-6.42-56.21-12.28-84.51-17.37
		c-23.73-4.27-47.68-7.36-71.6-10.43c-19-2.43-38.13-3.88-57.17-6.08c-13.77-1.6-27.48-3.74-41.22-5.59
		c-1.97-0.26-4.12-0.68-5.96-0.18c-6.55,1.76-12.95,0.34-19.5,0.07c-28.21-1.13-56.53-3.02-84.67-1.7
		c-22.73,1.06-45.74,0.32-68.29,5.16c-7.71,1.65-15.81,1.33-23.68,2.33c-19.99,2.57-40,5.05-59.9,8.19
		c-17.29,2.72-34.51,6-51.65,9.58c-19.12,4-38.27,8.02-57.12,13.08c-38.08,10.22-76.18,20.47-113.88,31.99
		c-40.01,12.23-79.78,25.32-119.26,39.15c-49.18,17.23-97.93,35.65-146.91,53.47c-37.43,13.62-74.84,27.31-112.39,40.57
		c-47.6,16.81-95.13,33.86-143.08,49.6c-45.66,15-91.58,29.35-138.43,40.36c-36.72,8.63-73.42,17.4-110.31,25.23
		c-18.4,3.9-37.18,6.02-55.84,8.59c-20.61,2.84-41.28,5.28-61.92,7.88c-0.66,0.08-1.33,0.09-2,0.1
		c-40.24,0.66-80.47,1.58-120.71,1.85c-15.91,0.11-31.83-1.16-47.74-1.88c-13.26-0.6-26.53-0.92-39.74-2.06
		c-17.77-1.55-35.47-3.81-53.21-5.67c-8.23-0.87-16.49-1.37-24.72-2.26c-13.14-1.44-26.27-2.93-39.38-4.64
		c-12.44-1.62-24.85-3.49-37.26-5.37c-13.07-1.99-26.17-3.85-39.16-6.26c-23.07-4.29-46.12-8.68-69.08-13.53
		c-27.84-5.88-55.69-11.81-83.33-18.57c-36.34-8.9-72.63-18.09-108.65-28.18c-31.93-8.95-63.49-19.21-95.15-29.09
		c-29.76-9.28-59.49-18.66-89.13-28.32c-15.14-4.94-30.05-10.6-45.06-15.93c0.66-4.73,4.4-5.58,8.07-5.87
		c10.89-0.86,21.81-1.54,32.72-2.08c15.57-0.77,31.15-1.51,46.73-1.97c26.9-0.8,53.81-1.38,80.71-2.06
		c3.32-0.08,6.66-0.09,9.97-0.42c11.17-1.12,22.3-2.84,33.5-3.46c18.89-1.06,37.81-1.45,56.72-2.13c0.99-0.04,1.99-0.14,2.98-0.25
		c11.16-1.23,22.3-2.93,33.49-3.62c17.55-1.06,35.15-1.34,52.72-2.16c10.25-0.47,20.51-1.14,30.73-2.09
		c19.41-1.81,38.78-4.15,58.21-5.75c13.87-1.14,27.81-1.43,41.72-2.12c1.33-0.07,2.65-0.25,3.97-0.4
		c10.5-1.19,20.97-2.78,31.51-3.48c15.55-1.04,31.14-1.42,46.72-2.14c1.64-0.08,3.26-0.55,4.9-0.77c13.09-1.73,26.16-3.78,39.3-5.09
		c17.12-1.7,34.31-2.78,51.45-4.2c7.92-0.65,15.83-1.34,23.72-2.25c15.42-1.79,30.8-3.92,46.23-5.58
		c21.04-2.26,42.13-4.05,63.16-6.35c15.1-1.65,30.14-3.83,45.22-5.7c7.22-0.89,14.47-1.61,21.7-2.4c11.17-1.2,22.33-2.43,33.5-3.57
		c2.64-0.27,5.35,0.03,7.97-0.36c25.48-3.83,50.93-7.83,76.41-11.63c15.36-2.29,30.79-4.17,46.15-6.48
		c15.67-2.35,31.31-4.93,46.95-7.54c17.6-2.94,35.17-6.03,52.77-9.03c17.59-2.99,35.15-6.19,52.79-8.85
		c16.33-2.46,32.86-3.73,49.12-6.58c23.44-4.12,46.77-8.99,70.06-13.92c34.63-7.34,69.25-14.76,103.76-22.64
		c29.06-6.64,57.97-13.89,86.9-21.05c35.69-8.83,71.47-17.36,106.96-26.94c38.09-10.28,75.92-21.49,113.79-32.55
		c43.58-12.73,87.39-24.79,130.52-38.89c44.24-14.47,89.61-23.84,135-33.29c14.21-2.95,29.03-3.2,43.04-6.77
		c21.99-5.6,44.6-5.49,66.81-8.92c16.94-2.61,34.41-2.05,51.66-2.34c20.65-0.34,41.32-0.09,61.98-0.06c2.99,0,6,0.02,8.97,0.3
		c12.5,1.17,24.99,2.46,37.49,3.68c8.24,0.8,16.57,1.02,24.7,2.41c20.84,3.58,41.73,7.05,62.35,11.69
		c25.51,5.75,51.01,11.79,76.06,19.26c26.4,7.88,52.35,17.33,78.31,26.6c17.18,6.15,34.12,12.98,51.02,19.88
		c28.88,11.8,57.61,23.99,86.48,35.84c23.02,9.45,46.19,18.56,69.23,27.98c29.49,12.05,58.86,24.42,88.4,36.36
		c18.15,7.35,36.49,14.25,54.81,21.17c25.77,9.73,51.48,19.65,77.45,28.83c26.58,9.39,53.34,18.31,80.21,26.83
		c27.19,8.63,54.46,17.07,81.98,24.56c29.7,8.08,59.75,14.91,89.61,22.41c12.53,3.14,24.89,6.99,37.48,9.81
		c27.11,6.07,54.27,11.96,81.52,17.38C6181.67,1110.26,6196.14,1111.97,6210.5,1114.19z"/>
	<path class="st2" d="M-0.5,746.43c15.03-2.22,30.1-4.22,45.09-6.71c25.75-4.29,51.43-8.95,77.16-13.35
		c19.21-3.28,38.41-6.62,57.68-9.51c16.34-2.46,32.78-4.22,49.15-6.47c17.67-2.43,35.27-5.28,52.96-7.53
		c14.1-1.79,28.3-2.85,42.43-4.43c9.18-1.03,18.31-2.57,27.49-3.58c14.46-1.59,28.95-2.97,43.43-4.36
		c13.82-1.33,27.64-2.61,41.48-3.79c9.9-0.84,19.82-1.37,29.72-2.25c12.51-1.11,24.99-2.42,37.49-3.65c0.99-0.1,1.99-0.24,2.98-0.28
		c18.24-0.69,36.5-1.09,54.72-2.13c13.52-0.77,26.99-2.42,40.49-3.59c3.31-0.29,6.65-0.25,9.98-0.31
		c35.23-0.68,70.56,0.01,105.68-2.36c44.94-3.02,89.87-2.28,134.7-1.09c38.14,1.01,76.25,3.53,114.46,3.64
		c11.83,0.03,23.66,2.32,35.48,3.56c0.99,0.1,1.99,0.18,2.99,0.22c19.57,0.68,39.16,1.07,58.71,2.12c12.53,0.67,25,2.33,37.5,3.54
		c1.65,0.16,3.32,0.25,4.98,0.35c21.49,1.35,42.99,2.44,64.45,4.14c20.76,1.64,41.48,3.88,62.2,5.94
		c19.41,1.93,38.84,3.7,58.19,6.07c17.7,2.17,35.29,5.2,52.96,7.57c12.45,1.67,24.97,2.75,37.44,4.29
		c10.82,1.34,21.61,2.97,32.42,4.46c13.41,1.85,26.83,3.64,40.23,5.53c10.8,1.52,21.59,3.08,32.37,4.73
		c19.92,3.05,39.84,6.09,59.72,9.32c12.02,1.95,37.76,6.73,37.76,6.73c177.66,53.59-231.78,79.06-247.12,81.4
		c-12.98,1.98-26.11,2.32-38.97,6.73c-12.33,4.24-25.94,4.69-38.95,7.03c-18.86,3.39-37.7,6.87-56.51,10.53
		c-15.25,2.97-30.45,6.21-45.66,9.42c-21.03,4.43-42.16,8.03-62.52,15.69c-17.31,6.52-35.52,10.78-53.49,15.42
		c-23.89,6.16-46.32,16.27-69.35,24.76c-12.98,4.78-24.03,12.15-34.66,20.98c-5.14,4.27-13.43,4.72-20.28,6.95
		c-5.28,1.72-10.47,3.78-15.82,5.23c-9.58,2.6-18.69,6.24-27.62,10.53c-2.79,1.34-6.66,1.94-9.59,1.18
		c-7.98-2.06-14.25,1.39-20.7,4.89c-2.61,1.42-5.48,4.21-7.88,3.87c-12.24-1.75-22.3,6.16-33.9,6.93
		c-5.59,0.37-11.13,1.44-16.69,2.18c-10.41,1.38-20.88,2.05-30.34,7.76c-2.52,1.52-7.12,0.77-10.33-0.28
		c-8.33-2.74-16.16-3.26-23.92,1.64c-4.48,2.83-9.38,2.76-14.43,1.21c-7.64-2.35-15.35-5.07-22.37,1.87
		c-0.96,0.94-3.18,1.07-4.73,0.88c-7.2-0.89-14.38-1.91-21.53-3.1c-6.37-1.06-9.33,0.52-11.16,6.69
		c-1.57,5.31-1.37,12.41-7.82,13.95c-7.11,1.7-14.33-1.7-19.06-6.57c-5.25-5.4-11.38-8.06-18-9.91
		c-19.47-5.45-38.91-11.12-58.65-15.41c-29.39-6.4-58.96-11.99-88.55-17.35c-20.79-3.76-41.71-6.94-62.67-9.67
		c-15.73-2.04-31.63-2.85-47.43-4.39c-10.52-1.02-21-2.35-31.5-3.54c-0.99-0.11-1.98-0.31-2.97-0.36
		c-15.57-0.7-31.14-1.54-46.72-2.03c-25.57-0.8-51.25-0.2-76.68-2.45c-17.31-1.53-34.62-2.4-51.73-1.22
		c-24.93,1.72-49.84,0.95-74.73,1.8c-19.84,0.67-39.64,2.52-59.46,3.84C-0.5,875.68-0.5,811.06-0.5,746.43z"/>
	<path class="st2" d="M2857.25,1001.03c-23.91,0.67-222.09,11.72-235.95,7.45c-56.42-17.36-296.33-91.91-352.98-108.52
		c-35.28-10.34-71.03-19.07-106.6-28.36c-12.78-3.34,26.36,6.81-38.54-9.27c-60.19-27.88-12.19-65.52,235.49,4.33
		c18.43,3.97,36.64,9,55.1,12.82c28.79,5.95,57.75,11.09,86.57,16.92c36.96,7.47,73.81,15.45,110.78,22.85
		c20.4,4.09,40.97,7.36,61.43,11.13c18.53,3.42,37.02,7.08,55.55,10.52c3.88,0.72,11.76,1.51,11.76,1.51
		S2850.09,996.45,2857.25,1001.03z"/>
</g>
<g id="Layer_2">
	<path class="st4" d="M-0.5,514.58c710.82-409.76,2038.94,183.35,2973.32,379.25c1876.16,293.65,1377.5-773.02,3237.18,96.32
		c0,277.8,0.5,523.93,0,584.85c-65.99,0-5916.64,0-6210,0C0,1179.48,0,712.82-0.5,514.58z"/>
	<path class="st5" d="M-0.5,746.43C0,818.41,0,1575,0,1575h6210c0,0,0.5-399.52,0.5-460.81
		c-1822.49-710.71-1138.81-48.39-3239.33,19.67C1856.99,809.48,1272.02,419.48-0.5,746.43z"/>
	<path class="st6" d="M-0.5,1052.23C0,1155.48,0,1575,0,1575h6210c0,0,0.5-321.72,0.5-432.82
		c-624.42-27.99-1030.49-434.7-1843.7-38.02c-786.79,355.32-1350.79,27.32-1630.79-52.68c-574.3-179.88-848-360-2016.31-65.41
		C268.02,1147.48,288.02,1020.13-0.5,1052.23z"/>
	<path class="st4" d="M-0.5,1276.09V1575H6210c0,0,0-247.52,0.5-354.87c-318.49-19.86-1198.49-401.72-1902.49,0
		c-736,415.35-1620.54-39.12-1620.54-39.12c-850.89-408.69-1683.45-41.52-1781.77-59.08C136.02,1363.48-0.5,1276.09-0.5,1276.09z"/>
	<path class="st5" d="M-0.5,1330.06L0,1575h6210c0,0,0-111.52,0.5-214.96c-614.49-20.56-1174.52-333.64-1910.49-8.56
		c-900,348-1272,72-2000.45-33.6c-955.8-249.74-1327.41-81.16-1587.48-21.78C452.02,1355.48-0.5,1330.06-0.5,1330.06z"/>
</g>
</svg>
