<?xml version="1.0" encoding="UTF-8" standalone="no"?>
<!-- Created with Inkscape (http://www.inkscape.org/) -->

<svg
   width="297mm"
   height="210mm"
   viewBox="0 0 297 210"
   version="1.1"
   id="svg1"
   xml:space="preserve"
   inkscape:version="1.4.2 (ebf0e940, 2025-05-08)"
   sodipodi:docname="logo_full_small.svg"
   xmlns:inkscape="http://www.inkscape.org/namespaces/inkscape"
   xmlns:sodipodi="http://sodipodi.sourceforge.net/DTD/sodipodi-0.dtd"
   xmlns="http://www.w3.org/2000/svg"
   xmlns:svg="http://www.w3.org/2000/svg"><sodipodi:namedview
     id="namedview1"
     pagecolor="#ffffff"
     bordercolor="#000000"
     borderopacity="0.25"
     inkscape:showpageshadow="2"
     inkscape:pageopacity="0.0"
     inkscape:pagecheckerboard="0"
     inkscape:deskcolor="#d1d1d1"
     inkscape:document-units="mm"
     inkscape:zoom="0.35034371"
     inkscape:cx="560.87777"
     inkscape:cy="385.33587"
     inkscape:window-width="1400"
     inkscape:window-height="759"
     inkscape:window-x="273"
     inkscape:window-y="118"
     inkscape:window-maximized="0"
     inkscape:current-layer="svg1" /><defs
     id="defs1"><clipPath
       clipPathUnits="userSpaceOnUse"
       id="clipPath100-35"><path
         d="M 0,816.504 H 1746.369 V 0 H 0 Z"
         transform="translate(-850.9238,-391.50651)"
         id="path100-4" /></clipPath><clipPath
       clipPathUnits="userSpaceOnUse"
       id="clipPath102-3"><path
         d="M 0,816.504 H 1746.369 V 0 H 0 Z"
         transform="translate(-1107.4906,-548.22802)"
         id="path102-6" /></clipPath><clipPath
       clipPathUnits="userSpaceOnUse"
       id="clipPath104-5"><path
         d="M 0,816.504 H 1746.369 V 0 H 0 Z"
         transform="translate(-1198.7389,-379.53741)"
         id="path104-9" /></clipPath><clipPath
       clipPathUnits="userSpaceOnUse"
       id="clipPath106-5"><path
         d="M 0,816.504 H 1746.369 V 0 H 0 Z"
         transform="translate(-1451.6167,-487.97941)"
         id="path106-4" /></clipPath><clipPath
       clipPathUnits="userSpaceOnUse"
       id="clipPath112-9"><path
         d="M 0,816.504 H 1746.369 V 0 H 0 Z"
         transform="translate(-1547.7206,-559.74952)"
         id="path112-1" /></clipPath><clipPath
       clipPathUnits="userSpaceOnUse"
       id="clipPath108-7"><path
         d="M 0,816.504 H 1746.369 V 0 H 0 Z"
         transform="translate(-2.5000001e-5)"
         id="path108-5" /></clipPath><clipPath
       clipPathUnits="userSpaceOnUse"
       id="clipPath110-5"><path
         d="M 0,816.504 H 1746.369 V 0 H 0 Z"
         transform="translate(-1672.6102,-470.10171)"
         id="path110-4" /></clipPath><clipPath
       clipPathUnits="userSpaceOnUse"
       id="clipPath98-1"><path
         d="M 0,816.504 H 1746.369 V 0 H 0 Z"
         transform="translate(-1647.6538,-206.98201)"
         id="path98-8" /></clipPath><clipPath
       clipPathUnits="userSpaceOnUse"
       id="clipPath96-8"><path
         d="M 0,816.504 H 1746.369 V 0 H 0 Z"
         transform="translate(-1509.1672,-273.82081)"
         id="path96-3" /></clipPath><clipPath
       clipPathUnits="userSpaceOnUse"
       id="clipPath92-1"><path
         d="M 0,816.504 H 1746.369 V 0 H 0 Z"
         transform="translate(-677.48359,-339.44281)"
         id="path92-37" /></clipPath><clipPath
       clipPathUnits="userSpaceOnUse"
       id="clipPath94-8"><path
         d="M 0,816.504 H 1746.369 V 0 H 0 Z"
         transform="translate(-622.89012,-260.40571)"
         id="path94-8" /></clipPath><clipPath
       clipPathUnits="userSpaceOnUse"
       id="clipPath92-1-7"><path
         d="M 0,816.504 H 1746.369 V 0 H 0 Z"
         transform="translate(-677.48359,-339.44281)"
         id="path92-37-5" /></clipPath><clipPath
       clipPathUnits="userSpaceOnUse"
       id="clipPath94-8-4"><path
         d="M 0,816.504 H 1746.369 V 0 H 0 Z"
         transform="translate(-622.89012,-260.40571)"
         id="path94-8-8" /></clipPath><clipPath
       clipPathUnits="userSpaceOnUse"
       id="clipPath94-8-9"><path
         d="M 0,816.504 H 1746.369 V 0 H 0 Z"
         transform="translate(-622.89012,-260.40571)"
         id="path94-8-2" /></clipPath><style>
    .logo-ring { fill: #2d2d2d; }
    .logo-ring-accent { fill: #000000; }
    .logo-text { fill: #000000; stroke: #000000; }

    @media (prefers-color-scheme: dark) {
      .logo-ring { fill: #d2e7db; }
      .logo-ring-accent { fill: #11512c; }
      .logo-text { fill: #d2e7db; stroke: #d2e7db; }
    }
  </style></defs><g
     inkscape:label="Layer 1"
     inkscape:groupmode="layer"
     id="layer1"><g
       id="g2223"
       transform="translate(1.675749,-164.2234)"><g
         id="g2241"
         transform="translate(0,24.378111)"><path
           id="path95"
           class="logo-text"
           d="m 0,0 c 0,41.147 29.705,69.246 66.839,69.246 18.866,0 34.722,-7.424 46.564,-21.075 l -5.017,-4.414 C 98.951,55.599 83.495,63.226 66.839,63.226 33.318,63.226 7.023,37.732 7.023,0 c 0,-37.331 26.295,-63.226 59.816,-63.226 16.656,0 32.112,7.627 41.547,19.469 l 5.22,-4.216 C 100.958,-62.222 85.705,-69.246 66.839,-69.246 29.705,-69.246 0,-41.147 0,0"
           style="fill-opacity:1;fill-rule:nonzero;stroke-width:4;stroke-linecap:butt;stroke-linejoin:miter;stroke-miterlimit:10;stroke-dasharray:none;stroke-opacity:1"
           transform="matrix(0.16734697,0,0,-0.16734697,250.74936,268.09147)"
           clip-path="url(#clipPath96-8)" /><path
           id="path97"
           class="logo-text"
           d="m 0,0 v 133.875 h 81.889 v -6.02 H 6.42 V 71.856 H 80.485 V 65.835 H 6.42 V 6.02 H 81.889 V 0 Z"
           style="fill-opacity:1;fill-rule:nonzero;stroke-width:4;stroke-linecap:butt;stroke-linejoin:miter;stroke-miterlimit:10;stroke-dasharray:none;stroke-opacity:1"
           transform="matrix(0.16734697,0,0,-0.16734697,273.92463,279.27673)"
           clip-path="url(#clipPath98-1)" /><path
           id="path99"
           class="logo-text"
           d="M 0,0 H -49.047 V 183.748 H 0 c 54.17,0 90.564,-36.997 90.564,-92.061 C 90.564,36.845 54.17,0 0,0 M 0,221.804 H -90.473 V -38.056 H 0 c 78.372,0 133.105,53.354 133.105,129.743 0,76.611 -54.733,130.117 -133.105,130.117"
           style="fill-opacity:1;fill-rule:nonzero;stroke:none"
           transform="matrix(0.16734697,0,0,-0.16734697,140.5943,248.39713)"
           clip-path="url(#clipPath100-35)" /><path
           id="path101"
           class="logo-text"
           d="M 0,0 C -20.107,0 -39.252,-8.533 -55.032,-24.293 V -3.74 h -38.431 v -191.038 h 38.431 v 131.684 c 8.027,12.805 29.234,25.038 43.808,25.038 3.922,0 6.942,-0.299 10.099,-0.998 l 6.314,-1.401 V 0 Z"
           style="fill-opacity:1;fill-rule:nonzero;stroke:none"
           transform="matrix(0.16734697,0,0,-0.16734697,183.52997,222.17026)"
           clip-path="url(#clipPath102-3)" /><path
           id="path103"
           class="logo-text"
           d="m 0,0 c -23.148,0 -39.318,14.016 -39.318,34.086 0,20.287 16.17,34.458 39.318,34.458 18.638,0 35.147,-7.069 44.557,-18.993 V 18.993 C 35.147,7.069 18.638,0 0,0 m 7.854,169.438 c -30.672,0 -55.503,-10.307 -75.924,-31.514 l -2.904,-3.018 19.069,-28.336 4.454,4.763 c 14.934,15.975 31.316,23.416 51.566,23.416 19.55,0 40.442,-8.66 40.442,-32.963 V 81.524 c -14.264,11.688 -32.593,17.597 -54.656,17.597 -33.992,0 -68.4,-22.211 -68.4,-64.663 0,-42.242 35.239,-65.035 68.4,-65.035 21.181,0 39.844,6.264 54.656,18.233 v -13.743 h 38.432 v 129.37 c 0,41.424 -28.089,66.155 -75.135,66.155"
           style="fill-opacity:1;fill-rule:nonzero;stroke:none"
           transform="matrix(0.16734697,0,0,-0.16734697,198.80011,250.40011)"
           clip-path="url(#clipPath104-5)" /><path
           id="path105"
           class="logo-text"
           d="m 0,0 v -78.772 c -10.145,-14.671 -30.065,-24.805 -49.042,-24.805 -32.067,0 -52.787,25.271 -52.787,64.381 0,38.732 21.212,64.756 52.787,64.756 C -28.271,25.56 -8.964,12.902 0,0 M 0,125.332 V 37.889 c -15.157,14.824 -34.864,23.107 -55.777,23.107 -51.206,0 -85.608,-40.265 -85.608,-100.192 0,-59.709 34.402,-99.823 85.608,-99.823 20.7,0 40.727,8.351 55.777,22.834 v -18.344 h 38.431 v 259.861 z"
           style="fill-opacity:1;fill-rule:nonzero;stroke:none"
           transform="matrix(0.16734697,0,0,-0.16734697,241.11844,232.25268)"
           clip-path="url(#clipPath106-5)" /><path
           id="path107"
           class="logo-text"
           d="m 1528.281,353.451 h 38.431 v 191.038 h -38.431 z"
           style="fill-opacity:1;fill-rule:nonzero;stroke:none"
           transform="matrix(0.16734697,0,0,-0.16734697,-1.8052236,313.91454)"
           clip-path="url(#clipPath108-7)" /><path
           id="path109"
           class="logo-text"
           d="m 0,0 c -24.937,5.936 -40.078,10.408 -40.078,22.443 0,13.682 14.326,23.237 34.833,23.237 20.057,0 39.161,-8.024 49.868,-20.939 l 4.424,-5.341 19.347,28.753 -3.02,3.02 C 47.248,69.296 22.828,78.874 -5.245,78.874 c -49.827,0 -72.519,-29.642 -72.519,-57.181 0,-41.099 38.107,-50.367 68.729,-57.813 26.821,-6.522 43.108,-11.526 43.108,-25.971 0,-15.947 -14.351,-25.853 -37.448,-25.853 -24.029,0 -45.211,12.06 -55.549,24.014 l -4.292,4.961 -20.938,-28.996 2.944,-3.116 c 18.795,-19.945 44.603,-30.06 76.71,-30.06 46.326,0 76.259,23.472 76.259,59.8 C 71.759,-17.08 31.97,-7.611 0,0"
           style="fill-opacity:1;fill-rule:nonzero;stroke:none"
           transform="matrix(0.16734697,0,0,-0.16734697,278.10104,235.24446)"
           clip-path="url(#clipPath110-5)" /><path
           id="path111"
           class="logo-text"
           d="M 0,0 C 13.378,0 24.263,10.717 24.263,23.89 24.263,37.271 13.378,48.155 0,48.155 -12.952,48.155 -23.893,37.043 -23.893,23.89 -23.893,10.717 -13.175,0 0,0"
           style="fill-opacity:1;fill-rule:nonzero;stroke:none"
           transform="matrix(0.16734697,0,0,-0.16734697,257.20111,220.24217)"
           clip-path="url(#clipPath112-9)" /></g></g></g><path
     style="opacity:1;fill:#0c361d;fill-opacity:1;fill-rule:evenodd;stroke:#fab85c;stroke-width:0;stroke-linecap:round;stroke-linejoin:round;stroke-miterlimit:4.9"
     d="m 60.71066,68.969044 c 3.813121,-3.249595 6.078033,-5.068346 8.594095,-7.158388 0.0069,-0.0057 0.005,0.002 0.137129,0.05472 0.131662,0.05246 0.195907,0.07451 0.399543,0.148174 0.310854,0.112451 0.678398,0.264692 1.74378,0.492029 1.384071,0.295341 2.971833,0.807063 5.302509,0.935481 5.933459,0.326928 13.972216,0.55096 19.85264,-2.372595 -0.154357,3.663928 9.832384,18.567069 14.913184,25.691261 1.70963,2.397216 2.93821,3.653162 2.93821,3.653162 -3.82753,3.405239 -6.13541,5.087428 -8.54502,7.188352 -2.36999,0.288669 -8.33858,-5.186036 -11.524222,-12.143626 -7.762805,42.692086 22.893042,65.045776 22.893042,65.045776 -2.4386,2.08931 -5.23858,4.36684 -8.55113,7.18096 -13.489695,-0.646 -23.09738,-7.29724 -30.135821,-20.47629 l 6.159931,16.66091 -6.639505,7.68341 c -4.917211,-4.26166 -13.429453,-7.25759 -12.286827,-32.30156 l -18.772507,13.49535 -0.01165,-17.02315 c -14.154258,7.44991 -21.695032,2.03782 -29.708961,-1.78364 10.210679,-7.43985 12.737408,-7.6926 19.398836,-12.68304 -11.442778,-0.59022 -21.185968,-2.53005 -30.5203961,-17.667881 2.3090727,-1.875702 5.3570801,-4.47092 8.6351671,-7.173935 0,0 0.915872,1.004583 4.620706,2.311035 2.830377,0.998088 8.475701,2.94261 14.245248,3.019507 C 47.45115,91.926359 65.221392,87.521793 75.27628,77.677401 69.445185,77.317864 63.995243,76.003263 60.71066,68.969044 Z"
     id="path2244"
     sodipodi:nodetypes="cssssscssccsccccccccccssscc"
     inkscape:label="path2244" /><path
     style="opacity:1;fill:#543e30;fill-rule:evenodd;stroke:#fab85c;stroke-width:0;stroke-linecap:round;stroke-linejoin:round;stroke-miterlimit:4.9;fill-opacity:1"
     d="m 34.653577,147.96865 c 24.236246,-30.2953 23.81105,-30.5079 23.81105,-30.5079 l 11.799223,7.65355 -10.204736,20.19687 -10.417331,12.64962 z"
     id="path2246" /><path
     style="opacity:1;fill:#f1ac7d;fill-opacity:1;fill-rule:evenodd;stroke:#fab85c;stroke-width:0;stroke-linecap:round;stroke-linejoin:round;stroke-miterlimit:4.9"
     d="m 44.92799,135.16886 c 7.652715,-9.79404 13.556826,-17.53365 13.556826,-17.53365 l 11.886502,7.17039 -10.141749,20.2835 z"
     id="path2245"
     sodipodi:nodetypes="ccccc" /><path
     style="opacity:1;fill:#735e29;fill-opacity:1;fill-rule:evenodd;stroke:#fab85c;stroke-width:0;stroke-linecap:round;stroke-linejoin:round;stroke-miterlimit:4.9"
     d="m 87.05127,54.860324 11.018282,-13.139814 7.528018,3.421827 7.59645,-4.243065 -0.27374,8.212384 6.63834,6.159288 -11.08671,13.41356 -3.3267,0.342183 -0.22807,-8.736875 -1.57802,-2.897336 -4.170933,-0.1559 c -2.801099,2.16135 -6.569395,3.589588 -10.151325,4.839969 z"
     id="path2243"
     sodipodi:nodetypes="ccccccccccccc" /><path
     style="display:inline;opacity:1;fill:#77b792;fill-opacity:1;fill-rule:evenodd;stroke:#fab85c;stroke-width:0;stroke-linecap:round;stroke-linejoin:round;stroke-miterlimit:4.9"
     d="m 69.301954,61.806028 c 1.599209,0.656379 3.048429,0.858022 4.576178,1.148007 13.807424,2.620819 22.220688,-4.495437 31.418408,-9.068229 -0.28865,6.851551 -2.34124,23.955948 9.30638,36.532775 -2.36999,0.288669 -9.6847,-1.881946 -12.87036,-8.839536 -3.352419,36.439135 -5.570427,52.171335 15.68805,68.922645 -13.48971,-0.646 -23.401536,-7.41548 -30.439977,-20.59453 l -2.091565,23.96559 c -4.917211,-4.26166 -11.513342,-6.76062 -10.370716,-31.80459 l -18.772507,13.49535 2.981714,-23.60856 c -14.752931,11.34129 -23.888002,9.4818 -31.901931,5.66034 l 20.01448,-12.93474 C 35.39733,104.09033 24.311758,101.55268 14.977329,86.41486 44.573855,101.01233 60.454943,79.917706 83.063023,69.939062 77.231928,69.579525 72.586537,68.840247 69.301954,61.806028 Z"
     id="path2247"
     sodipodi:nodetypes="cscccccccccccccc" /><path
     style="opacity:1;fill:#fdd665;fill-opacity:1;fill-rule:evenodd;stroke:#fab85c;stroke-width:0;stroke-linecap:round;stroke-linejoin:round;stroke-miterlimit:4.9"
     d="m 98.111289,41.767025 7.504731,3.422876 7.52695,-4.213815 -0.28154,8.186655 6.63422,6.134951 -8.07139,1.819323 -3.28495,7.938638 -4.37994,-7.391146 -8.965188,-0.821238 5.611798,-6.159288 z"
     id="path2242"
     sodipodi:nodetypes="ccccccccccc" /><circle
     style="opacity:1;fill:#fd5f6d;fill-opacity:1;fill-rule:evenodd;stroke:#fab85c;stroke-width:0;stroke-linecap:round;stroke-linejoin:round;stroke-miterlimit:4.9"
     id="path2248"
     cx="93.980743"
     cy="72.884644"
     r="6.7614675" /><path
     id="path91"
     class="logo-ring"
     d="m 0,0 c -19.429,-42.745 -38.858,-85.49 -58.288,-128.234 2.456,5.402 4.156,11.252 5.074,17.523 0.934,6.382 1.059,13.196 0.347,20.413 -0.724,7.34 -2.312,15.089 -4.789,23.215 -2.516,8.256 -5.947,16.89 -10.315,25.863 -6.673,13.709 -15.308,27.748 -25.766,41.906 -10.641,14.407 -23.116,28.864 -37.242,43.139 -14.299,14.451 -30.209,28.632 -47.505,42.3 -17.406,13.754 -36.109,26.903 -55.844,39.2 -19.736,12.296 -39.786,23.293 -59.815,32.863 -19.901,9.51 -39.659,17.552 -58.952,24.032 -19.06,6.402 -37.56,11.245 -55.212,14.466 -17.346,3.166 -33.785,4.75 -49.068,4.721 -10.002,-0.019 -19.289,-0.729 -27.834,-2.093 -8.41,-1.342 -16.091,-3.316 -23.024,-5.885 -6.818,-2.526 -12.905,-5.624 -18.248,-9.259 -5.25,-3.572 -9.778,-7.66 -13.571,-12.229 l 90.037,108.452 c 4.291,5.169 9.26,9.88 14.891,14.096 5.722,4.285 12.123,8.056 19.185,11.275 7.172,3.27 15.019,5.966 23.516,8.05 8.623,2.115 17.906,3.597 27.818,4.405 15.124,1.232 31.208,0.856 48.011,-1.112 17.076,-1.999 34.813,-5.633 52.936,-10.858 18.329,-5.283 36.956,-12.166 55.584,-20.576 18.737,-8.459 37.368,-18.414 55.581,-29.762 18.212,-11.348 35.353,-23.681 51.192,-36.765 15.746,-13.008 30.116,-26.685 42.914,-40.795 12.654,-13.952 23.704,-28.255 32.993,-42.683 9.139,-14.196 16.529,-28.446 22.048,-42.54 C 0.271,83.89 3.005,74.921 4.879,66.266 6.725,57.737 7.734,49.523 7.931,41.661 8.125,33.922 7.532,26.531 6.178,19.524 4.846,12.63 2.778,6.112 0,0"
     style="fill-opacity:1;fill-rule:nonzero;stroke:none"
     clip-path="url(#clipPath92-1)"
     transform="matrix(0.15249573,0,0,-0.15249573,114.94829,116.93618)" /><path
     id="path91-5"
     class="logo-ring"
     d="m 0,0 c -19.429,-42.745 -38.858,-85.49 -58.288,-128.234 2.456,5.402 4.156,11.252 5.074,17.523 0.934,6.382 1.059,13.196 0.347,20.413 -0.724,7.34 -2.312,15.089 -4.789,23.215 -2.516,8.256 -5.947,16.89 -10.315,25.863 -6.673,13.709 -15.308,27.748 -25.766,41.906 -10.641,14.407 -23.116,28.864 -37.242,43.139 -14.299,14.451 -30.209,28.632 -47.505,42.3 -17.406,13.754 -36.109,26.903 -55.844,39.2 -19.736,12.296 -39.786,23.293 -59.815,32.863 -19.901,9.51 -39.659,17.552 -58.952,24.032 -19.06,6.402 -37.56,11.245 -55.212,14.466 -17.346,3.166 -33.785,4.75 -49.068,4.721 -10.002,-0.019 -19.289,-0.729 -27.834,-2.093 -8.41,-1.342 -16.091,-3.316 -23.024,-5.885 -6.818,-2.526 -12.905,-5.624 -18.248,-9.259 -5.25,-3.572 -9.778,-7.66 -13.571,-12.229 l 90.037,108.452 c 4.291,5.169 9.26,9.88 14.891,14.096 5.722,4.285 12.123,8.056 19.185,11.275 7.172,3.27 15.019,5.966 23.516,8.05 8.623,2.115 17.906,3.597 27.818,4.405 15.124,1.232 31.208,0.856 48.011,-1.112 17.076,-1.999 34.813,-5.633 52.936,-10.858 18.329,-5.283 36.956,-12.166 55.584,-20.576 18.737,-8.459 37.368,-18.414 55.581,-29.762 18.212,-11.348 35.353,-23.681 51.192,-36.765 15.746,-13.008 30.116,-26.685 42.914,-40.795 12.654,-13.952 23.704,-28.255 32.993,-42.683 9.139,-14.196 16.529,-28.446 22.048,-42.54 C 0.271,83.89 3.005,74.921 4.879,66.266 6.725,57.737 7.734,49.523 7.931,41.661 8.125,33.922 7.532,26.531 6.178,19.524 4.846,12.63 2.778,6.112 0,0"
     style="fill-opacity:1;fill-rule:nonzero;stroke:none"
     clip-path="url(#clipPath92-1-7)"
     transform="matrix(0.14234381,0,0,-0.14234381,109.1233,121.58613)"
     sodipodi:nodetypes="cccscccccccccscccccccsccccccccccssc" /><path
     id="path93"
     class="logo-ring-accent"
     d="m 0,0 c -2.415,11.755 -6.848,24.405 -13.378,37.817 -6.673,13.709 -15.308,27.748 -25.765,41.906 -10.642,14.407 -23.116,28.864 -37.242,43.139 -14.3,14.451 -30.21,28.632 -47.506,42.3 -17.406,13.754 -36.108,26.903 -55.844,39.2 -19.735,12.296 -39.786,23.293 -59.814,32.863 -19.902,9.51 -39.659,17.552 -58.953,24.032 -19.06,6.402 -37.56,11.245 -55.211,14.466 -17.346,3.166 -33.786,4.75 -49.068,4.721 -14.952,-0.028 -28.297,-1.6 -39.952,-4.589 -11.374,-2.916 -21.112,-7.175 -29.161,-12.653 -7.843,-5.337 -14.07,-11.822 -18.646,-19.343 -4.456,-7.322 -7.344,-15.619 -8.638,-24.79 -0.402,-2.854 -0.629,-5.772 -0.719,-8.737 l 26.039,17.381 c 0.478,0.817 0.974,1.622 1.494,2.412 4.433,6.741 10.373,12.518 17.779,17.232 7.584,4.827 16.695,8.532 27.275,11.008 10.819,2.531 23.152,3.773 36.917,3.615 14.042,-0.162 29.101,-1.773 44.947,-4.8 16.1,-3.074 32.939,-7.595 50.258,-13.503 17.512,-5.974 35.424,-13.335 53.455,-21.998 18.134,-8.712 36.286,-18.693 54.158,-29.829 17.873,-11.136 34.827,-23.029 50.63,-35.461 15.712,-12.362 30.2,-25.189 43.261,-38.264 12.918,-12.932 24.374,-26.041 34.204,-39.122 9.675,-12.876 17.729,-25.665 24.031,-38.179 6.176,-12.267 10.463,-23.864 12.923,-34.67 2.406,-10.567 3.061,-20.356 2.034,-29.269 -0.996,-8.646 -3.575,-16.453 -7.66,-23.347 l -4.453,-32.757 c 2.133,1.17 4.191,2.413 6.162,3.739 7.7,5.18 13.914,11.405 18.56,18.608 4.773,7.398 7.889,15.823 9.261,25.191 C 2.787,-22.067 2.357,-11.472 0,0"
     style="fill-opacity:1;fill-rule:nonzero;stroke:none"
     clip-path="url(#clipPath94-8)"
     transform="matrix(0.15249573,0,0,-0.15249573,106.62305,128.98899)" /><path
     style="opacity:1;fill:#1d8749;fill-opacity:1;fill-rule:evenodd;stroke:#fab85c;stroke-width:0;stroke-linecap:round;stroke-linejoin:round;stroke-miterlimit:4.9"
     d="m 77.17272,99.232014 c 9.269999,5.840566 13.709316,9.218216 21.460892,19.169606 0.621144,12.47319 5.645778,19.76858 18.786998,32.10007 -13.48971,-0.646 -23.401536,-7.41548 -30.439977,-20.59453 l -2.091565,23.96559 c -4.917211,-4.26166 -11.513342,-6.76062 -10.370716,-31.80459 l -18.772507,13.49535 2.981714,-23.60856 c -14.752931,11.34129 -23.888002,9.4818 -31.901931,5.66034 l 20.01448,-12.93474 c -11.442778,-0.59022 -22.52835,-3.12787 -31.862779,-18.26569 19.070989,6.870646 21.896073,5.83892 38.14746,2.642653 8.631215,2.519296 16.493224,5.326159 24.047931,10.174501 z"
     id="path2255"
     sodipodi:nodetypes="ccccccccccccc" /><circle
     style="opacity:1;fill:#ff939c;fill-opacity:1;fill-rule:evenodd;stroke:#fab85c;stroke-width:0;stroke-linecap:round;stroke-linejoin:round;stroke-miterlimit:4.9"
     id="circle2248"
     cx="84.295822"
     cy="125.03891"
     r="6.7614675" /><circle
     style="opacity:1;fill:#77b792;fill-opacity:1;fill-rule:evenodd;stroke:#fab85c;stroke-width:0;stroke-linecap:round;stroke-linejoin:round;stroke-miterlimit:4.9"
     id="circle2249"
     cx="48.13052"
     cy="102.14528"
     r="6.7614675" /><path
     id="circle2250"
     style="opacity:1;fill:#ffc45d;fill-opacity:1;fill-rule:evenodd;stroke:#fab85c;stroke-width:0;stroke-linecap:round;stroke-linejoin:round;stroke-miterlimit:4.9"
     d="M 72.878756 96.764119 A 6.7614675 6.7614675 0 0 0 68.109538 103.22574 A 6.7614675 6.7614675 0 0 0 74.870882 109.98708 A 6.7614675 6.7614675 0 0 0 81.632227 103.22574 A 6.7614675 6.7614675 0 0 0 81.52629 102.0346 C 80.386048 101.24685 79.215826 100.47894 78.018494 99.732931 C 76.318206 98.673486 74.601246 97.682238 72.878756 96.764119 z " /></svg>
