<?xml version="1.0" encoding="utf-8"?>
<!-- Generator: Adobe Illustrator 25.0.0, SVG Export Plug-In . SVG Version: 6.00 Build 0)  -->
<svg version="1.1" id="Capa_1" xmlns="http://www.w3.org/2000/svg" xmlns:xlink="http://www.w3.org/1999/xlink" x="0px" y="0px"
	 viewBox="0 0 399 399" style="enable-background:new 0 0 399 399;" xml:space="preserve">
<style type="text/css">
	.st0{fill:none;stroke:#FFFFFF;stroke-width:8;stroke-linejoin:round;stroke-miterlimit:10;}
	.st1{fill:none;stroke:#FFFFFF;stroke-width:8;stroke-linecap:round;stroke-linejoin:round;stroke-miterlimit:10;}
</style>
<g>
	<polyline class="st0" points="126.6,112.4 199.5,39.6 272.4,112.4 	"/>
	<polyline class="st0" points="172.8,112.4 199.5,39.6 226.2,112.4 	"/>
	<polyline class="st1" points="199.5,25.3 199.5,39.6 199.5,45.5 	"/>
	<path class="st0" d="M177.4,213c-54.1-8.7-97.8-48.5-112.1-100.5h61.3h46.2h53.4h46.2h61.3c-14,51-56.2,90.3-108.9,100"/>
	<path class="st0" d="M179.2,208.8c7.8-17.7,32.9-17.7,40.6,0l13.4,30.7l33.7,77h-67.5H132l33.7-77L179.2,208.8z"/>
	<rect x="112.4" y="316.5" class="st0" width="174.2" height="34.4"/>
	<polyline class="st0" points="266.8,350.8 266.8,395 132.2,395 132.2,350.8 	"/>
	<line class="st0" x1="69.8" y1="125.5" x2="328.7" y2="125.5"/>
	<circle class="st0" cx="199.5" cy="220.3" r="10.7"/>
	<circle class="st0" cx="199.5" cy="14.7" r="10.7"/>
	<line class="st0" x1="199.5" y1="230.9" x2="199.5" y2="313"/>
	<line class="st1" x1="56.7" y1="395" x2="342.3" y2="395"/>
	<line class="st0" x1="132.6" y1="371.6" x2="264.7" y2="371.6"/>
</g>
</svg>
