<?xml version="1.0" encoding="utf-8"?>
<!-- Generator: Adobe Illustrator 16.0.0, SVG Export Plug-In . SVG Version: 6.00 Build 0)  -->
<!DOCTYPE svg PUBLIC "-//W3C//DTD SVG 1.1//EN" "http://www.w3.org/Graphics/SVG/1.1/DTD/svg11.dtd">
<svg version="1.1" id="Alien_1_" xmlns="http://www.w3.org/2000/svg" xmlns:xlink="http://www.w3.org/1999/xlink" x="0px" y="0px"
	 width="512px" height="512px" viewBox="0 0 512 512" enable-background="new 0 0 512 512" xml:space="preserve">
<circle id="Background" fill="#323653" cx="256" cy="256" r="255.931"/>
<g id="Stars">
	<g>
		<path fill="#F2F2F2" d="M347.455,142.4c1.306,4.885-1.34,10.041-5.899,11.52c-4.565,1.474-9.319-1.295-10.624-6.183
			c-1.303-4.888,1.338-10.047,5.895-11.516C341.391,134.747,346.149,137.516,347.455,142.4z"/>
		<polygon fill="#F2F2F2" points="333.649,124.305 337.429,145.636 344.737,165.831 340.955,144.499 		"/>
		<polygon fill="#F2F2F2" points="319.807,151.329 339.693,146.96 358.572,138.809 338.686,143.183 		"/>
	</g>
	<g>
		<path fill="#F2F2F2" d="M271.85,459.405c0.63,2.354-0.645,4.832-2.838,5.543c-2.196,0.712-4.486-0.619-5.115-2.974
			c-0.629-2.354,0.645-4.836,2.839-5.545C268.932,455.718,271.223,457.052,271.85,459.405z"/>
		<polygon fill="#F2F2F2" points="265.202,450.697 267.024,460.965 270.541,470.684 268.723,460.416 		"/>
		<polygon fill="#F2F2F2" points="258.542,463.704 268.118,461.598 277.203,457.678 267.63,459.78 		"/>
	</g>
	<g>
		<path fill="#F2F2F2" d="M452.13,376.514c0.631,2.354-0.644,4.832-2.837,5.543c-2.196,0.712-4.486-0.619-5.115-2.974
			c-0.629-2.354,0.645-4.836,2.839-5.545C449.213,372.826,451.504,374.16,452.13,376.514z"/>
		<polygon fill="#F2F2F2" points="445.483,367.806 447.306,378.073 450.822,387.792 449.004,377.524 		"/>
		<polygon fill="#F2F2F2" points="438.823,380.813 448.398,378.706 457.484,374.786 447.911,376.889 		"/>
	</g>
	<g id="Star_11_">
		<path fill="#F2F2F2" d="M67.787,158.06c0.936,3.509-0.96,7.212-4.235,8.271s-6.692-0.929-7.628-4.437
			c-0.938-3.511,0.96-7.215,4.234-8.271C63.434,152.563,66.849,154.55,67.787,158.06z"/>
		<polygon fill="#F2F2F2" points="57.875,145.068 60.588,160.387 65.833,174.885 63.121,159.567 		"/>
		<polygon fill="#F2F2F2" points="47.935,164.47 62.216,161.333 75.772,155.48 61.491,158.62 		"/>
	</g>
</g>
<path id="Shadow" opacity="0.1" d="M113.23,468.463c18.483,12.403,38.89,22.599,60.997,30.053
	c133.938,45.161,279.127-26.806,324.289-160.743c1.396-4.141,2.678-8.291,3.852-12.449l-87.388-87.389l-9.219,4.582l-34.559-6.451
	h-40.604l-65.396,18.145l-63.521,117.427L113.23,468.463z"/>
<g id="Alien">
	<g>
		<path fill="#41A197" d="M154.296,437.38c-2.277,2.438-5.293,3.322-6.739,1.973l-19.445-18.145
			c-1.446-1.349-0.773-4.419,1.503-6.857l0,0c2.278-2.44,5.294-3.324,6.74-1.976l19.445,18.144
			C157.247,431.868,156.574,434.938,154.296,437.38L154.296,437.38z"/>
		<path fill="#41A197" d="M150.174,441.797c-2.276,2.439-5.293,3.322-6.738,1.974l-19.446-18.145
			c-1.446-1.349-0.772-4.42,1.503-6.857l0,0c2.278-2.442,5.295-3.324,6.74-1.977l19.446,18.145
			C153.125,436.286,152.452,439.355,150.174,441.797L150.174,441.797z"/>
		<path fill="#41A197" d="M146.053,446.214c-2.277,2.438-5.294,3.322-6.739,1.975l-19.445-18.146
			c-1.446-1.348-0.773-4.419,1.503-6.857l0,0c2.278-2.441,5.294-3.326,6.74-1.978l19.445,18.145
			C149.003,440.702,148.33,443.773,146.053,446.214L146.053,446.214z"/>
		<g>
			<path fill="#41A197" d="M187.271,402.04c-2.277,2.44-5.293,3.324-6.739,1.976l-19.445-18.145
				c-1.445-1.349-0.772-4.42,1.504-6.859l0,0c2.278-2.441,5.294-3.323,6.74-1.977l19.445,18.146
				C190.222,396.529,189.548,399.601,187.271,402.04L187.271,402.04z"/>
			<path fill="#41A197" d="M183.149,406.458c-2.276,2.44-5.293,3.323-6.738,1.975l-19.446-18.145
				c-1.445-1.35-0.772-4.419,1.504-6.858l0,0c2.278-2.442,5.294-3.326,6.74-1.977l19.446,18.145
				C186.1,400.947,185.427,404.018,183.149,406.458L183.149,406.458z"/>
			<path fill="#41A197" d="M179.027,410.876c-2.276,2.438-5.293,3.323-6.738,1.974l-19.446-18.145
				c-1.445-1.348-0.772-4.419,1.504-6.858l0,0c2.277-2.442,5.294-3.324,6.74-1.976l19.445,18.145
				C181.978,405.364,181.305,408.435,179.027,410.876L179.027,410.876z"/>
			<path fill="#41A197" d="M174.905,415.293c-2.277,2.439-5.293,3.323-6.739,1.974l-19.445-18.145
				c-1.446-1.348-0.772-4.419,1.504-6.858l0,0c2.278-2.44,5.294-3.325,6.74-1.976l19.446,18.145
				C177.855,409.781,177.183,412.852,174.905,415.293L174.905,415.293z"/>
			<path fill="#41A197" d="M170.783,419.711c-2.276,2.439-5.293,3.323-6.738,1.974l-19.446-18.145
				c-1.445-1.349-0.771-4.421,1.504-6.858l0,0c2.279-2.441,5.295-3.324,6.74-1.977l19.446,18.145
				C173.734,414.199,173.061,417.269,170.783,419.711L170.783,419.711z"/>
			<path fill="#41A197" d="M166.662,424.127c-2.276,2.44-5.293,3.324-6.739,1.976l-19.445-18.146
				c-1.446-1.348-0.772-4.42,1.503-6.858l0,0c2.278-2.441,5.294-3.324,6.74-1.977l19.445,18.145
				C169.612,418.616,168.939,421.687,166.662,424.127L166.662,424.127z"/>
			<path fill="#41A197" d="M162.539,428.545c-2.276,2.439-5.292,3.323-6.738,1.974l-19.445-18.144
				c-1.446-1.349-0.772-4.42,1.504-6.859l0,0c2.278-2.441,5.294-3.324,6.739-1.976l19.446,18.145
				C165.49,423.034,164.818,426.104,162.539,428.545L162.539,428.545z"/>
			<path fill="#41A197" d="M158.417,432.963c-2.275,2.438-5.292,3.323-6.738,1.974l-19.446-18.145
				c-1.445-1.348-0.772-4.421,1.503-6.858l0,0c2.279-2.441,5.295-3.324,6.741-1.977l19.445,18.146
				C161.368,427.451,160.695,430.521,158.417,432.963L158.417,432.963z"/>
			<path opacity="0.1" d="M179.053,386.109l-9.722-9.074c-1.446-1.347-4.462-0.465-6.74,1.977c-0.755,0.809-1.314,1.686-1.698,2.547
				c-0.833,0.442-1.668,1.061-2.424,1.871c-0.754,0.808-1.314,1.685-1.698,2.546c-0.833,0.443-1.668,1.062-2.424,1.871
				c-0.755,0.808-1.315,1.686-1.698,2.547c-0.833,0.442-1.669,1.06-2.424,1.87c-0.755,0.809-1.314,1.686-1.698,2.546
				c-0.834,0.443-1.668,1.062-2.425,1.872c-0.754,0.809-1.314,1.685-1.697,2.546c-0.833,0.442-1.669,1.062-2.424,1.871
				c-0.754,0.808-1.314,1.686-1.698,2.546c-0.833,0.443-1.669,1.062-2.424,1.871c-0.755,0.809-1.314,1.686-1.697,2.547
				c-0.834,0.443-1.669,1.061-2.425,1.871c-0.754,0.808-1.314,1.686-1.698,2.547c-0.833,0.44-1.668,1.061-2.424,1.87
				c-0.754,0.809-1.313,1.685-1.697,2.546c-0.833,0.442-1.668,1.062-2.424,1.872c-0.754,0.808-1.315,1.685-1.697,2.546
				c-0.833,0.441-1.67,1.062-2.424,1.871c-2.276,2.438-2.949,5.51-1.503,6.857l9.722,9.073L179.053,386.109z"/>
		</g>
	</g>
	<g>
		<path fill="#4AB5AA" d="M334.966,292.435c-5.868,36.964-34.684,91.65-29.5,101.501c-15.986,14.557-33.484,33.378-54.148,49.203
			c-62.364-9.901-167.222-119.882-157.321-182.245C103.898,198.53,162.48,156,224.844,165.901S344.867,230.07,334.966,292.435z"/>
		<path opacity="0.05" d="M305.687,384.419c-21.614,13.771-47.437,21.785-75.182,21.785c-25.269,0-48.943-6.646-69.296-18.236
			c29.699,28.854,63.71,50.979,90.109,55.171c20.664-15.825,38.162-34.646,54.148-49.203
			C304.52,392.135,304.71,388.832,305.687,384.419z"/>
		
			<ellipse transform="matrix(0.9876 0.1568 -0.1568 0.9876 54.5577 -44.2816)" fill="#323653" cx="308.006" cy="323.733" rx="14.558" ry="34.991"/>
		<path opacity="0.2" d="M313.493,289.177c-0.023-0.004-0.047-0.003-0.07-0.007c4.987,5.479,7.053,19.078,4.63,34.347
			c-3.021,19.03-11.873,33.448-19.796,32.282c1.248,1.37,2.675,2.241,4.263,2.493c7.94,1.26,16.834-13.19,19.865-32.276
			C325.414,306.931,321.434,290.437,313.493,289.177z"/>
		<circle fill="#323653" cx="301.408" cy="393.412" r="2.037"/>
		<path fill="#379189" d="M287.086,257.936c0,0,71.084-34.448,118.675-15.42c-32.202-17.26-81.561-22.903-132.537,5.951
			C273.317,260.628,287.086,257.936,287.086,257.936z"/>
		<path fill="#379189" d="M290.162,256.792c0,0,73.071-32.264,120.663-13.235c-32.202-17.259-83.449-22.696-132.746,7.268
			C278.174,262.986,290.162,256.792,290.162,256.792z"/>
		<path fill="#4AB5AA" d="M286.541,256.217c0,0,73.073-32.263,120.665-13.235c-32.202-17.259-78.651-22.667-129.628,6.187
			C277.672,261.33,286.541,256.217,286.541,256.217z"/>
		<path fill="#4AB5AA" d="M309.978,257.785c20.658-0.777,47.329,2.706,75.271,18.274c-24.697-15.343-47.037-26.633-75.523-27.668
			c-4.747-0.172-29.11,1.609-31.966,3.373C278.994,265.872,304.854,257.979,309.978,257.785z"/>
		<circle fill="#4AB5AA" cx="409.409" cy="245.314" r="9.248"/>
		<circle fill="#4AB5AA" cx="409.409" cy="245.314" r="9.248"/>
		<path fill="#3F9D94" d="M400.275,243.864c-0.442,2.786,0.414,5.475,2.114,7.462c0.6,0.232,1.231,0.408,1.892,0.513
			c5.044,0.801,9.782-2.639,10.583-7.683c0.442-2.786-0.414-5.475-2.114-7.462c-0.599-0.232-1.23-0.408-1.892-0.513
			C405.814,235.38,401.077,238.82,400.275,243.864z"/>
		<circle fill="#4AB5AA" cx="388.93" cy="277.871" r="5.874"/>
		<circle fill="#4AB5AA" cx="388.93" cy="277.871" r="5.874"/>
		<path fill="#3F9D94" d="M383.129,276.949c-0.28,1.771,0.263,3.478,1.342,4.74c0.381,0.147,0.783,0.259,1.202,0.325
			c3.204,0.509,6.213-1.677,6.722-4.88c0.281-1.768-0.263-3.477-1.343-4.739c-0.38-0.147-0.781-0.259-1.201-0.325
			C386.647,271.562,383.637,273.746,383.129,276.949z"/>
		<circle fill="#41A197" cx="116.053" cy="240.622" r="3.999"/>
		<circle fill="#41A197" cx="131.817" cy="221.024" r="3.166"/>
		<circle fill="#41A197" cx="138.639" cy="264.622" r="3.166"/>
		<circle fill="#41A197" cx="193.272" cy="286.624" r="3.166"/>
		<circle fill="#41A197" cx="233.671" cy="221.314" r="3.166"/>
		<circle fill="#41A197" cx="152.791" cy="195.673" r="3.166"/>
		<circle fill="#41A197" cx="166.408" cy="248.616" r="3.166"/>
		<circle fill="#41A197" cx="143.686" cy="321.603" r="3.166"/>
		<circle fill="#41A197" cx="174.342" cy="218.834" r="6.854"/>
		<circle fill="#41A197" cx="108.634" cy="287.358" r="6.853"/>
		<circle fill="#41A197" cx="179.589" cy="185.787" r="3.166"/>
		<circle fill="#41A197" cx="215.301" cy="188.251" r="3.166"/>
		<circle fill="#41A197" cx="253.386" cy="184.032" r="3.166"/>
	</g>
	<path fill="#4AB5AA" d="M174.227,498.516c12.373,4.171,24.84,7.336,37.316,9.553c-7.827-7.872-26.5-27.86-49.319-60.62
		c-30.11-43.227-94.841-19.56-95.619-19.273C94.952,459.414,131.417,484.081,174.227,498.516z"/>
	<path fill="#4AB5AA" d="M290.262,509.665c4.014-24.236,46.022-63.858,62.962-60.718c16.812,1.502,16.757,1.84,24.005-1.159
		c5.387-2.229,16.901-9.455-0.595-23.334c1.32-7.614,59.317-6.998,56.818-10.997c-31.492-7.998-81.979,4.615-81.979,4.615
		L219.292,509.32C243.192,512.812,267.052,512.818,290.262,509.665z"/>
	<path opacity="0.05" d="M162.224,447.448c-30.11-43.227-94.841-19.56-95.619-19.273c9.668,10.655,20.283,20.543,31.77,29.524
		c15.205-4.039,44.757-7.883,77.864,9.03C171.801,460.882,167.108,454.46,162.224,447.448z"/>
	<g>
		<path opacity="0.05" d="M380.222,446.603c2.23-0.923,4.953-4.347,6.229-8.27c-4.242,4.325-13.417,8.138-30.498,10.847
			C370.378,450.345,373.386,449.431,380.222,446.603z"/>
		<path opacity="0.05" d="M261.68,511.912c9.607-0.216,19.149-0.966,28.582-2.247c3.612-21.815,38.006-56.09,57.195-60.431
			C311.542,452.91,272.785,498.064,261.68,511.912z"/>
		<path opacity="0.05" d="M397.462,415.475c-2.303,0.411-3.498,1.774-4.146,3.527c12.251-1.666,28.418-2.425,35.979-3.701
			C421.151,413.65,403.717,414.357,397.462,415.475z"/>
	</g>
</g>
</svg>
