<?xml version="1.0" encoding="utf-8"?>
<!-- Generator: Adobe Illustrator 16.0.0, SVG Export Plug-In . SVG Version: 6.00 Build 0)  -->
<!DOCTYPE svg PUBLIC "-//W3C//DTD SVG 1.1//EN" "http://www.w3.org/Graphics/SVG/1.1/DTD/svg11.dtd">
<svg version="1.1" id="Astronout" xmlns="http://www.w3.org/2000/svg" xmlns:xlink="http://www.w3.org/1999/xlink" x="0px" y="0px"
	 width="512px" height="512px" viewBox="0 0 512 512" enable-background="new 0 0 512 512" xml:space="preserve">
<circle id="Background" fill="#323653" cx="256" cy="256" r="255.931"/>
<path id="Shadow" opacity="0.1" d="M498.516,337.772c2.467-7.317,4.563-14.67,6.341-22.037L335.579,153.337l-31.818,42.583
	l-70.384-80.86l-22.194,134.044L109.245,359.521l137.557,152.292C357.068,515.821,461.461,447.666,498.516,337.772z"/>
<g id="Stars">
	<g>
		<path fill="#F2F2F2" d="M347.455,142.4c1.306,4.885-1.34,10.041-5.899,11.52c-4.565,1.474-9.319-1.295-10.624-6.183
			c-1.303-4.888,1.338-10.047,5.895-11.516C341.391,134.747,346.149,137.516,347.455,142.4z"/>
		<polygon fill="#F2F2F2" points="333.649,124.305 337.429,145.636 344.737,165.831 340.955,144.499 		"/>
		<polygon fill="#F2F2F2" points="319.807,151.329 339.693,146.96 358.572,138.809 338.686,143.183 		"/>
	</g>
	<g>
		<path fill="#F2F2F2" d="M271.85,459.405c0.63,2.354-0.645,4.832-2.838,5.543c-2.196,0.712-4.486-0.619-5.115-2.974
			c-0.629-2.354,0.645-4.836,2.839-5.545C268.932,455.718,271.223,457.052,271.85,459.405z"/>
		<polygon fill="#F2F2F2" points="265.202,450.697 267.024,460.965 270.541,470.684 268.723,460.416 		"/>
		<polygon fill="#F2F2F2" points="258.542,463.704 268.118,461.598 277.203,457.678 267.63,459.78 		"/>
	</g>
	<g>
		<path fill="#F2F2F2" d="M452.13,376.514c0.631,2.354-0.644,4.832-2.837,5.543c-2.196,0.712-4.486-0.619-5.115-2.974
			c-0.629-2.354,0.645-4.836,2.839-5.545C449.213,372.826,451.504,374.16,452.13,376.514z"/>
		<polygon fill="#F2F2F2" points="445.483,367.806 447.306,378.073 450.822,387.792 449.004,377.524 		"/>
		<polygon fill="#F2F2F2" points="438.823,380.813 448.398,378.706 457.484,374.786 447.911,376.889 		"/>
	</g>
	<g id="Star_11_">
		<path fill="#F2F2F2" d="M67.787,158.06c0.936,3.509-0.96,7.212-4.235,8.271s-6.692-0.929-7.628-4.437
			c-0.938-3.511,0.96-7.215,4.234-8.271C63.434,152.563,66.849,154.55,67.787,158.06z"/>
		<polygon fill="#F2F2F2" points="57.875,145.068 60.588,160.387 65.833,174.885 63.121,159.567 		"/>
		<polygon fill="#F2F2F2" points="47.935,164.47 62.216,161.333 75.772,155.48 61.491,158.62 		"/>
	</g>
	<g id="Star_1_">
		<path fill="#F2F2F2" d="M156.993,430.957c0.936,3.508-0.96,7.212-4.235,8.271c-3.275,1.059-6.692-0.93-7.627-4.437
			c-0.938-3.512,0.96-7.216,4.233-8.271C152.641,425.461,156.056,427.447,156.993,430.957z"/>
		<polygon fill="#F2F2F2" points="147.082,417.966 149.794,433.284 155.04,447.782 152.328,432.464 		"/>
		<polygon fill="#F2F2F2" points="137.141,437.367 151.422,434.23 164.979,428.378 150.698,431.518 		"/>
	</g>
</g>
<g id="Astronout_3_">
	<path fill="#E3E3E2" d="M366.729,459.932c-1.188-7.063,5.602-13.8,12.79-20.932c7.422-7.364,15.095-14.979,14.065-23.958
		c-0.728-6.342-5.733-12.298-15.305-18.207c-14.14-8.73-21.53-17.585-22.596-27.07c-1.705-15.186,13.37-30.002,26.67-43.074
		c11.317-11.121,21.09-20.727,19.81-29.688c-0.609-4.269-3.56-7.769-9.018-10.701c-20.324-10.922-42.638,17.256-66.259,47.089
		c-26.978,34.073-54.873,69.307-82.474,55.024c-21.845-11.305-34.211-29.041-36.754-52.715c-1.919-17.859,2.758-32.6,2.806-32.746
		l-4.754-1.544c-0.207,0.634-5.028,15.756-3.042,34.641c1.847,17.557,10.189,41.663,39.447,56.805
		c31.258,16.175,61.771-22.362,88.691-56.361c22.283-28.146,43.329-54.729,59.974-45.79c3.96,2.129,6.065,4.42,6.435,7.005
		c0.923,6.461-8.446,15.669-18.365,25.417c-14.113,13.87-30.11,29.593-28.133,47.196c1.247,11.112,9.404,21.176,24.937,30.766
		c8.068,4.981,12.431,9.868,12.965,14.523c0.754,6.57-5.743,13.016-12.621,19.84c-7.775,7.715-15.815,15.693-14.197,25.31
		c1.132,6.729,6.814,13.012,17.643,19.42c1.7-0.937,3.391-1.894,5.069-2.868C373.646,471.285,367.659,465.452,366.729,459.932z"/>
	<g id="Astronout_2_">
		<g id="Astronout_1_">
			
				<rect x="190.66" y="195.809" transform="matrix(0.7819 0.6234 -0.6234 0.7819 217.6071 -94.5511)" fill="#82713A" width="106.539" height="135.811"/>
			<g>
				<circle fill="#E6E6E6" cx="303.268" cy="185.881" r="45.862"/>
				<circle fill="#2697C7" cx="303.267" cy="185.881" r="39.362"/>
				<circle fill="#6CB4E3" cx="303.268" cy="185.881" r="35.181"/>
				<path fill="#FFFFFF" d="M321.377,160.67L321.377,160.67L321.377,160.67c-12.087-9.637-29.437-8.178-39.78,2.973
					c-0.162,0.154-0.317,0.315-0.461,0.495l0,0l0,0l0,0c-1.692,2.123-1.345,5.216,0.779,6.908c2.123,1.693,5.215,1.344,6.909-0.779
					l0.027,0.022c6.879-7.365,18.376-8.315,26.391-1.925l0.006-0.006c2.122,1.692,5.215,1.344,6.909-0.78
					C323.849,165.456,323.499,162.362,321.377,160.67z"/>
			</g>
			<path fill="#E6E6E6" d="M249.795,322.563c-2.884,3.619-9.073,3.482-13.821-0.304l-48.986-39.058
				c-4.749-3.785-6.26-9.788-3.375-13.406l53.971-67.691c2.885-3.618,9.073-3.482,13.822,0.305l48.986,39.057
				c4.748,3.786,6.26,9.789,3.375,13.407L249.795,322.563z"/>
			
				<rect x="249.132" y="215.721" transform="matrix(0.7819 0.6234 -0.6234 0.7819 201.8766 -118.2655)" fill="#E6E6E6" width="41.657" height="27.326"/>
			<g>
				<path fill="#E6E6E6" d="M394.967,251.489l-2.468-7.157c-1.979-5.741-7.535-9.034-12.407-7.354l-11.401,3.932l-0.822-4.167
					c-0.446-2.258-2.639-3.729-4.898-3.283c-2.258,0.447-3.728,2.64-3.282,4.898l0.92,4.657c0.043,0.216,0.115,0.417,0.188,0.617
					l-40.27,13.886l-16.659-13.284c-4.75-3.786-11.669-3.006-15.455,1.743l-2.821,3.539c-3.786,4.749-3.006,11.668,1.742,15.454
					l25.535,20.358c0.207,0.165,0.422,0.31,0.637,0.458c2.567,2.371,5.984,3.362,9.125,2.278l67.101-23.138
					C394.602,263.247,396.947,257.231,394.967,251.489z"/>
				<path fill="#CBAE5E" d="M324.876,256.018l-4.351,1.501l-2.104-1.68l-5.227,29.726c0.104,0.073,0.205,0.151,0.31,0.223
					c2.567,2.371,5.984,3.362,9.125,2.278l4.526-1.562L324.876,256.018z"/>
			</g>
			<g>
				<path fill="#E6E6E6" d="M220.568,112.439l7.527,0.812c6.038,0.652,10.485,5.333,9.932,10.458l-1.293,11.991l4.245-0.126
					c2.301-0.068,4.223,1.742,4.291,4.044c0.068,2.3-1.743,4.222-4.043,4.29l-4.745,0.141c-0.22,0.006-0.433-0.019-0.644-0.046
					l-4.568,42.351l16.66,13.283c4.749,3.787,5.529,10.705,1.743,15.455l-2.822,3.539c-3.786,4.748-10.705,5.529-15.454,1.743
					l-25.535-20.359c-0.207-0.165-0.396-0.343-0.588-0.519c-2.884-1.975-4.61-5.085-4.253-8.388l7.612-70.569
					C209.187,115.415,214.53,111.788,220.568,112.439z"/>
				<path fill="#CBAE5E" d="M231.764,181.779l-0.494,4.575l2.106,1.679l-27.815,11.715c-0.095-0.084-0.193-0.167-0.286-0.252
					c-2.884-1.975-4.61-5.085-4.253-8.388l0.513-4.761L231.764,181.779z"/>
			</g>
			
				<rect x="242.265" y="213.38" transform="matrix(0.7818 0.6236 -0.6236 0.7818 217.0005 -94.3264)" fill="#808080" width="2" height="98.972"/>
			<g>
				<path fill="#E6E6E6" d="M177.11,404.59c-7.035-5.458-10.298-13.024-7.291-16.903l56.951-73.414
					c3.009-3.879,11.149-2.599,18.187,2.857l5.242,4.068c7.036,5.456,10.299,13.023,7.292,16.903l-56.952,73.414
					c-3.007,3.88-11.149,2.599-18.185-2.858L177.11,404.59z"/>
				<path fill="#C2C3C4" d="M169.819,387.687l56.951-73.414c3.009-3.879,11.149-2.599,18.187,2.857l5.242,4.068
					c4.338,3.363,7.234,7.528,8.119,11.137c0.342-4.08-2.84-9.666-8.369-13.953l-5.243-4.067
					c-7.035-5.458-15.177-6.736-18.186-2.858l-56.95,73.415c-1.154,1.487-1.377,3.519-0.827,5.765
					C168.835,389.524,169.175,388.518,169.819,387.687z"/>
			</g>
			<g>
				<g>
					<path fill="#E6E6E6" d="M126.302,351.171c-7.052-5.436-10.338-12.993-7.342-16.881l56.726-73.588
						c2.997-3.888,11.142-2.633,18.194,2.804l5.255,4.052c7.051,5.434,10.338,12.992,7.341,16.88l-56.727,73.589
						c-2.995,3.888-11.141,2.631-18.192-2.805L126.302,351.171z"/>
				</g>
				<path fill="#C2C3C4" d="M206.979,284.855c2.997-3.889-0.289-11.446-7.341-16.88l-5.254-4.053
					c-5.22-4.023-11.032-5.749-14.919-4.802c2.946,0.713,6.185,2.273,9.222,4.616l5.255,4.051
					c7.052,5.436,10.338,12.993,7.34,16.882l-56.725,73.588c-0.779,1.009-1.912,1.665-3.274,1.997
					c3.89,0.943,7.265,0.401,8.97-1.812L206.979,284.855z"/>
			</g>
			<path fill="#F27894" d="M211.182,249.104c-1.49,1.869-4.213,2.176-6.083,0.685l0,0c-1.869-1.49-2.176-4.213-0.686-6.082
				l38.118-47.808c1.49-1.869,4.212-2.175,6.082-0.685l0,0c1.869,1.49,2.176,4.213,0.687,6.082L211.182,249.104z"/>
			<path fill="#F27894" d="M270.781,296.622c-1.49,1.868-4.214,2.176-6.083,0.685l0,0c-1.869-1.489-2.176-4.213-0.686-6.082
				l38.117-47.807c1.49-1.869,4.213-2.176,6.081-0.687l0,0c1.87,1.491,2.178,4.214,0.688,6.083L270.781,296.622z"/>
			<path fill="#D1D1D2" d="M141.696,371.329c-3.786,4.75-10.705,5.529-15.455,1.743l-16.997-13.552
				c-4.749-3.786-5.529-10.705-1.743-15.454l2.027-2.544c3.786-4.747,10.706-5.528,15.455-1.742l16.997,13.552
				c4.75,3.786,5.529,10.706,1.743,15.454L141.696,371.329z"/>
			<path fill="#D1D1D2" d="M191.68,423.963c-3.786,4.749-10.705,5.529-15.454,1.743l-16.997-13.552
				c-4.749-3.786-5.529-10.705-1.743-15.454l2.028-2.544c3.786-4.748,10.706-5.529,15.454-1.743l16.997,13.552
				c4.749,3.786,5.529,10.706,1.743,15.455L191.68,423.963z"/>
			
				<rect x="163.713" y="279.365" transform="matrix(0.7819 0.6234 -0.6234 0.7819 215.3996 -51.4384)" fill="#CBAE5E" width="35" height="5.508"/>
			
				<rect x="212.748" y="335.207" transform="matrix(0.7819 0.6234 -0.6234 0.7819 261.411 -71.2593)" fill="#CBAE5E" width="39.593" height="5.509"/>
			
				<rect x="194.882" y="302.912" transform="matrix(0.7819 0.6234 -0.6234 0.7819 237.1499 -64.2077)" fill="#F27894" width="30.915" height="7.835"/>
			
				<rect x="235.876" y="217.901" transform="matrix(0.7818 0.6235 -0.6235 0.7818 189.9405 -100.9935)" fill="#FBB03B" width="6.798" height="5.998"/>
			
				<rect x="242.485" y="223.172" transform="matrix(0.7818 0.6235 -0.6235 0.7818 194.6577 -103.9632)" fill="#22B573" width="6.799" height="5.997"/>
			
				<rect x="249.477" y="228.746" transform="matrix(0.7818 0.6236 -0.6236 0.7818 199.6889 -107.1111)" fill="#2697C7" width="6.799" height="5.998"/>
		</g>
	</g>
</g>
</svg>
