<?xml version="1.0" encoding="utf-8"?>
<!-- Generator: Adobe Illustrator 25.0.0, SVG Export Plug-In . SVG Version: 6.00 Build 0)  -->
<svg version="1.1" id="Capa_1" xmlns="http://www.w3.org/2000/svg" xmlns:xlink="http://www.w3.org/1999/xlink" x="0px" y="0px"
	 viewBox="0 0 378.8 378.8" style="enable-background:new 0 0 378.8 378.8;" xml:space="preserve">
<style type="text/css">
	.st0{fill:none;stroke:#FFFFFF;stroke-width:8;stroke-linecap:round;stroke-linejoin:round;stroke-miterlimit:10;}
</style>
<g>
	<circle class="st0" cx="97.9" cy="119.9" r="57.8"/>
	<path class="st0" d="M138.8,107.9c0.5,1.6,0.9,3.2,1.3,4.9"/>
	<path class="st0" d="M98.2,78.2c12.9,0,25.4,6.3,33.4,16.3"/>
	<path class="st0" d="M124.8,290.5l4.3,4.3c29.3,29.3,76.9,29.3,106.2,0l10.1-10.1l28.4-28.4"/>
	<line class="st0" x1="232.2" y1="214.5" x2="153.5" y2="135.8"/>
	<path class="st0" d="M131.8,187.2v48.4h25.4c15.2,0,27.5,12.3,27.5,27.5l0,0c0,15.2-12.3,27.5-27.5,27.5h-25.4h-15
		c-22.1,0-40-17.9-40-40v-15v-59.5"/>
	<path class="st0" d="M253.2,199.8c1.3,3.5,3.3,6.7,6.1,9.5c10.2,10.2,26.6,10.2,36.8,0c2.8-2.8,4.8-6.1,6.1-9.6"/>
	<path class="st0" d="M216.8,179.8c3,2.2,6.5,3.8,10.3,4.5c14.1,2.8,27.8-6.4,30.5-20.5c0.8-3.9,0.6-7.8-0.3-11.4"/>
	<line class="st0" x1="141.9" y1="160.1" x2="213.2" y2="231.4"/>
	<line class="st0" x1="93.6" y1="217.2" x2="111.6" y2="217.2"/>
	<path class="st0" d="M77,254.5c9.5-5.8,22-4.6,30.2,3.6c8.7,8.7,9.5,22.2,2.5,31.8"/>
	<path class="st0" d="M74.8,240.1l-63.7-63.7c-9.4-9.4-9.4-24.7,0-34.1l29.4-29.4"/>
	<line class="st0" x1="16.1" y1="142" x2="76" y2="201.8"/>
	<path class="st0" d="M101.3,142.5c16.9,5.8,38.2,0.5,53.6-14.9c0.1-0.1,0.3-0.3,0.4-0.4l0,0"/>
	<path class="st0" d="M80.1,125c-9.9-17.7-5.5-42.7,12-60.2c0.9-0.9,1.9-1.9,2.9-2.7"/>
	<circle class="st0" cx="84.9" cy="140.8" r="16.5"/>
	<line class="st0" x1="131.8" y1="235.5" x2="108.2" y2="259.1"/>
	<polyline class="st0" points="214.7,174.8 193.4,153.5 192.9,153 	"/>
	<line class="st0" x1="162.1" y1="236.5" x2="162.1" y2="288.5"/>
	<path class="st0" d="M214.1,191.5c-1.3,0.4-2.5,0.7-3.9,1"/>
	<path class="st0" d="M172.2,154.5h21.1v-1.1v-24.3c0-15.2,12.3-27.5,27.5-27.5c7.6,0,14.5,3.1,19.4,8c5,5,8.1,11.9,8.1,19.4v21.8"
		/>
	<line class="st0" x1="194.3" y1="124.2" x2="246.3" y2="124.2"/>
	<path class="st0" d="M243.5,286.8l34.2-34.2l19.7,19.7l0,0l25.4,25.4l52-52l-12.3-12.3c-7.3-7.3-19-7.3-26.3,0l0,0l-19.7-19.7
		L306,203.1c-15.6-15.6-40.9-15.6-56.6,0l-10.6,10.6l-34.2,34.2"/>
	<line class="st0" x1="277.7" y1="252.6" x2="277.7" y2="220"/>
	<line class="st0" x1="312.5" y1="287.6" x2="364.3" y2="235.9"/>
	<line class="st0" x1="287.4" y1="262.5" x2="324.8" y2="225.1"/>
	<path class="st0" d="M213.5,195.8l1.4-10.4c3-21.9,23.1-37.2,45-34.2l14.8,2l27.6,3.8c1.4-10.2,10.8-17.3,21-15.9l17.2,2.4
		l-10,72.9l-13.3-1.8"/>
	<line class="st0" x1="247.7" y1="181.7" x2="258.7" y2="196.2"/>
	<line class="st0" x1="326.2" y1="141.9" x2="316.4" y2="213.5"/>
	<line class="st0" x1="288.2" y1="157.2" x2="283.5" y2="191.8"/>
	<line class="st0" x1="26.7" y1="187.9" x2="43.5" y2="171.1"/>
	<line class="st0" x1="38.7" y1="199.8" x2="55.4" y2="183.1"/>
</g>
</svg>
