<?xml version="1.0" encoding="utf-8"?>
<!-- Generator: Adobe Illustrator 25.0.0, SVG Export Plug-In . SVG Version: 6.00 Build 0)  -->
<svg version="1.1" id="Capa_1" xmlns="http://www.w3.org/2000/svg" xmlns:xlink="http://www.w3.org/1999/xlink" x="0px" y="0px"
	 viewBox="0 0 265.4 265.4" style="enable-background:new 0 0 265.4 265.4;" xml:space="preserve">
<style type="text/css">
	.st0{fill:none;stroke:#FFFFFF;stroke-width:8;stroke-linejoin:round;stroke-miterlimit:10;}
	.st1{fill:none;stroke:#FFFFFF;stroke-width:8;stroke-linecap:round;stroke-linejoin:round;stroke-miterlimit:10;}
</style>
<g>
	<path class="st0" d="M168.6,140.3c-43.8,43.8-63.3,43.7-75.2,31.8c-12-12-12.1-31.4,31.8-75.2s114.6-71.2,114.6-71.2
		S212.4,96.5,168.6,140.3z"/>
	<path class="st0" d="M53.8,164.3c5.5-2.3,12.6-8.6,22-21.4c17.6-23.7,25.6-59,25.6-59s-31.5,17.8-49.1,41.6
		c-9.5,12.7-13.5,21.3-14.1,27.3L53.8,164.3z"/>
	<path class="st0" d="M101.1,211.6c2.3-5.5,8.6-12.6,21.4-22c23.7-17.6,59-25.6,59-25.6s-17.8,31.5-41.5,49.1
		c-12.7,9.5-21.3,13.5-27.3,14.1L101.1,211.6z"/>
	<line class="st0" x1="86.8" y1="152.4" x2="69.3" y2="148.5"/>
	<line class="st0" x1="105.6" y1="118.2" x2="89.5" y2="114.5"/>
	<line class="st0" x1="116.9" y1="196.1" x2="113" y2="178.7"/>
	<line class="st0" x1="150.9" y1="175.9" x2="147.2" y2="159.9"/>
	<circle class="st0" cx="165.6" cy="100.3" r="12.9"/>
	<polyline class="st0" points="106.8,178.8 94,191.6 73.8,171.4 86.6,158.6 	"/>
	<path class="st0" d="M175,58.5c7.9,13.1,18.9,24,31.9,31.9"/>
	<path class="st0" d="M25.7,239.7v-26.2c0-14.5,11.7-26.2,26.2-26.2l0,0c14.5,0,26.2,11.7,26.2,26.2l0,0c0,14.5-11.7,26.2-26.2,26.2
		H25.7z"/>
	<path class="st0" d="M47.5,217.9v-13.4c0-7.4,6-13.4,13.4-13.4l0,0c7.4,0,13.4,6,13.4,13.4l0,0c0,7.4-6,13.4-13.4,13.4H47.5z"/>
	<path class="st1" d="M214.3,58c-4,7.6-8.5,15.9-10.7,19"/>
	<path class="st1" d="M221.7,43.7c0,0-1.2,2.4-3.1,6.1"/>
</g>
</svg>
