<?xml version="1.0" encoding="utf-8"?>
<!-- Generator: Adobe Illustrator 16.0.0, SVG Export Plug-In . SVG Version: 6.00 Build 0)  -->
<!DOCTYPE svg PUBLIC "-//W3C//DTD SVG 1.1//EN" "http://www.w3.org/Graphics/SVG/1.1/DTD/svg11.dtd">
<svg version="1.1" id="Meteor" xmlns="http://www.w3.org/2000/svg" xmlns:xlink="http://www.w3.org/1999/xlink" x="0px" y="0px"
	 width="512px" height="512px" viewBox="0 0 512 512" enable-background="new 0 0 512 512" xml:space="preserve">
<circle id="Background" fill="#323653" cx="256" cy="256" r="255.931"/>
<g id="Stars">
	<g>
		<path fill="#F2F2F2" d="M271.583,152.813c1.306,4.886-1.34,10.041-5.899,11.52c-4.564,1.474-9.319-1.295-10.624-6.183
			c-1.304-4.888,1.337-10.047,5.894-11.516C265.519,145.159,270.277,147.928,271.583,152.813z"/>
		<polygon fill="#F2F2F2" points="257.777,134.717 261.557,156.049 268.865,176.243 265.084,154.911 		"/>
		<polygon fill="#F2F2F2" points="243.935,161.741 263.821,157.373 282.701,149.221 262.813,153.595 		"/>
	</g>
	<g>
		<path fill="#F2F2F2" d="M347.455,47.854c1.306,4.885-1.34,10.04-5.899,11.519c-4.565,1.474-9.319-1.295-10.624-6.182
			c-1.303-4.888,1.338-10.048,5.895-11.517C341.391,40.2,346.149,42.969,347.455,47.854z"/>
		<polygon fill="#F2F2F2" points="333.649,29.759 337.429,51.09 344.737,71.284 340.955,49.953 		"/>
		<polygon fill="#F2F2F2" points="319.807,56.783 339.693,52.414 358.572,44.263 338.686,48.636 		"/>
	</g>
	<g>
		<path fill="#F2F2F2" d="M278.386,325.152c1.005,3.768-1.035,7.743-4.552,8.88c-3.521,1.137-7.188-0.996-8.191-4.765
			c-1.007-3.771,1.029-7.75,4.544-8.881C273.707,319.248,277.38,321.383,278.386,325.152z"/>
		<polygon fill="#F2F2F2" points="267.736,311.197 270.653,327.647 276.29,343.223 273.371,326.77 		"/>
		<polygon fill="#F2F2F2" points="257.062,332.036 272.398,328.666 286.959,322.381 271.622,325.753 		"/>
	</g>
	<g>
		<path fill="#F2F2F2" d="M72.297,354.9c1.651,6.172-1.692,12.691-7.456,14.553c-5.763,1.861-11.776-1.634-13.423-7.81
			c-1.647-6.177,1.69-12.693,7.449-14.553C64.636,345.228,70.646,348.723,72.297,354.9z"/>
		<polygon fill="#F2F2F2" points="54.854,332.036 59.628,358.99 68.862,384.504 64.084,357.552 		"/>
		<polygon fill="#F2F2F2" points="37.364,366.181 62.494,360.659 86.346,350.361 61.218,355.885 		"/>
	</g>
	<g>
		<path fill="#F2F2F2" d="M467.927,258.148c1.651,6.172-1.691,12.691-7.455,14.553s-11.776-1.634-13.424-7.811
			c-1.647-6.176,1.689-12.692,7.449-14.552C460.265,248.476,466.275,251.971,467.927,258.148z"/>
		<polygon fill="#F2F2F2" points="450.482,235.284 455.258,262.238 464.492,287.752 459.714,260.8 		"/>
		<polygon fill="#F2F2F2" points="432.993,269.429 458.123,263.907 481.976,253.609 456.848,259.133 		"/>
	</g>
	<g>
		<path fill="#F2F2F2" d="M271.85,459.405c0.63,2.354-0.645,4.832-2.838,5.543c-2.196,0.712-4.486-0.619-5.115-2.974
			c-0.629-2.354,0.645-4.836,2.839-5.545C268.932,455.718,271.223,457.052,271.85,459.405z"/>
		<polygon fill="#F2F2F2" points="265.202,450.697 267.024,460.965 270.541,470.684 268.723,460.416 		"/>
		<polygon fill="#F2F2F2" points="258.542,463.704 268.118,461.598 277.203,457.678 267.63,459.78 		"/>
	</g>
	<g>
		<path fill="#F2F2F2" d="M452.13,376.514c0.631,2.354-0.644,4.832-2.837,5.543c-2.196,0.712-4.486-0.619-5.115-2.974
			c-0.629-2.354,0.645-4.836,2.839-5.545C449.213,372.826,451.504,374.16,452.13,376.514z"/>
		<polygon fill="#F2F2F2" points="445.483,367.806 447.306,378.073 450.822,387.792 449.004,377.524 		"/>
		<polygon fill="#F2F2F2" points="438.823,380.813 448.398,378.706 457.484,374.786 447.911,376.889 		"/>
	</g>
	<g id="Star_11_">
		<path fill="#F2F2F2" d="M67.787,158.06c0.936,3.509-0.96,7.212-4.235,8.271s-6.692-0.929-7.628-4.437
			c-0.938-3.511,0.96-7.215,4.234-8.271C63.434,152.563,66.849,154.55,67.787,158.06z"/>
		<polygon fill="#F2F2F2" points="57.875,145.068 60.588,160.387 65.833,174.885 63.121,159.567 		"/>
		<polygon fill="#F2F2F2" points="47.935,164.47 62.216,161.333 75.772,155.48 61.491,158.62 		"/>
	</g>
	<g>
		<path fill="#F2F2F2" d="M261.103,247.781c1.006,3.768-1.034,7.743-4.551,8.884c-3.521,1.136-7.187-0.999-8.192-4.769
			c-1.006-3.77,1.03-7.749,4.546-8.882C256.425,241.878,260.095,244.013,261.103,247.781z"/>
		<polygon fill="#F2F2F2" points="250.455,233.825 253.368,250.276 259.006,265.851 256.089,249.399 		"/>
		<polygon fill="#F2F2F2" points="239.778,254.667 255.115,251.297 269.676,245.011 254.338,248.384 		"/>
	</g>
</g>
<path id="Shadow" opacity="0.1" d="M374.821,138.628L149.455,374.69L285.08,510.315c95.441-10.979,180.707-75.479,213.436-172.543
	c7.002-20.765,11.182-41.801,12.759-62.691L374.821,138.628z"/>
<g id="Meteor_1_">
	<g>
		<path fill="#F26A36" d="M133.076,338.699c0,0,6.437-66.187,38.59-88.953c-6.693,9.89-8.701,15.967-1.676,16.075
			c7.024,0.108,9.071-38.387,16.438-39.946c-2.09,17.619,10.2,22.723,13.977,16.286c3.777-6.44,48.615-76.342,72.002-79.188
			c-17.523,13.933-15.997,45.064-6,41.5c9.996-3.565,33.663-27.639,33.611-50.247c4.649,7.232,3.268,28.15-0.2,33.876
			c-0.242,8.683,56.161-51.976,77.827-52.297c-17.446,11.908-67.631,65.8-61.421,70.681c4.949-9.931,16.39-16.382,24.589-13.021
			c-5.511,1.478-12.49,16.614-10.046,23.012c8.512,25.027-24.681,10.732-20.33,22.177c8.316,4.691,21.309,16.601,39.945-38.791
			c-6.802,28.791-27.255,61.689-52.798,66.771c10.48,7.233,33.039,1.288,42.577-11.766c-10.713,30.83-59.463,28.729-60.986,46.54
			c-1.465,17.671,14.955,16.842,25.215,6.278c-11.085,18.548-58.339,34.775-54.165,42.235c-6.6,9.133-40.873,29.681-31.358,25.777
			c-9.143,8.677-45.446,21.419-69.499-1.085C138.928,361.951,133.076,338.699,133.076,338.699z"/>
		<path fill="#FCB53B" d="M160.343,307.876c0,0,30.9-19.461,31.224-40.533c6.022,3.143,27.459-9.879,38.895-42.428
			c-10.321,40.716-0.485,38.073,30.43,5.647c-21.528,53.288,20.353-20.523,37.843-22.298
			c-18.884,23.651-60.904,83.085-26.253,67.953c-8.328,9.732-63.227,45.81-21.765,43.569c-3.088,7.856-19.867,48.313-42.267,37.854
			C186.051,347.182,160.343,307.876,160.343,307.876z"/>
		<path fill="#F05134" d="M193.878,306.266c0,0,5.199-15.419,15.207-20.491c-3.782,5.438-2.648,11.116,11.542-5.448
			c4.695-5.48,13.981-3.877,16.319-4.665c-12.019,10.981-27.171,27.962-18.225,26.071c-1.324,4.131-3.554,9.805,2.575,8.3
			c-5.296,13.546-20.883,18.892-20.883,18.892L193.878,306.266z"/>
		<path fill="#5D4E1C" d="M214.557,371.69c-17.247,18.813-46.478,20.08-65.292,2.833c-18.812-17.243-20.081-46.478-2.835-65.29
			c17.247-18.811,46.479-20.081,65.292-2.835C230.535,323.646,231.804,352.877,214.557,371.69z"/>
		<circle fill="#9C813C" cx="178.021" cy="340.569" r="46.211"/>
		<g>
			<circle fill="#69381C" cx="173.644" cy="325.729" r="13.7"/>
			<circle fill="#9A5634" cx="171.816" cy="326.427" r="13.7"/>
		</g>
		<g>
			<circle fill="#69381C" cx="191.337" cy="372.446" r="8.742"/>
			<circle fill="#9A5634" cx="190.172" cy="372.892" r="8.743"/>
		</g>
		<g>
			<circle fill="#69381C" cx="210.486" cy="348.504" r="8.742"/>
			<circle fill="#9A5634" cx="209.32" cy="348.95" r="8.742"/>
		</g>
		<g>
			<path fill="#69381C" d="M145.569,347.526c-2.184,2.383-5.886,2.546-8.269,0.358c-2.382-2.184-2.543-5.886-0.359-8.268
				c2.185-2.384,5.887-2.543,8.269-0.358C147.593,341.439,147.754,345.143,145.569,347.526z"/>
			<path fill="#9A5634" d="M144.79,347.823c-2.185,2.384-5.886,2.545-8.269,0.361c-2.383-2.186-2.544-5.887-0.359-8.269
				c2.184-2.385,5.885-2.544,8.269-0.358C146.813,341.738,146.974,345.442,144.79,347.823z"/>
		</g>
		<path opacity="0.2" d="M210.51,307.721l-62.397,68.061c18.837,16.02,47.121,14.396,63.97-3.984
			C228.933,353.419,228.101,325.1,210.51,307.721z"/>
	</g>
	<path opacity="0.1" d="M250.225,349.921c-4.174-7.46,43.08-23.688,54.165-42.235c-10.26,10.563-26.68,11.393-25.215-6.278
		c1.523-17.811,50.273-15.71,60.986-46.54c-9.538,13.054-32.097,19-42.577,11.766c25.543-5.081,45.996-37.979,52.798-66.771
		c-18.637,55.392-31.629,43.482-39.945,38.791c-4.351-11.445,28.842,2.85,20.33-22.177c-2.444-6.398,4.535-21.534,10.046-23.012
		c-8.199-3.36-19.64,3.091-24.589,13.021c-6.21-4.881,43.975-58.773,61.421-70.681c-4.378,0.064-10.174,2.594-16.634,6.516
		L149.455,374.69c24.054,22.392,60.279,9.675,69.411,1.008C209.352,379.602,243.625,359.054,250.225,349.921z"/>
</g>
</svg>
