<?xml version="1.0" encoding="utf-8"?>
<!-- Generator: Adobe Illustrator 25.0.0, SVG Export Plug-In . SVG Version: 6.00 Build 0)  -->
<svg version="1.1" id="Capa_1" xmlns="http://www.w3.org/2000/svg" xmlns:xlink="http://www.w3.org/1999/xlink" x="0px" y="0px"
	 viewBox="0 0 420.3 420.3" style="enable-background:new 0 0 420.3 420.3;" xml:space="preserve">
<style type="text/css">
	.st0{fill:none;stroke:#FFFFFF;stroke-width:8;stroke-linejoin:round;stroke-miterlimit:10;}
	.st1{fill:none;stroke:#FFFFFF;stroke-width:8;stroke-linecap:round;stroke-linejoin:round;stroke-miterlimit:10;}
</style>
<g>
	<path class="st0" d="M255.5,43.4L255.5,43.4c-29,12-61.7,12-90.7,0l0,0c-4-1.7-8.3-2.4-12.6-2.1c-28.6,1.7-55.6,14-75.8,34.5l0,0
		l0,0c87.4,25,180.1,25,267.5,0l0,0l0,0c-20.2-20.5-47.2-32.8-75.8-34.5C263.8,41,259.5,41.7,255.5,43.4z"/>
	<path class="st0" d="M156.6,41.3c8-21.8,29-37.3,53.5-37.3s45.5,15.5,53.5,37.3"/>
	<path class="st1" d="M227.4,20.1c6.3,2.6,12,7,15.2,13.2"/>
	<line class="st0" x1="78.8" y1="73.4" x2="340.4" y2="73.4"/>
	<path class="st0" d="M162.6,92.1c5.5,9.5,24.7,16.5,47.5,16.5s42.1-7,47.5-16.5"/>
	<line class="st1" x1="347.1" y1="416.3" x2="221.9" y2="137.2"/>
	<line class="st1" x1="198.5" y1="137.2" x2="73.2" y2="416.3"/>
	<polyline class="st0" points="226.9,107.3 226.9,123.1 193.5,123.1 193.5,107.3 	"/>
	<path class="st1" d="M261.8,311.5c1.5-6.2-2.6-12.4-8.9-13.5c-38.2-6.3-50-19.5-53.3-25.1c-1.1-1.8-2.6-3.4-4.4-4.5l0,0
		c-4.7-2.8-10.7-2.4-14.8,1.2c-2.6,2.3-6.1,5.1-10.4,8.4c18.2,10.6,16.4,23.1,18.5,41.9c0,0,15.9,16.9,52.8,26.2
		C254.3,349.5,260,319.5,261.8,311.5z"/>
	<path class="st1" d="M177.5,347.1c0,0,9.9-9.6,11-27.1"/>
	<path class="st1" d="M194.4,356.3c0,0,8.6-16.1,8-25.9"/>
	<path class="st1" d="M219.2,360.9c0,0,11.4-7.1,13.7-16.5"/>
	<path class="st1" d="M239.5,370c0,0,8.4-9.5,10.2-25"/>
	<line class="st1" x1="181.8" y1="256.7" x2="187.4" y2="266"/>
	<line class="st1" x1="194.4" y1="258.1" x2="200" y2="267.3"/>
	<path class="st1" d="M215.8,286.8c-1.2,1.9-2,4.1-2,6.5c0,6.5,5.2,11.7,11.7,11.7c6,0,10.9-4.5,11.6-10.2"/>
	<path class="st1" d="M254.8,335.3c-3.1-0.2-6.6-1-10.1-2.4c-9.2-3.7-15.3-10.2-13.6-14.6c1.7-4.4,10.6-4.9,19.9-1.3
		c3.3,1.3,6.1,3,8.4,4.7"/>
	<path class="st1" d="M190.9,322.2c1.4,0.4,2.9,0.6,4.5,0.6c6.8,0,12.2-4,12.2-8.9c0-4.9-11.8-14.1-18.6-14.1c-1.1,0-2,0.2-2.7,0.6"
		/>
</g>
</svg>
