<?xml version="1.0" encoding="utf-8"?>
<!-- Generator: Adobe Illustrator 16.0.0, SVG Export Plug-In . SVG Version: 6.00 Build 0)  -->
<!DOCTYPE svg PUBLIC "-//W3C//DTD SVG 1.1//EN" "http://www.w3.org/Graphics/SVG/1.1/DTD/svg11.dtd">
<svg version="1.1" id="Moon_Tracker" xmlns="http://www.w3.org/2000/svg" xmlns:xlink="http://www.w3.org/1999/xlink" x="0px"
	 y="0px" width="512px" height="512px" viewBox="0 0 512 512" enable-background="new 0 0 512 512" xml:space="preserve">
<circle id="Background" fill="#323653" cx="256" cy="256" r="255.943"/>
<g id="Stars_8_">
	<g>
		<path fill="#FFFFFF" d="M169.771,141.595c0.789,0.742,0.888,1.979,0.225,2.764c-0.665,0.784-1.844,0.816-2.633,0.072
			c-0.789-0.745-0.89-1.981-0.226-2.762C167.803,140.885,168.982,140.853,169.771,141.595z"/>
		<polygon fill="#FFFFFF" points="165.214,139.856 168.309,143.317 171.919,146.169 168.824,142.711 		"/>
		<polygon fill="#FFFFFF" points="165.741,146.341 168.871,143.301 171.391,139.686 168.261,142.727 		"/>
	</g>
	<g>
		<path fill="#FFFFFF" d="M294.139,314.959c1.578,1.484,1.777,3.959,0.451,5.526c-1.332,1.568-3.688,1.633-5.269,0.145
			c-1.577-1.487-1.776-3.96-0.45-5.522C290.204,313.538,292.562,313.474,294.139,314.959z"/>
		<polygon fill="#FFFFFF" points="285.025,311.481 291.216,318.402 298.435,324.107 292.245,317.189 		"/>
		<polygon fill="#FFFFFF" points="286.08,324.449 292.337,318.369 297.379,311.14 291.118,317.223 		"/>
	</g>
	<g>
		<path fill="#FFFFFF" d="M329.458,24c0.972,0.915,1.095,2.438,0.277,3.404c-0.819,0.964-2.27,1.004-3.242,0.088
			c-0.972-0.916-1.095-2.439-0.278-3.4C327.036,23.125,328.487,23.085,329.458,24z"/>
		<polygon fill="#FFFFFF" points="323.847,21.859 327.658,26.121 332.104,29.633 328.292,25.374 		"/>
		<polygon fill="#FFFFFF" points="324.496,29.844 328.35,26.1 331.454,21.648 327.599,25.394 		"/>
	</g>
	<g>
		<path fill="#FFFFFF" d="M404.328,127.632c1.701,1.601,1.916,4.266,0.485,5.957c-1.434,1.688-3.972,1.757-5.674,0.154
			c-1.7-1.602-1.915-4.268-0.487-5.949C400.09,126.101,402.63,126.032,404.328,127.632z"/>
		<polygon fill="#FFFFFF" points="394.509,123.886 401.178,131.344 408.959,137.489 402.289,130.036 		"/>
		<polygon fill="#FFFFFF" points="395.646,137.859 402.389,131.307 407.82,123.517 401.074,130.072 		"/>
	</g>
	<g>
		<path fill="#FFFFFF" d="M96.733,95.416c0.789,0.743,0.889,1.979,0.225,2.764c-0.665,0.784-1.844,0.816-2.633,0.073
			c-0.789-0.745-0.89-1.981-0.226-2.762C94.765,94.706,95.944,94.674,96.733,95.416z"/>
		<polygon fill="#FFFFFF" points="92.176,93.678 95.271,97.138 98.881,99.99 95.786,96.532 		"/>
		<polygon fill="#FFFFFF" points="92.703,100.162 95.832,97.122 98.353,93.507 95.223,96.548 		"/>
	</g>
	<g>
		<path fill="#FFFFFF" d="M26.305,225.242c0.79,0.742,0.889,1.979,0.226,2.764c-0.665,0.784-1.844,0.816-2.634,0.073
			c-0.788-0.745-0.889-1.981-0.226-2.762C24.338,224.531,25.517,224.5,26.305,225.242z"/>
		<polygon fill="#FFFFFF" points="21.749,223.504 24.844,226.964 28.454,229.816 25.358,226.358 		"/>
		<polygon fill="#FFFFFF" points="22.276,229.988 25.405,226.947 27.926,223.333 24.795,226.374 		"/>
	</g>
	<g>
		<path fill="#E2DDEE" d="M378.668,461.807c2.225,2.093,2.504,5.585,0.641,7.79c-1.884,2.212-5.201,2.309-7.434,0.208
			c-2.225-2.094-2.511-5.589-0.637-7.803C373.113,459.797,376.446,459.71,378.668,461.807z"/>
		<polygon fill="#E2DDEE" points="365.81,456.9 374.545,466.651 384.729,474.703 376,464.954 		"/>
		<polygon fill="#E2DDEE" points="367.303,475.194 376.137,466.618 383.239,456.417 374.413,465 		"/>
	</g>
	<g>
		<path fill="#E2DDEE" d="M503.02,257.871c2.228,2.092,2.505,5.577,0.631,7.787c-1.866,2.22-5.196,2.312-7.426,0.212
			c-2.229-2.092-2.507-5.581-0.632-7.788C497.463,255.866,500.795,255.766,503.02,257.871z"/>
		<polygon fill="#E2DDEE" points="490.165,252.973 498.9,262.728 509.081,270.776 500.35,261.008 		"/>
		<polygon fill="#E2DDEE" points="491.656,271.262 500.483,262.676 507.591,252.488 498.768,261.063 		"/>
	</g>
</g>
<g id="Moon">
	<path fill="#FAC69C" d="M281.794,355.703c-92.438,0-179.355,5.146-255.051,14.191c51.568,104.023,169.513,162.89,287.467,135.341
		c79.329-18.527,141.339-72.1,173.497-140.515C424.386,358.914,354.813,355.703,281.794,355.703z"/>
	<g>
		<g>
			<path fill="#F79E67" d="M105.332,389.832c0,7.69-12.458,13.924-27.822,13.924c-15.371,0-27.826-6.233-27.826-13.924
				c0-7.692,12.456-13.928,27.826-13.928C92.875,375.904,105.332,382.14,105.332,389.832z"/>
			<path fill="#F4843D" d="M57.121,391.019c0-7.12,11.537-12.895,25.771-12.895c6.031,0,11.575,1.04,15.964,2.777
				c-5.104-3.053-12.771-4.997-21.346-4.997c-15.371,0-27.826,6.235-27.826,13.928c0,7.69,12.456,13.924,27.826,13.924
				c0.395,0,0.789-0.008,1.184-0.012C66.458,402.736,57.121,397.424,57.121,391.019z"/>
		</g>
		<g opacity="0.6">
			<path fill="#F79E67" d="M219.44,475.11c0,7.689-12.458,13.924-27.823,13.924c-15.37,0-27.826-6.234-27.826-13.924
				c0-7.692,12.456-13.929,27.826-13.929C206.982,461.182,219.44,467.418,219.44,475.11z"/>
			<path fill="#F4843D" d="M171.229,476.297c0-7.121,11.537-12.895,25.771-12.895c6.031,0,11.575,1.039,15.964,2.777
				c-5.104-3.053-12.771-4.998-21.347-4.998c-15.37,0-27.826,6.236-27.826,13.929c0,7.689,12.456,13.924,27.826,13.924
				c0.395,0,0.79-0.008,1.184-0.012C180.565,488.015,171.229,482.701,171.229,476.297z"/>
		</g>
		<g opacity="0.7">
			<path fill="#F79E67" d="M368.338,446.281c0,7.69-12.458,13.924-27.821,13.924c-15.372,0-27.828-6.233-27.828-13.924
				c0-7.692,12.456-13.928,27.828-13.928C355.88,432.354,368.338,438.589,368.338,446.281z"/>
			<path fill="#F4843D" d="M320.126,447.468c0-7.12,11.539-12.895,25.771-12.895c6.032,0,11.576,1.04,15.964,2.777
				c-5.103-3.053-12.771-4.997-21.345-4.997c-15.372,0-27.828,6.235-27.828,13.928c0,7.69,12.456,13.924,27.828,13.924
				c0.395,0,0.788-0.008,1.183-0.012C329.464,459.186,320.126,453.873,320.126,447.468z"/>
		</g>
		<g opacity="0.7">
			<path fill="#F79E67" d="M462.317,382.024c0,7.689-12.458,13.924-27.822,13.924c-15.371,0-27.827-6.234-27.827-13.924
				c0-7.692,12.456-13.929,27.827-13.929C449.859,368.096,462.317,374.332,462.317,382.024z"/>
			<path fill="#F4843D" d="M414.105,383.211c0-7.121,11.538-12.895,25.771-12.895c6.031,0,11.575,1.04,15.963,2.777
				c-5.103-3.053-12.771-4.998-21.345-4.998c-15.371,0-27.827,6.236-27.827,13.929c0,7.689,12.456,13.924,27.827,13.924
				c0.395,0,0.789-0.008,1.184-0.012C423.443,394.929,414.105,389.615,414.105,383.211z"/>
		</g>
	</g>
	<path opacity="0.1" d="M411.889,359.205c0.033,0.983,0.061,1.968,0.061,2.956c0,76.692-98.252,139.13-220.866,141.454
		c39.038,10.271,81.08,11.44,123.126,1.62c79.329-18.527,141.339-72.1,173.497-140.515
		C463.313,362.484,437.979,360.637,411.889,359.205z"/>
</g>
<path id="Shadow" opacity="0.1" d="M494.213,349.616L345.259,194.302l-31.31,35.535l-8.461,43.492l-37.62,4.333l-82.713-86.829
	L184,316.652l-43.29,69.195l125.902,125.901c15.757-0.67,31.676-2.796,47.597-6.514
	C399.289,485.364,464.438,425.183,494.213,349.616z"/>
<g id="Moon_Tracker_1_">
	<polygon fill="#B3B3B3" points="363.738,303.956 241.094,303.956 267.184,263.672 351.728,263.672 	"/>
	<path fill="#F2F2F2" d="M349.805,282.01h-21.742H167.717h-33.156v18.768l24.188,28.839v4.706c0,4.953,4.015,8.969,8.968,8.969
		h182.087c4.952,0,8.968-4.016,8.968-8.969v-43.344C358.772,286.025,354.757,282.01,349.805,282.01z"/>
	<path fill="#F2F2F2" d="M259.503,282.01h11.19h82.519h17.063v18.768l-12.446,28.839v4.706c0,4.953-2.067,8.969-4.616,8.969h-93.709
		c-2.548,0-4.615-4.016-4.615-8.969v-43.344C254.888,286.025,256.955,282.01,259.503,282.01z"/>
	<polygon fill="#F2F2F2" points="230.224,314.906 181.305,314.906 181.305,245.333 198.155,245.333 	"/>
	<rect x="181.305" y="190.833" fill="#F2F2F2" width="3.85" height="34.787"/>
	<rect x="189.762" y="202.116" fill="#F2F2F2" width="3.774" height="27.721"/>
	<path opacity="0.2" d="M144.52,312.65l14.23,16.966v4.706c0,4.953,4.015,8.969,8.968,8.969h182.087
		c4.952,0,8.968-4.016,8.968-8.969V312.65H144.52z"/>
	<circle fill="#228AB6" cx="192.199" cy="228.931" r="8.878"/>
	<circle fill="#29ABE2" cx="192.199" cy="228.931" r="7.044"/>
	<rect x="134.561" y="289.228" fill="#228AB6" width="224.041" height="2.447"/>
	<polygon fill="#333333" points="358.772,310.205 142.468,310.205 144.52,312.65 358.772,312.65 	"/>
	<rect x="191.648" y="294.527" fill="#D46875" width="9.429" height="9.429"/>
	<rect x="218.554" y="294.527" fill="#4EB5A0" width="9.429" height="9.429"/>
	<rect x="245.459" y="294.527" fill="#808080" width="9.428" height="9.429"/>
	<rect x="272.364" y="294.527" fill="#D89A50" width="9.43" height="9.429"/>
	<rect x="299.27" y="294.527" fill="#F46265" width="9.43" height="9.429"/>
	<rect x="326.176" y="294.527" fill="#4EB5A0" width="9.429" height="9.429"/>
	<polygon opacity="0.1" points="215.061,282.01 198.155,245.333 193.536,245.333 193.536,282.01 	"/>
	<g>
		<path fill="#E5E5E4" d="M300.361,198.214c-10.9,12.621-9.503,31.69,3.117,42.589s31.69,9.503,42.588-3.118L300.361,198.214z"/>
		<path fill="#CDCECD" d="M341.596,233.822c-11.092,10.96-28.924,11.727-40.929,1.359c-2.281-1.971-4.185-4.208-5.729-6.622
			c1.717,4.584,4.573,8.818,8.54,12.244c12.62,10.899,31.69,9.503,42.588-3.118L341.596,233.822z"/>
		<polygon fill="#B3B2B3" points="294.373,275.604 311.577,228.56 328.78,275.604 		"/>
		<polygon opacity="0.1" points="311.577,228.56 311.577,275.604 328.78,275.604 		"/>
		<g>
			<g>
				<path fill="#E5E5E4" d="M317.668,232.869c0,3.364-2.727,6.088-6.091,6.088c-3.363,0-6.089-2.724-6.089-6.088
					c0-3.366,2.726-6.092,6.089-6.092C314.941,226.777,317.668,229.503,317.668,232.869z"/>
				<path fill="#4D4E4E" d="M311.577,224.902c-4.398,0-7.962,3.568-7.962,7.967c0,4.397,3.563,7.965,7.962,7.965
					c4.401,0,7.965-3.568,7.965-7.965C319.542,228.47,315.979,224.902,311.577,224.902z M311.577,238.957
					c-3.363,0-6.089-2.724-6.089-6.088c0-3.366,2.726-6.092,6.089-6.092c3.364,0,6.091,2.726,6.091,6.092
					C317.668,236.233,314.941,238.957,311.577,238.957z"/>
			</g>
			<path opacity="0.1" d="M311.577,226.777v12.18c3.364,0,6.091-2.724,6.091-6.088C317.668,229.503,314.941,226.777,311.577,226.777
				z"/>
		</g>
		<rect x="290.945" y="275.604" fill="#E5E5E4" width="40.158" height="7.057"/>
		<rect x="311.024" y="275.604" opacity="0.1" width="20.079" height="7.057"/>
		<path fill="#E5E5E4" d="M345.259,194.302c-0.736-0.635-1.845-0.554-2.479,0.182c-0.632,0.733-0.552,1.837,0.175,2.472
			l-20.089,16.482l6.803,5.868l13.359-22.297c0.734,0.577,1.799,0.485,2.411-0.23C346.074,196.044,345.991,194.934,345.259,194.302z
			"/>
		<path opacity="0.1" d="M326.334,216.428l3.335,2.877l13.359-22.297c0.734,0.577,1.799,0.485,2.411-0.23
			c0.63-0.728,0.55-1.824-0.167-2.459L326.334,216.428z"/>
	</g>
	<g>
		<g>
			<path fill="#C2C3C4" d="M225.603,360.546c0,2.026-1.642,3.669-3.668,3.669l0,0c-2.026,0-3.669-1.643-3.669-3.669v-36.418
				c0-2.025,1.643-3.669,3.669-3.669l0,0c2.026,0,3.668,1.644,3.668,3.669V360.546z"/>
			<path opacity="0.1" d="M221.935,320.459v43.756c2.026,0,3.668-1.643,3.668-3.669v-36.418
				C225.603,322.103,223.961,320.459,221.935,320.459z"/>
			<circle fill="#666666" cx="222.206" cy="321.955" r="8.289"/>
			<circle fill="#767676" cx="222.206" cy="321.955" r="4.213"/>
		</g>
		<g>
			<circle fill="#767879" cx="221.935" cy="364.215" r="25.737"/>
			<circle fill="#B3B3B3" cx="221.934" cy="364.215" r="20.432"/>
			<polygon fill="#919593" points="242.279,362.359 226.799,362.359 237.807,351.35 235.416,348.925 224.301,360.039 
				224.301,343.869 220.893,343.869 220.893,360.164 209.191,348.246 206.644,350.732 218.573,362.663 202.405,362.664 
				202.405,366.071 218.699,366.071 207.32,378.372 209.338,380.299 221.199,368.391 221.199,384.56 224.604,384.56 
				224.604,368.264 235.677,379.335 237.999,376.839 226.925,365.767 242.279,365.766 			"/>
			<polygon fill="#C9CCC8" points="242.279,362.359 225.984,362.359 237.417,350.925 235.008,348.517 223.485,360.039 
				223.485,343.869 220.077,343.869 220.077,360.164 208.645,348.732 206.236,351.141 217.758,362.663 201.589,362.664 
				201.589,366.071 217.884,366.071 206.452,377.504 208.861,379.913 220.383,368.391 220.383,384.56 223.79,384.56 223.79,368.264 
				235.224,379.697 237.632,377.288 226.11,365.767 242.279,365.766 			"/>
			<g>
				<circle fill="#666666" cx="221.935" cy="364.215" r="5.103"/>
				<path opacity="0.1" d="M221.935,359.111L221.935,359.111v10.206l0,0c2.818,0,5.103-2.284,5.103-5.103
					S224.753,359.111,221.935,359.111z"/>
			</g>
			<path opacity="0.1" d="M221.935,338.478L221.935,338.478v51.475l0,0c14.214,0,25.737-11.523,25.737-25.737
				C247.672,350,236.149,338.478,221.935,338.478z"/>
		</g>
	</g>
	<g>
		<g>
			<path fill="#C2C3C4" d="M297.273,360.546c0,2.026-1.642,3.669-3.67,3.669l0,0c-2.024,0-3.668-1.643-3.668-3.669v-36.418
				c0-2.025,1.644-3.669,3.668-3.669l0,0c2.028,0,3.67,1.644,3.67,3.669V360.546z"/>
			<path opacity="0.1" d="M293.604,320.459v43.756c2.028,0,3.67-1.643,3.67-3.669v-36.418
				C297.273,322.103,295.632,320.459,293.604,320.459z"/>
			<circle fill="#666666" cx="293.875" cy="321.955" r="8.29"/>
			<circle fill="#767676" cx="293.875" cy="321.955" r="4.212"/>
		</g>
		<g>
			<circle fill="#767879" cx="293.604" cy="364.215" r="25.737"/>
			<circle fill="#B3B3B3" cx="293.604" cy="364.215" r="20.433"/>
			<polygon fill="#919593" points="313.949,362.359 298.469,362.359 309.478,351.35 307.085,348.925 295.971,360.039 
				295.971,343.869 292.563,343.869 292.563,360.164 280.861,348.246 278.314,350.732 290.242,362.663 274.075,362.664 
				274.075,366.071 290.37,366.071 278.991,378.372 281.008,380.299 292.869,368.391 292.869,384.56 296.275,384.56 
				296.275,368.264 307.347,379.335 309.669,376.839 298.595,365.767 313.949,365.766 			"/>
			<polygon fill="#C9CCC8" points="313.949,362.359 297.653,362.359 309.087,350.925 306.678,348.517 295.155,360.039 
				295.155,343.869 291.748,343.869 291.748,360.164 280.315,348.732 277.906,351.141 289.427,362.663 273.26,362.664 
				273.26,366.071 289.555,366.071 278.121,377.504 280.53,379.913 292.054,368.391 292.054,384.56 295.459,384.56 295.459,368.264 
				306.895,379.697 309.303,377.288 297.779,365.767 313.949,365.766 			"/>
			<g>
				<circle fill="#666666" cx="293.605" cy="364.215" r="5.103"/>
				<path opacity="0.1" d="M293.604,359.111L293.604,359.111v10.206l0,0c2.819,0,5.104-2.284,5.104-5.103
					S296.423,359.111,293.604,359.111z"/>
			</g>
			<path opacity="0.1" d="M293.604,338.478L293.604,338.478v51.475l0,0c14.216,0,25.738-11.523,25.738-25.737
				C319.342,350,307.819,338.478,293.604,338.478z"/>
		</g>
	</g>
	<g>
		<g>
			<path fill="#C2C3C4" d="M358.323,351.329c1.097,1.703,0.605,3.974-1.096,5.072l0,0c-1.704,1.098-3.975,0.606-5.072-1.097
				l-19.729-30.61c-1.099-1.703-0.606-3.973,1.095-5.071l0,0c1.705-1.098,3.975-0.606,5.072,1.096L358.323,351.329z"/>
			<path opacity="0.1" d="M333.521,319.623l23.707,36.778c1.701-1.099,2.192-3.369,1.096-5.072l-19.73-30.61
				C337.495,319.017,335.226,318.525,333.521,319.623z"/>
			<circle fill="#666666" cx="334.56" cy="320.733" r="8.289"/>
			<circle fill="#767676" cx="334.56" cy="320.733" r="4.212"/>
		</g>
		<g>
			<circle fill="#767879" cx="362.868" cy="364.214" r="25.738"/>
			<circle fill="#B3B3B3" cx="362.867" cy="364.215" r="20.432"/>
			<polygon fill="#919593" points="378.962,351.632 365.951,360.019 369.239,344.802 365.914,344.059 362.594,359.423 
				353.834,345.832 350.969,347.679 359.797,361.375 343.506,357.696 342.711,361.166 359.2,364.731 345.612,373.491 
				347.458,376.354 361.154,367.526 358.253,384.032 360.993,384.559 364.511,368.123 373.271,381.714 376.135,379.868 
				367.307,366.172 382.61,369.478 383.209,366.123 367.902,362.814 380.808,354.495 			"/>
			<polygon fill="#C9CCC8" points="378.962,351.632 365.266,360.461 368.68,344.657 365.352,343.938 361.909,359.865 
				353.147,346.273 350.284,348.12 359.112,361.816 343.308,358.401 342.588,361.731 358.516,365.174 344.927,373.934 
				346.773,376.797 360.468,367.969 357.054,383.773 360.384,384.493 363.826,368.565 372.586,382.155 375.449,380.311 
				366.621,366.613 382.426,370.028 383.146,366.699 367.219,363.257 380.808,354.495 			"/>
			<g>
				<circle fill="#666666" cx="362.868" cy="364.215" r="5.104"/>
				<path opacity="0.1" d="M360.104,359.926L360.104,359.926l5.528,8.578l0,0c2.369-1.526,3.051-4.686,1.526-7.054
					C365.631,359.08,362.472,358.399,360.104,359.926z"/>
			</g>
			<path opacity="0.1" d="M348.923,342.582L348.923,342.582l27.888,43.266l0,0c11.948-7.701,15.391-23.629,7.69-35.577
				C376.8,338.323,360.871,334.881,348.923,342.582z"/>
		</g>
	</g>
	<g>
		<g>
			<path fill="#C2C3C4" d="M159.198,351.329c-1.097,1.703-0.606,3.974,1.097,5.072l0,0c1.703,1.098,3.974,0.606,5.072-1.097
				l19.729-30.61c1.098-1.703,0.606-3.973-1.096-5.071l0,0c-1.703-1.098-3.974-0.606-5.071,1.096L159.198,351.329z"/>
			<path opacity="0.1" d="M184,319.623l-23.706,36.778c-1.703-1.099-2.193-3.369-1.097-5.072l19.731-30.61
				C180.026,319.017,182.297,318.525,184,319.623z"/>
			<circle fill="#666666" cx="182.962" cy="320.733" r="8.289"/>
			<circle fill="#767676" cx="182.962" cy="320.733" r="4.213"/>
		</g>
		<g>
			<circle fill="#767879" cx="154.654" cy="364.214" r="25.737"/>
			<circle fill="#B3B3B3" cx="154.655" cy="364.215" r="20.433"/>
			<polygon fill="#919593" points="138.56,351.632 151.571,360.019 148.282,344.802 151.607,344.059 154.928,359.423 
				163.688,345.832 166.552,347.679 157.725,361.375 174.017,357.696 174.811,361.166 158.321,364.731 171.91,373.491 
				170.064,376.354 156.368,367.526 159.269,384.032 156.528,384.559 153.01,368.123 144.25,381.714 141.389,379.868 
				150.216,366.172 134.912,369.478 134.313,366.123 149.62,362.814 136.715,354.495 			"/>
			<polygon fill="#C9CCC8" points="138.56,351.632 152.257,360.461 148.841,344.657 152.171,343.938 155.613,359.865 
				164.374,346.273 167.238,348.12 158.41,361.816 174.213,358.401 174.933,361.731 159.006,365.174 172.595,373.934 
				170.749,376.797 157.053,367.969 160.469,383.773 157.139,384.493 153.696,368.565 144.936,382.155 142.073,380.311 
				150.901,366.613 135.097,370.028 134.377,366.699 150.304,363.257 136.715,354.495 			"/>
			<g>
				<circle fill="#666666" cx="154.654" cy="364.215" r="5.103"/>
				<path opacity="0.1" d="M157.419,359.926L157.419,359.926l-5.529,8.578l0,0c-2.369-1.526-3.052-4.686-1.526-7.054
					C151.892,359.08,155.05,358.399,157.419,359.926z"/>
			</g>
			<path opacity="0.1" d="M168.599,342.582L168.599,342.582l-27.888,43.266l0,0c-11.948-7.701-15.39-23.629-7.689-35.577
				C140.723,338.323,156.651,334.881,168.599,342.582z"/>
		</g>
	</g>
</g>
</svg>
