<?xml version="1.0" encoding="utf-8"?>
<!-- Generator: Adobe Illustrator 25.0.0, SVG Export Plug-In . SVG Version: 6.00 Build 0)  -->
<svg version="1.1" id="Capa_1" xmlns="http://www.w3.org/2000/svg" xmlns:xlink="http://www.w3.org/1999/xlink" x="0px" y="0px"
	 viewBox="0 0 368.3 368.3" style="enable-background:new 0 0 368.3 368.3;" xml:space="preserve">
<style type="text/css">
	.st0{fill:none;stroke:#FFFFFF;stroke-width:8;stroke-linecap:round;stroke-linejoin:round;stroke-miterlimit:10;}
	.st1{fill:none;stroke:#FFFFFF;stroke-width:7.9999;stroke-linecap:round;stroke-linejoin:round;stroke-miterlimit:9.9999;}
	.st2{fill:none;stroke:#FFFFFF;stroke-width:8;stroke-linejoin:round;stroke-miterlimit:10;}
</style>
<g>
	<line class="st0" x1="269.2" y1="38.3" x2="168.1" y2="105.3"/>
	<line class="st0" x1="291.7" y1="72.1" x2="190.6" y2="139.1"/>
	<polyline class="st0" points="175.8,148.9 119.3,186.4 96.8,152.6 153.4,115.1 	"/>
	<polyline class="st0" points="99.3,156.4 59.7,182.7 64.1,189.3 72.7,202.3 77.1,208.9 116.8,182.7 	"/>
	<line class="st0" x1="72.8" y1="202.4" x2="60" y2="210.9"/>
	<line class="st0" x1="64.2" y1="189.3" x2="51.3" y2="197.9"/>
	<polyline class="st0" points="64.2,189.3 29.1,212.6 51,216.8 72.8,202.4 	"/>
	<rect x="276" y="14.3" transform="matrix(0.8333 -0.5528 0.5528 0.8333 28.035 173.9948)" class="st1" width="53" height="52.4"/>
	
		<rect x="177.3" y="95.1" transform="matrix(0.8333 -0.5528 0.5528 0.8333 -51.0983 127.691)" class="st1" width="17.7" height="107"/>
	<line class="st0" x1="218.1" y1="152" x2="206" y2="160.1"/>
	<line class="st0" x1="212.4" y1="143.3" x2="223.9" y2="160.7"/>
	<polyline class="st2" points="184.8,200 185.2,199.8 202.1,188.5 	"/>
	<polyline class="st2" points="169.2,210.4 158.2,217.6 149.8,205 166.1,194.2 176.8,187.1 193.7,175.9 	"/>
	<line class="st0" x1="258.9" y1="45.5" x2="280.5" y2="78"/>
	<path class="st0" d="M184.8,315.8h-15.7V195.9c0-3.9,3.1-7,7-7h1.7c3.9,0,7,3.1,7,7L184.8,315.8L184.8,315.8z"/>
	<polyline class="st2" points="184.8,274.2 191.3,280.6 274.9,364.3 246.3,364.3 184.8,302.7 	"/>
	<polyline class="st2" points="169.2,302.8 107.7,364.3 79.1,364.3 162.7,280.6 169.2,274.2 	"/>
</g>
</svg>
