<?xml version="1.0" encoding="utf-8"?>
<!-- Generator: Adobe Illustrator 16.0.0, SVG Export Plug-In . SVG Version: 6.00 Build 0)  -->
<!DOCTYPE svg PUBLIC "-//W3C//DTD SVG 1.1//EN" "http://www.w3.org/Graphics/SVG/1.1/DTD/svg11.dtd">
<svg version="1.1" id="Rocket" xmlns="http://www.w3.org/2000/svg" xmlns:xlink="http://www.w3.org/1999/xlink" x="0px" y="0px"
	 width="512px" height="512px" viewBox="0 0 512 512" enable-background="new 0 0 512 512" xml:space="preserve">
<circle id="Background" fill="#323653" cx="256" cy="256" r="255.931"/>
<path id="Shadow" opacity="0.1" d="M507.667,209.332L379.396,82.479L208.653,292.33l-75.502,36.534l-10.438,41.273l42.283,35.281
	L137.97,439.08l67.925,67.925c124.428,25,251-45.8,292.621-169.232C512.974,294.894,515.409,250.866,507.667,209.332z"/>
<g id="Star_1_">
	<g>
		<path fill="#E3DFF0" d="M187.05,86.568c-6.134,2.292-13.113-0.473-15.582-6.171c-2.468-5.696,0.505-12.174,6.643-14.463
			c6.137-2.291,13.117,0.47,15.58,6.163C196.161,77.796,193.188,84.275,187.05,86.568z"/>
		<polygon fill="#E3DFF0" points="208.653,66.515 181.626,74.046 156.51,85.984 183.536,78.45 		"/>
		<polygon fill="#E3DFF0" points="172.096,52.042 180.208,77.134 193.067,100.452 184.952,75.362 		"/>
	</g>
	<g>
		<path fill="#E3DFF0" d="M31.887,342.438c-2.337,0.874-4.996-0.18-5.936-2.349c-0.94-2.171,0.193-4.638,2.53-5.512
			c2.338-0.873,4.996,0.18,5.936,2.35C35.36,339.099,34.226,341.566,31.887,342.438z"/>
		<polygon fill="#E3DFF0" points="40.117,334.8 29.822,337.669 20.252,342.217 30.548,339.348 		"/>
		<polygon fill="#E3DFF0" points="26.19,329.287 29.281,338.846 34.179,347.729 31.088,338.171 		"/>
	</g>
	<g id="Star">
		<path fill="#E3DFF0" d="M360.813,153.302c-3.486,1.301-7.453-0.268-8.855-3.506c-1.403-3.237,0.288-6.918,3.774-8.22
			c3.489-1.304,7.454,0.267,8.856,3.503C365.99,148.318,364.301,151.999,360.813,153.302z"/>
		<polygon fill="#E3DFF0" points="373.089,141.906 357.729,146.187 343.456,152.97 358.813,148.689 		"/>
		<polygon fill="#E3DFF0" points="352.314,133.681 356.924,147.941 364.231,161.192 359.619,146.935 		"/>
	</g>
</g>
<g id="Star_2_">
	<g>
		<path fill="#E3DFF0" d="M381.274,302.744c-3.527,1.478-7.54-0.306-8.959-3.978c-1.419-3.671,0.29-7.845,3.819-9.32
			c3.529-1.477,7.541,0.304,8.958,3.972C386.514,297.091,384.804,301.266,381.274,302.744z"/>
		<polygon fill="#E3DFF0" points="393.696,289.821 378.155,294.674 363.714,302.367 379.254,297.512 		"/>
		<polygon fill="#E3DFF0" points="372.676,280.494 377.34,296.664 384.733,311.689 380.068,295.522 		"/>
	</g>
	<g>
		<path fill="#E3DFF0" d="M292.058,467.629c-1.345,0.563-2.872-0.115-3.413-1.513c-0.541-1.398,0.111-2.988,1.455-3.551
			c1.344-0.563,2.872,0.114,3.413,1.513C294.054,465.478,293.402,467.067,292.058,467.629z"/>
		<polygon fill="#E3DFF0" points="296.79,462.707 290.869,464.557 285.367,467.486 291.287,465.638 		"/>
		<polygon fill="#E3DFF0" points="288.781,459.154 290.559,465.314 293.375,471.038 291.599,464.88 		"/>
	</g>
	<g id="Star_3_">
		<path fill="#E3DFF0" d="M481.186,345.747c-2.004,0.84-4.285-0.173-5.091-2.259c-0.808-2.087,0.166-4.459,2.169-5.297
			c2.007-0.841,4.287,0.172,5.094,2.256C484.163,342.536,483.192,344.907,481.186,345.747z"/>
		<polygon fill="#E3DFF0" points="488.245,338.404 479.413,341.161 471.206,345.533 480.037,342.775 		"/>
		<polygon fill="#E3DFF0" points="476.3,333.104 478.95,342.293 483.151,350.832 480.5,341.644 		"/>
	</g>
</g>
<g id="Rocket_1_">
	<path fill="#F4826D" d="M327.226,249.212c-51.906,76.391-112.708,125.599-135.803,109.906
		c-23.096-15.692,0.262-90.344,52.169-166.734c51.907-76.392,122.735-118.785,135.805-109.904
		C391.458,90.676,379.134,172.82,327.226,249.212z"/>
	<path fill="#FEC35A" d="M367.508,171.18c17.23-46.336,19.777-83.339,11.889-88.7c-8.549-5.809-41.812,10.325-78.326,43.557
		L367.508,171.18z"/>
	<path fill="#FEC35A" d="M288.077,138.476l72.728,49.417c1.677-3.896,3.251-7.75,4.732-11.547l-68.52-46.559
		C294.049,132.575,291.065,135.47,288.077,138.476z"/>
	<circle fill="#BF5D62" cx="282.054" cy="225.482" r="34.03"/>
	<circle fill="#B1BDE1" cx="282.055" cy="225.482" r="30.14"/>
	<path fill="#FEC35A" d="M192.328,289.704c-12.269,34.551-13.552,60.821-0.905,69.414c12.646,8.593,36.598-2.274,64.202-26.405
		L192.328,289.704z"/>
	<polygon fill="#D7D7D7" points="183.516,323.195 174.408,356.479 200.552,374.244 228.141,353.519 	"/>
	<g>
		<polygon fill="#BF5D62" points="241.753,402.246 239.016,344.854 253.134,334.323 255.872,391.718 		"/>
		<polygon fill="#BF5D62" points="224.607,415.036 221.871,357.643 235.99,347.113 238.725,404.505 		"/>
		<polygon fill="#BF5D62" points="207.628,427.701 204.891,370.308 219.008,359.777 221.745,417.171 		"/>
	</g>
	<g>
		<polygon fill="#BF5D62" points="133.151,328.864 187.213,309.403 191.531,292.33 137.469,311.789 		"/>
		<polygon fill="#BF5D62" points="127.905,349.602 181.968,330.141 186.288,313.065 132.225,332.526 		"/>
		<polygon fill="#BF5D62" points="122.712,370.138 176.775,350.679 181.093,333.603 127.03,353.063 		"/>
	</g>
	
		<rect x="196.103" y="343.79" transform="matrix(0.8269 0.5624 -0.5624 0.8269 231.569 -49.9012)" fill="#904548" width="1.459" height="14.73"/>
	
		<rect x="183.586" y="359.69" transform="matrix(0.8273 0.5618 -0.5618 0.8273 239.4582 -39.7135)" fill="#904548" width="1.458" height="19.773"/>
	
		<rect x="171.659" y="379.197" transform="matrix(0.827 0.5622 -0.5622 0.827 247.4901 -29.9399)" fill="#904548" width="1.459" height="15.863"/>
	<path fill="#FCAF17" d="M182.308,372.532c16.809,11.589,10.156,25.993,8.152,28.943c-2.003,2.948-13.589,16.626-12.912,21.396
		c-5.801-4.725-4.116-17.097,1.177-20.848c-6.83,4.86-2.361,22.59-26.477,35.003c0.015-5.085,7.254-16.229,8.894-18.642
		c-1.64,2.412-17.89,12.92-23.172,20.694c-3.435-5.469,1.425-26.461,10.126-34.652c8.702-8.193,3.655-4.059,6.231-6.695
		c-6.201,3.936-12.812,8.884-13.283,11.307C139.736,404.623,153.491,352.663,182.308,372.532z"/>
	<path fill="#F15A27" d="M178.406,379.571c15.818,8.79-11.724,34.351-24.752,37.841
		C151.353,404.682,159.421,369.021,178.406,379.571z"/>
	
		<rect x="194.828" y="303.05" transform="matrix(0.8275 0.5615 -0.5615 0.8275 231.9585 -48.8996)" fill="#BF5D62" width="1.457" height="99.965"/>
	<path opacity="0.1" d="M379.396,82.479c-0.197-0.134-0.41-0.255-0.634-0.367l-187.927,276.57c0.196,0.146-3.564,6.545-3.564,6.545
		s6.624,4.291,13.281,9.017c50.92-38.681,69.042-43.194,126.673-125.032C377.43,177.922,391.458,90.676,379.396,82.479z"/>
</g>
</svg>
