<?xml version="1.0" encoding="utf-8"?>
<!-- Generator: Adobe Illustrator 25.0.0, SVG Export Plug-In . SVG Version: 6.00 Build 0)  -->
<svg version="1.1" id="Capa_1" xmlns="http://www.w3.org/2000/svg" xmlns:xlink="http://www.w3.org/1999/xlink" x="0px" y="0px"
	 viewBox="0 0 272.2 272.2" style="enable-background:new 0 0 272.2 272.2;" xml:space="preserve">
<style type="text/css">
	.st0{fill:none;stroke:#FFFFFF;stroke-width:8;stroke-linecap:round;stroke-linejoin:round;stroke-miterlimit:10;}
	.st1{fill:none;stroke:#FFFFFF;stroke-width:8.0004;stroke-linecap:round;stroke-linejoin:round;stroke-miterlimit:10.0004;}
	.st2{fill:#FFFFFF;stroke:#FFFFFF;stroke-width:1;stroke-miterlimit:10.0002;}
</style>
<g>
	<path class="st0" d="M39.4,72.4h-19c3-5.4,6.3-10.6,10-15.5H95"/>
	<path class="st0" d="M65.6,104.5H7.8c1.3-5.3,2.9-10.4,4.8-15.5h26.8"/>
	<path class="st0" d="M91.8,150.9h-87C4.3,146,4,141.1,4,136.1s0.3-10,0.8-14.9h120.3"/>
	<path class="st0" d="M72,183.1H12.6c-1.9-5-3.5-10.2-4.8-15.5H122"/>
	<path class="st0" d="M119.6,215.2H30.3c-3.7-4.9-7-10.1-10-15.5h19.1"/>
	<path class="st0" d="M81.1,40.3H45.2C68.9,17.8,100.9,4,136.1,4c73,0,132.1,59.1,132.1,132.1s-59.1,132.1-132.1,132.1
		c-35.3,0-67.3-13.8-91-36.3h32.5"/>
	
		<ellipse transform="matrix(0.9457 -0.3251 0.3251 0.9457 -16.4687 71.6274)" class="st1" cx="206.1" cy="85.1" rx="27.8" ry="36.2"/>
	<ellipse transform="matrix(0.9457 -0.3251 0.3251 0.9457 -16.4687 71.6274)" class="st2" cx="206.1" cy="85.1" rx="6.9" ry="9"/>
	<line class="st0" x1="4" y1="136.1" x2="268.2" y2="136.1"/>
	<line class="st0" x1="238.8" y1="167.6" x2="262.6" y2="167.6"/>
	<line class="st0" x1="214.4" y1="150.9" x2="262.6" y2="150.9"/>
	<line class="st0" x1="251.9" y1="199.7" x2="185.3" y2="199.7"/>
</g>
</svg>
