<?xml version="1.0" encoding="utf-8"?>
<!-- Generator: Adobe Illustrator 16.0.0, SVG Export Plug-In . SVG Version: 6.00 Build 0)  -->
<!DOCTYPE svg PUBLIC "-//W3C//DTD SVG 1.1//EN" "http://www.w3.org/Graphics/SVG/1.1/DTD/svg11.dtd">
<svg version="1.1" id="Satelite" xmlns="http://www.w3.org/2000/svg" xmlns:xlink="http://www.w3.org/1999/xlink" x="0px" y="0px"
	 width="512px" height="512px" viewBox="0 0 512 512" enable-background="new 0 0 512 512" xml:space="preserve">
<circle id="Background" fill="#323653" cx="256" cy="256" r="255.931"/>
<path id="Shadow" opacity="0.1" d="M394.043,165.105l-16.076,10.067l-12.918-12.919l-6.775,5.438l-7.338-7.338l-11.704,9.511
	l21.507,21.506l-89.449-43.932l55.324,55.326l-162.399-12.293L57.936,174.587l107.399,107.399l-6.171,16.703l46.568,46.568
	l-60.53-25.081l51.012,51.013l-61.628,18.476l40.917,40.917l-3.603,5.549l75.711,75.711
	c109.967,3.646,213.94-64.444,250.904-174.069c6.258-18.56,10.258-37.335,12.164-56.03L394.043,165.105z"/>
<g id="Stars">
	<g>
		<g>
			<path fill="#E3DFF0" d="M184.399,80.445c-2.495,0.932-5.334-0.193-6.338-2.511c-1.004-2.317,0.205-4.951,2.702-5.883
				c2.496-0.932,5.335,0.191,6.336,2.507C188.105,76.877,186.896,79.512,184.399,80.445z"/>
			<polygon fill="#E3DFF0" points="193.187,72.289 182.193,75.352 171.977,80.208 182.97,77.143 			"/>
			<polygon fill="#E3DFF0" points="178.316,66.401 181.616,76.608 186.846,86.092 183.545,75.887 			"/>
		</g>
		<g>
			<path fill="#E3DFF0" d="M262.909,475.916c-2.494,0.933-5.333-0.192-6.337-2.51c-1.004-2.318,0.205-4.952,2.702-5.884
				c2.496-0.932,5.336,0.191,6.337,2.507C266.615,472.348,265.405,474.983,262.909,475.916z"/>
			<polygon fill="#E3DFF0" points="271.697,467.759 260.704,470.822 250.487,475.679 261.48,472.613 			"/>
			<polygon fill="#E3DFF0" points="256.826,461.872 260.126,472.078 265.356,481.563 262.055,471.357 			"/>
		</g>
		<g>
			<path fill="#E3DFF0" d="M134.587,244.866c-2.495,0.933-5.333-0.192-6.338-2.51c-1.004-2.318,0.205-4.952,2.702-5.883
				c2.496-0.932,5.335,0.191,6.337,2.507C138.293,241.297,137.083,243.934,134.587,244.866z"/>
			<polygon fill="#E3DFF0" points="143.375,236.709 132.382,239.772 122.165,244.628 133.158,241.563 			"/>
			<polygon fill="#E3DFF0" points="128.504,230.822 131.804,241.028 137.035,250.513 133.733,240.308 			"/>
		</g>
		<g>
			<path fill="#E3DFF0" d="M462.999,254.26c-3.743,1.399-8.002-0.289-9.51-3.767c-1.507-3.478,0.308-7.431,4.055-8.828
				c3.746-1.398,8.007,0.287,9.509,3.762C468.561,248.905,466.745,252.861,462.999,254.26z"/>
			<polygon fill="#E3DFF0" points="476.187,242.02 459.689,246.617 444.359,253.903 460.854,249.304 			"/>
			<polygon fill="#E3DFF0" points="453.872,233.187 458.823,248.5 466.672,262.732 461.718,247.42 			"/>
		</g>
		<g>
			<path fill="#E3DFF0" d="M259.802,38.158c-6.133,2.292-13.114-0.473-15.582-6.171c-2.468-5.696,0.505-12.174,6.643-14.463
				c6.137-2.291,13.118,0.47,15.58,6.163C268.912,29.387,265.94,35.865,259.802,38.158z"/>
			<polygon fill="#E3DFF0" points="281.405,18.105 254.378,25.636 229.261,37.574 256.287,30.041 			"/>
			<polygon fill="#E3DFF0" points="244.847,3.632 252.96,28.724 265.818,52.042 257.703,26.952 			"/>
		</g>
		<g>
			<path fill="#E3DFF0" d="M31.887,342.438c-2.337,0.874-4.996-0.18-5.936-2.349c-0.94-2.171,0.193-4.638,2.53-5.512
				c2.338-0.873,4.996,0.18,5.936,2.35C35.36,339.099,34.226,341.566,31.887,342.438z"/>
			<polygon fill="#E3DFF0" points="40.117,334.8 29.822,337.669 20.252,342.217 30.548,339.348 			"/>
			<polygon fill="#E3DFF0" points="26.19,329.287 29.281,338.846 34.179,347.729 31.088,338.171 			"/>
		</g>
	</g>
	<g id="Star">
		<path fill="#E3DFF0" d="M360.813,153.302c-3.486,1.301-7.453-0.268-8.855-3.506c-1.403-3.237,0.288-6.918,3.774-8.22
			c3.489-1.304,7.454,0.267,8.856,3.503C365.99,148.318,364.301,151.999,360.813,153.302z"/>
		<polygon fill="#E3DFF0" points="373.089,141.906 357.729,146.187 343.456,152.97 358.813,148.689 		"/>
		<polygon fill="#E3DFF0" points="352.314,133.681 356.924,147.941 364.231,161.192 359.619,146.935 		"/>
	</g>
</g>
<g id="Satelite_1_">
	<path fill="#D0E6F0" d="M277.659,364.119c-6.243,8.428-18.141,10.2-26.569,3.956l-87.583-64.885
		c-8.43-6.244-10.2-18.141-3.956-26.569l88.603-119.601c6.246-8.43,18.141-10.201,26.571-3.955l87.581,64.883
		c8.43,6.246,10.201,18.141,3.956,26.57L277.659,364.119z"/>
	<path fill="#4FA690" d="M249.373,387.798c-2.629,3.55-7.639,4.296-11.187,1.666l-91.38-67.698
		c-3.549-2.629-4.295-7.639-1.666-11.187l1.984-2.679c2.628-3.549,7.637-4.294,11.187-1.665l91.38,67.697
		c3.55,2.63,4.294,7.639,1.666,11.188L249.373,387.798z"/>
	<path fill="#4FA690" d="M378.296,213.774c2.628-3.549,1.883-8.558-1.667-11.187l-91.378-67.698
		c-3.551-2.629-8.56-1.883-11.189,1.666l-1.981,2.676c-2.631,3.55-1.885,8.559,1.663,11.189l91.381,67.698
		c3.55,2.628,8.558,1.883,11.188-1.667L378.296,213.774z"/>
	<polygon fill="#D0E6F0" points="386.364,157.913 369.657,180.464 358.063,171.875 365.594,161.707 362.236,159.222 
		354.707,169.386 347.993,164.414 351.195,160.092 348.145,157.832 344.942,162.154 342.087,166.01 339.231,169.864 
		363.945,188.174 372.489,194.502 378.199,186.792 394.906,164.241 	"/>
	<path opacity="0.2" fill="#52919D" d="M267.171,296.507c-2.976,4.019-8.646,4.861-12.663,1.886l-24.839-18.401
		c-4.018-2.977-4.862-8.647-1.885-12.664l37.723-50.919c2.977-4.018,8.646-4.862,12.664-1.886l24.839,18.401
		c4.017,2.976,4.861,8.646,1.885,12.663L267.171,296.507z"/>
	<path opacity="0.2" fill="#77CFE0" d="M267.074,291.838c-2.628,3.55-7.639,4.296-11.187,1.666l-21.943-16.256
		c-3.549-2.63-4.295-7.639-1.667-11.188l33.327-44.985c2.631-3.549,7.64-4.295,11.188-1.665l21.943,16.257
		c3.549,2.629,4.295,7.638,1.666,11.187L267.074,291.838z"/>
	<path opacity="0.1" d="M362.308,217.949l-42.729-31.654L208.361,336.42l42.729,31.655c8.428,6.244,20.326,4.472,26.569-3.956
		l88.604-119.601C372.509,236.089,370.737,224.195,362.308,217.949z"/>
	<path opacity="0.1" d="M376.629,202.588l-44.627-33.062l-11.505,15.53l44.627,33.063c3.55,2.628,8.558,1.883,11.188-1.667
		l1.983-2.677C380.924,210.225,380.179,205.216,376.629,202.588z"/>
	<path opacity="0.1" d="M249.69,373.933l-44.628-33.062L193.557,356.4l44.629,33.063c3.548,2.63,8.558,1.884,11.187-1.666
		l1.983-2.677C253.985,381.571,253.24,376.563,249.69,373.933z"/>
	<g>
		<path fill="#D0E6F0" d="M220.082,400.223c-4.797-17.702-19.872-31.628-39.2-34.015c-19.326-2.386-37.336,7.453-46.296,23.457
			L220.082,400.223z"/>
		<g>
			<path fill="#666666" d="M165.754,342.732l5.68,31.069c0.387,2.113,1.9,3.735,3.809,4.358c0.867,0.287,1.815,0.363,2.776,0.189
				l31.069-5.68c3.074-0.563,5.11-3.511,4.548-6.587c-0.561-3.073-3.508-5.109-6.584-4.547l-25.502,4.66l-4.663-25.501
				c-0.562-3.073-3.512-5.109-6.583-4.547C167.229,336.711,165.192,339.657,165.754,342.732z"/>
			<g>
				<circle fill="#4D4D4D" cx="177.916" cy="371.566" r="2.303"/>
				<path fill="#D0E6F0" d="M177.558,369.604c1.249-0.23,2.449,0.6,2.68,1.85c0.229,1.254-0.601,2.452-1.853,2.681
					c-1.25,0.229-2.45-0.6-2.679-1.851C175.478,371.031,176.306,369.832,177.558,369.604z"/>
			</g>
		</g>
		<path fill="#D0E6F0" d="M171,396.079l2.552,33.142c-1.024,0.141-1.987,0.682-2.621,1.599c-1.198,1.734-0.764,4.112,0.971,5.312
			c1.734,1.195,4.112,0.762,5.308-0.973c1.199-1.735,0.763-4.11-0.971-5.311c-0.269-0.184-0.553-0.316-0.847-0.426l11.381-31.176
			L171,396.079z"/>
	</g>
	<g>
		
			<rect x="288.084" y="290.865" transform="matrix(0.8035 0.5953 -0.5953 0.8035 275.4916 -151.9283)" fill="#52919D" width="159.622" height="101.003"/>
		
			<rect x="291.177" y="294.239" transform="matrix(0.8035 0.5953 -0.5953 0.8035 275.6575 -152.0451)" fill="#77CFE0" width="153.958" height="94.64"/>
		<polygon opacity="0.7" fill="#F2F2F2" points="279.217,332.294 279.434,334.721 309.034,356.65 450.933,343.992 409.628,313.391 
			284.982,324.511 		"/>
		<polygon opacity="0.7" fill="#F2F2F2" points="327.382,370.244 450.868,359.226 456.175,352.063 319.321,364.271 		"/>
		
			<rect x="292.069" y="338.855" transform="matrix(0.8035 0.5953 -0.5953 0.8035 275.1152 -152.8133)" fill="#52919D" width="153.958" height="2.998"/>
		
			<rect x="368.672" y="292.105" transform="matrix(0.8037 0.595 -0.595 0.8037 276.0714 -152.8811)" fill="#52919D" width="2.189" height="99.824"/>
	</g>
	<g>
		
			<rect x="72.317" y="131.015" transform="matrix(0.8035 0.5953 -0.5953 0.8035 137.9427 -54.8941)" fill="#52919D" width="159.623" height="101.004"/>
		
			<rect x="75.409" y="134.388" transform="matrix(0.8035 0.5953 -0.5953 0.8035 138.1061 -55.0107)" fill="#77CFE0" width="153.957" height="94.642"/>
		<polygon opacity="0.7" fill="#F2F2F2" points="63.449,172.444 63.667,174.872 93.265,196.801 235.165,184.141 193.86,153.542 
			69.214,164.663 		"/>
		<polygon opacity="0.7" fill="#F2F2F2" points="111.614,210.395 235.101,199.378 240.408,192.214 103.554,204.423 		"/>
		
			<rect x="76.301" y="179.006" transform="matrix(0.8035 0.5953 -0.5953 0.8035 137.5675 -55.7789)" fill="#52919D" width="153.959" height="2.999"/>
		
			<rect x="152.904" y="132.258" transform="matrix(0.8033 0.5955 -0.5955 0.8033 138.7741 -55.8841)" fill="#52919D" width="2.19" height="99.823"/>
	</g>
</g>
</svg>
