<?xml version="1.0" encoding="utf-8"?>
<!-- Generator: Adobe Illustrator 16.0.0, SVG Export Plug-In . SVG Version: 6.00 Build 0)  -->
<!DOCTYPE svg PUBLIC "-//W3C//DTD SVG 1.1//EN" "http://www.w3.org/Graphics/SVG/1.1/DTD/svg11.dtd">
<svg version="1.1" id="Satellite_Receiver" xmlns="http://www.w3.org/2000/svg" xmlns:xlink="http://www.w3.org/1999/xlink" x="0px"
	 y="0px" width="512px" height="512px" viewBox="0 0 512 512" enable-background="new 0 0 512 512" xml:space="preserve">
<circle id="Background" fill="#323653" cx="256" cy="256" r="255.943"/>
<g id="Stars_8_">
	<g>
		<path fill="#FFFFFF" d="M169.771,141.595c0.789,0.742,0.888,1.979,0.225,2.764c-0.665,0.784-1.844,0.816-2.633,0.072
			c-0.789-0.745-0.89-1.981-0.226-2.762C167.803,140.885,168.982,140.853,169.771,141.595z"/>
		<polygon fill="#FFFFFF" points="165.214,139.856 168.309,143.317 171.919,146.169 168.824,142.711 		"/>
		<polygon fill="#FFFFFF" points="165.741,146.341 168.871,143.301 171.391,139.686 168.261,142.727 		"/>
	</g>
	<g>
		<path fill="#FFFFFF" d="M329.458,24c0.972,0.915,1.095,2.438,0.277,3.404c-0.819,0.964-2.27,1.004-3.242,0.088
			c-0.972-0.916-1.095-2.439-0.278-3.4C327.036,23.125,328.487,23.085,329.458,24z"/>
		<polygon fill="#FFFFFF" points="323.847,21.859 327.658,26.121 332.104,29.633 328.292,25.374 		"/>
		<polygon fill="#FFFFFF" points="324.496,29.844 328.35,26.1 331.454,21.648 327.599,25.394 		"/>
	</g>
	<g>
		<path fill="#FFFFFF" d="M96.733,95.416c0.789,0.743,0.889,1.979,0.225,2.764c-0.665,0.784-1.844,0.816-2.633,0.073
			c-0.789-0.745-0.89-1.981-0.226-2.762C94.765,94.706,95.944,94.674,96.733,95.416z"/>
		<polygon fill="#FFFFFF" points="92.176,93.678 95.271,97.138 98.881,99.99 95.786,96.532 		"/>
		<polygon fill="#FFFFFF" points="92.703,100.162 95.832,97.122 98.353,93.507 95.223,96.548 		"/>
	</g>
	<g>
		<path fill="#FFFFFF" d="M26.305,225.242c0.79,0.742,0.889,1.979,0.226,2.764c-0.665,0.784-1.844,0.816-2.634,0.073
			c-0.788-0.745-0.889-1.981-0.226-2.762C24.338,224.531,25.517,224.5,26.305,225.242z"/>
		<polygon fill="#FFFFFF" points="21.749,223.504 24.844,226.964 28.454,229.816 25.358,226.358 		"/>
		<polygon fill="#FFFFFF" points="22.276,229.988 25.405,226.947 27.926,223.333 24.795,226.374 		"/>
	</g>
	<g>
		<path fill="#E2DDEE" d="M378.668,461.807c2.225,2.093,2.504,5.585,0.641,7.79c-1.884,2.212-5.201,2.309-7.434,0.208
			c-2.225-2.094-2.511-5.589-0.637-7.803C373.113,459.797,376.446,459.71,378.668,461.807z"/>
		<polygon fill="#E2DDEE" points="365.81,456.9 374.545,466.651 384.729,474.703 376,464.954 		"/>
		<polygon fill="#E2DDEE" points="367.303,475.194 376.137,466.618 383.239,456.417 374.413,465 		"/>
	</g>
	<g>
		<path fill="#E2DDEE" d="M503.02,257.871c2.228,2.092,2.505,5.577,0.631,7.787c-1.866,2.22-5.196,2.312-7.426,0.212
			c-2.229-2.092-2.507-5.581-0.632-7.788C497.463,255.866,500.795,255.766,503.02,257.871z"/>
		<polygon fill="#E2DDEE" points="490.165,252.973 498.9,262.728 509.081,270.776 500.35,261.008 		"/>
		<polygon fill="#E2DDEE" points="491.656,271.262 500.483,262.676 507.591,252.488 498.768,261.063 		"/>
	</g>
</g>
<g id="Shadow_1_">
	<path opacity="0.1" d="M377.229,302.152l-175.75-45.947l-28.691,46.021l87.611,70.414l-4.707,4.328l-52.723-40.914l-63.479,2.344
		l-37.972,80.438l84.462,83.461c40.38,11.469,84.148,13.162,127.922,2.938c67.064-15.663,121.747-56.375,156.484-109.924
		L377.229,302.152z"/>
	<path id="Shadow" opacity="0.1" d="M509.147,292.002L374.622,157.475l-52.041,83.338l151.311,148.935
		C492.018,360.181,504.175,326.948,509.147,292.002z"/>
</g>
<g id="Satellite_Receiver_1_">
	<g>
		<path fill="#E6E6E6" d="M118.843,263.405c-20.062,23.231-17.492,58.326,5.739,78.388c23.23,20.061,58.325,17.491,78.387-5.738
			L118.843,263.405z"/>
		<path fill="#CDCECE" d="M194.742,328.948c-20.418,20.172-53.238,21.578-75.333,2.497c-4.195-3.622-7.706-7.74-10.542-12.186
			c3.158,8.439,8.415,16.229,15.715,22.533c23.23,20.061,58.325,17.491,78.387-5.738L194.742,328.948z"/>
		<polygon fill="#B3B3B3" points="107.825,405.845 139.49,319.26 171.155,405.846 		"/>
		<polygon opacity="0.1" points="139.49,319.26 139.49,405.846 171.155,405.846 		"/>
		<g>
			<g>
				<circle fill="#E6E6E6" cx="139.49" cy="327.188" r="11.21"/>
				<path fill="#4D4D4D" d="M139.49,312.528c-8.096,0-14.659,6.564-14.659,14.66c0,8.097,6.563,14.659,14.659,14.659
					s14.66-6.563,14.66-14.659C154.15,319.093,147.586,312.528,139.49,312.528z M139.49,338.398c-6.191,0-11.209-5.019-11.209-11.21
					c0-6.192,5.018-11.211,11.209-11.211s11.21,5.019,11.21,11.211C150.7,333.38,145.682,338.398,139.49,338.398z"/>
			</g>
			<path opacity="0.1" d="M139.49,315.978v22.421c6.191,0,11.21-5.019,11.21-11.21C150.7,320.996,145.682,315.978,139.49,315.978z"
				/>
		</g>
		<rect x="101.519" y="405.846" fill="#E6E6E6" width="73.91" height="12.99"/>
		<rect x="138.474" y="405.846" opacity="0.1" width="36.955" height="12.99"/>
		<path fill="#E6E6E6" d="M201.479,256.205c-1.352-1.167-3.395-1.017-4.561,0.336c-1.163,1.349-1.015,3.381,0.326,4.55
			l-36.979,30.332l12.522,10.804l24.591-41.038c1.349,1.06,3.304,0.891,4.437-0.423C202.982,259.413,202.83,257.372,201.479,256.205
			z"/>
		<path opacity="0.1" d="M166.648,296.93l6.14,5.297l24.591-41.038c1.349,1.06,3.304,0.891,4.437-0.423
			c1.157-1.342,1.014-3.359-0.307-4.53L166.648,296.93z"/>
	</g>
	<g>
		<path fill="#E6E6E6" d="M224.829,170.467c-36.352,42.096-31.697,105.689,10.399,142.042
			c42.094,36.352,105.689,31.696,142.042-10.399L224.829,170.467z"/>
		<path fill="#CDCECE" d="M362.361,289.234c-36.998,36.552-96.47,39.101-136.508,4.524c-7.602-6.563-13.963-14.025-19.102-22.081
			c5.722,15.292,15.248,29.407,28.477,40.832c42.094,36.352,105.689,31.696,142.042-10.399L362.361,289.234z"/>
		<polygon fill="#B3B3B3" points="204.863,428.574 262.243,271.678 319.621,428.575 		"/>
		<polygon opacity="0.1" points="262.243,271.678 262.243,428.575 319.621,428.575 		"/>
		<g>
			<g>
				<circle fill="#E6E6E6" cx="262.243" cy="286.046" r="20.313"/>
				<path fill="#4D4D4D" d="M262.243,259.481c-14.671,0-26.564,11.894-26.564,26.564s11.893,26.563,26.564,26.563
					c14.67,0,26.563-11.893,26.563-26.563S276.913,259.481,262.243,259.481z M262.243,306.358c-11.22,0-20.313-9.093-20.313-20.313
					s9.094-20.313,20.313-20.313c11.219,0,20.313,9.094,20.313,20.313S273.462,306.358,262.243,306.358z"/>
			</g>
			<path opacity="0.1" d="M262.243,265.732v40.626c11.219,0,20.313-9.093,20.313-20.313S273.462,265.732,262.243,265.732z"/>
		</g>
		<rect x="193.436" y="428.575" fill="#E6E6E6" width="133.928" height="23.54"/>
		<rect x="260.4" y="428.575" opacity="0.1" width="66.964" height="23.54"/>
		<path fill="#E6E6E6" d="M374.57,157.419c-2.452-2.114-6.152-1.841-8.265,0.609c-2.107,2.442-1.84,6.127,0.59,8.244l-67.007,54.964
			l22.692,19.577l44.559-74.363c2.445,1.918,5.987,1.612,8.04-0.767C377.293,163.234,377.018,159.533,374.57,157.419z"/>
		<path opacity="0.1" d="M311.454,231.215l11.127,9.599l44.559-74.363c2.445,1.918,5.987,1.612,8.04-0.767
			c2.096-2.43,1.837-6.087-0.558-8.209L311.454,231.215z"/>
	</g>
</g>
</svg>
