<?xml version="1.0" encoding="utf-8"?>
<!-- Generator: Adobe Illustrator 25.0.0, SVG Export Plug-In . SVG Version: 6.00 Build 0)  -->
<svg version="1.1" id="Capa_1" xmlns="http://www.w3.org/2000/svg" xmlns:xlink="http://www.w3.org/1999/xlink" x="0px" y="0px"
	 viewBox="0 0 305.6 305.6" style="enable-background:new 0 0 305.6 305.6;" xml:space="preserve">
<style type="text/css">
	.st0{fill:none;stroke:#FFFFFF;stroke-width:8;stroke-linecap:round;stroke-linejoin:round;stroke-miterlimit:10;}
</style>
<g>
	<circle class="st0" cx="152.8" cy="111.4" r="67.5"/>
	<path class="st0" d="M86.8,160.6c14.7,20.5,38.8,33.9,66,33.9s51.3-13.4,66-33.9"/>
	<path class="st0" d="M206.5,70.4H224c10.1,0,18.4,8.2,18.4,18.4v19.2c0,4-3.2,7.1-7.1,7.1h-15"/>
	<path class="st0" d="M85.4,115.1h-15c-4,0-7.1-3.2-7.1-7.1V88.8c0-10.1,8.2-18.4,18.4-18.4h17.5"/>
	<line class="st0" x1="66.4" y1="164.4" x2="66.4" y2="115.1"/>
	<line class="st0" x1="239.2" y1="164.4" x2="239.2" y2="115.1"/>
	<path class="st0" d="M198.9,160.6h21.7c23.6,0,42.8,19.2,42.8,42.8v77.2H42.1v-77.2c0-23.6,19.2-42.8,42.7-42.8h21.7"/>
	<line class="st0" x1="152.8" y1="196.1" x2="152.8" y2="280.5"/>
	<line class="st0" x1="87" y1="162.7" x2="87" y2="280.5"/>
	<line class="st0" x1="218.6" y1="162.7" x2="218.6" y2="280.5"/>
	<rect x="168.5" y="225.1" class="st0" width="34.6" height="14.9"/>
	<path class="st0" d="M206.5,70.4h14.7v-28c0-9.6-7.8-17.4-17.5-17.4h-88.3c-17.1,0-30.9,13.8-30.9,30.9v14.6h14.7"/>
	<path class="st0" d="M210.5,50.3H197V35.6h4.9c4.7,0,8.6,3.9,8.6,8.6V50.3z"/>
	<polyline class="st0" points="263.2,199.1 242.6,199.1 242.6,221.3 263.5,221.3 	"/>
	<path class="st0" d="M100.5,114c0,28.1,23.5,50.9,52.3,50.9s52.3-22.8,52.3-50.9s-23.5-40.5-52.3-40.5S100.5,86,100.5,114z"/>
	<path class="st0" d="M164.5,86.2c-0.8-0.2-1.5-0.3-2.2-0.3"/>
	<path class="st0" d="M192.2,116.5c0-11.3-4.6-21.4-16.1-26.5"/>
</g>
</svg>
