<?xml version="1.0" encoding="utf-8"?>
<!-- Generator: Adobe Illustrator 16.0.0, SVG Export Plug-In . SVG Version: 6.00 Build 0)  -->
<!DOCTYPE svg PUBLIC "-//W3C//DTD SVG 1.1//EN" "http://www.w3.org/Graphics/SVG/1.1/DTD/svg11.dtd">
<svg version="1.1" id="Space_Shuttle" xmlns="http://www.w3.org/2000/svg" xmlns:xlink="http://www.w3.org/1999/xlink" x="0px"
	 y="0px" width="512px" height="512px" viewBox="0 0 512 512" enable-background="new 0 0 512 512" xml:space="preserve">
<circle id="Background" fill="#323653" cx="256" cy="256" r="255.931"/>
<g id="Moon">
	<path fill="#F5853C" d="M161.858,379.781c0,0,0.62-1.13,0.743-2.484c-4.939-0.553-15.736-0.221-22.609,1.041
		c-0.658,1.83,1.19,3.529,1.19,3.529S152.688,379.69,161.858,379.781z"/>
	<path fill="#FBC59C" d="M174.227,498.516c20.887,7.043,42.047,11.234,63.059,12.79c5.853-12.141,9.132-25.754,9.132-40.134
		c0-51.106-41.432-92.54-92.541-92.54c-37.069,0-69.043,21.803-83.814,53.28C97.895,461.381,133.138,484.66,174.227,498.516z"/>
	<path fill="#F79E67" d="M127.655,443.479c-9.566,0-17.324,7.756-17.324,17.324c0,2.336,0.469,4.562,1.307,6.595
		c5.519,3.765,11.218,7.323,17.081,10.675c9.07-0.553,16.259-8.063,16.259-17.27C144.978,451.234,137.224,443.479,127.655,443.479z"
		/>
	<path fill="#F5853C" d="M127.655,443.479c-9.566,0-17.324,7.756-17.324,17.324c0,2.336,0.469,4.562,1.307,6.595
		c2.062,1.406,4.154,2.778,6.264,4.129c-1.848-2.613-2.938-5.802-2.938-9.247c0-8.859,7.183-16.041,16.043-16.041
		c3.754,0,7.207,1.292,9.939,3.456C137.77,445.895,132.996,443.479,127.655,443.479z"/>
	<path fill="#F79E67" d="M174.227,498.516c9.19,3.099,18.434,5.626,27.694,7.639c0.584-1.961,0.902-4.036,0.902-6.188
		c0-11.967-9.702-21.668-21.669-21.668c-9.691,0-17.893,6.36-20.666,15.134C164.994,495.24,169.569,496.944,174.227,498.516z"/>
	<path fill="#F5853C" d="M166.249,495.662c2.6-8.067,10.161-13.908,19.095-13.908c4.696,0,9.013,1.616,12.432,4.319
		c-3.974-4.752-9.945-7.774-16.623-7.774c-9.691,0-17.893,6.36-20.666,15.134C162.394,494.198,164.315,494.939,166.249,495.662z"/>
	<g>
		<circle fill="#F79E67" cx="178.915" cy="422.481" r="10.071"/>
		<path fill="#F5853C" d="M171.535,423.34c0-5.151,4.178-9.326,9.331-9.326c2.181,0,4.188,0.753,5.776,2.008
			c-1.848-2.207-4.623-3.611-7.727-3.611c-5.561,0-10.071,4.508-10.071,10.071c0,5.562,4.51,10.072,10.071,10.072
			c0.143,0,0.285-0.005,0.428-0.01C174.915,431.816,171.535,427.975,171.535,423.34z"/>
	</g>
	<g>
		<path fill="#F79E67" d="M228.951,448.326c0,5.564-4.51,10.076-10.072,10.076c-5.564,0-10.075-4.512-10.075-10.076
			c0-5.562,4.511-10.071,10.075-10.071C224.44,438.255,228.951,442.765,228.951,448.326z"/>
		<path fill="#F5853C" d="M211.5,449.188c0-5.152,4.175-9.329,9.326-9.329c2.184,0,4.19,0.756,5.78,2.008
			c-1.849-2.207-4.624-3.612-7.727-3.612c-5.564,0-10.075,4.51-10.075,10.071c0,5.564,4.511,10.076,10.075,10.076
			c0.142,0,0.285-0.006,0.426-0.014C214.878,457.664,211.5,453.821,211.5,449.188z"/>
	</g>
	<g>
		<path fill="#F79E67" d="M218.878,415.717c0,2.769-2.248,5.013-5.012,5.013c-2.77,0-5.015-2.244-5.015-5.013
			c0-2.77,2.246-5.012,5.015-5.012C216.631,410.705,218.878,412.947,218.878,415.717z"/>
		<path fill="#F5853C" d="M210.193,416.144c0-2.562,2.08-4.639,4.642-4.639c1.088,0,2.086,0.372,2.877,0.997
			c-0.919-1.097-2.303-1.797-3.845-1.797c-2.77,0-5.015,2.242-5.015,5.012c0,2.769,2.246,5.013,5.015,5.013
			c0.069,0,0.14-0.003,0.212-0.008C211.875,420.364,210.193,418.45,210.193,416.144z"/>
	</g>
	<g>
		<circle fill="#F79E67" cx="111.635" cy="415.717" r="11.196"/>
		<path fill="#F5853C" d="M103.431,416.671c0-5.723,4.645-10.368,10.37-10.368c2.425,0,4.656,0.838,6.423,2.234
			c-2.054-2.453-5.139-4.017-8.591-4.017c-6.182,0-11.195,5.014-11.195,11.196c0,6.186,5.013,11.195,11.195,11.195
			c0.161,0,0.319-0.004,0.476-0.01C107.19,426.094,103.431,421.821,103.431,416.671z"/>
	</g>
	<path opacity="0.1" d="M237.285,511.306c5.853-12.141,9.132-25.754,9.132-40.134c0-46.045-33.634-84.232-77.675-91.342
		c17.922,19.232,29.034,45.941,29.034,75.478c0,16.998-3.688,33.056-10.229,47.297C204.082,507.209,220.729,510.08,237.285,511.306z
		"/>
</g>
<path id="Shadow" opacity="0.1" d="M446.217,241.8l-111.32,63.422l-233.165-40.908l234.667,234.666
	c73.684-24.442,135.402-81.979,162.117-161.207c3.871-11.483,6.862-23.049,9.047-34.627L446.217,241.8z"/>
<g id="Stars">
	<g>
		<path fill="#F2F2F2" d="M347.455,142.4c1.306,4.885-1.34,10.041-5.899,11.52c-4.565,1.474-9.319-1.295-10.624-6.183
			c-1.303-4.888,1.338-10.047,5.895-11.516C341.391,134.747,346.149,137.516,347.455,142.4z"/>
		<polygon fill="#F2F2F2" points="333.649,124.305 337.429,145.636 344.737,165.831 340.955,144.499 		"/>
		<polygon fill="#F2F2F2" points="319.807,151.329 339.693,146.96 358.572,138.809 338.686,143.183 		"/>
	</g>
	<g>
		<path fill="#F2F2F2" d="M271.85,459.405c0.63,2.354-0.645,4.832-2.838,5.543c-2.196,0.712-4.486-0.619-5.115-2.974
			c-0.629-2.354,0.645-4.836,2.839-5.545C268.932,455.718,271.223,457.052,271.85,459.405z"/>
		<polygon fill="#F2F2F2" points="265.202,450.697 267.024,460.965 270.541,470.684 268.723,460.416 		"/>
		<polygon fill="#F2F2F2" points="258.542,463.704 268.118,461.598 277.203,457.678 267.63,459.78 		"/>
	</g>
	<g>
		<path fill="#F2F2F2" d="M452.13,376.514c0.631,2.354-0.644,4.832-2.837,5.543c-2.196,0.712-4.486-0.619-5.115-2.974
			c-0.629-2.354,0.645-4.836,2.839-5.545C449.213,372.826,451.504,374.16,452.13,376.514z"/>
		<polygon fill="#F2F2F2" points="445.483,367.806 447.306,378.073 450.822,387.792 449.004,377.524 		"/>
		<polygon fill="#F2F2F2" points="438.823,380.813 448.398,378.706 457.484,374.786 447.911,376.889 		"/>
	</g>
	<g id="Star_11_">
		<path fill="#F2F2F2" d="M67.787,158.06c0.936,3.509-0.96,7.212-4.235,8.271s-6.692-0.929-7.628-4.437
			c-0.938-3.511,0.96-7.215,4.234-8.271C63.434,152.563,66.849,154.55,67.787,158.06z"/>
		<polygon fill="#F2F2F2" points="57.875,145.068 60.588,160.387 65.833,174.885 63.121,159.567 		"/>
		<polygon fill="#F2F2F2" points="47.935,164.47 62.216,161.333 75.772,155.48 61.491,158.62 		"/>
	</g>
</g>
<g id="Ship">
	<g>
		<g>
			<path fill="#915604" d="M389.911,309.41l30.764,5.811c0,0,1.513,19.845-10.856,33.7c-17.177-6.194-32.954-15.698-32.954-15.698
				L389.911,309.41z"/>
			<path fill="#6C4013" d="M383.247,307.337l30.834,6.881c0,0,1.905,18.244-10.465,32.1c-17.177-6.195-33.416-15.166-33.416-15.166
				L383.247,307.337z"/>
			<path fill="#895321" d="M376.965,305.383l30.881,7.442c0,0,2.139,17.353-10.23,31.208c-17.179-6.196-33.696-14.835-33.696-14.835
				L376.965,305.383z"/>
		</g>
		<g>
			<path fill="#F2F2F2" d="M373.943,268.278l-187.12-48.192c-16.215-5.044-29.765-4.068-38.762,5.168
				c-6.605-1.104-12.921-1.829-18.828-2.179c6.611,20.617-15.913,42.008,31.232,68.992c7.175,2.44,187.895,58.451,187.895,58.451
				c22.71,7.063,46.848-5.62,53.912-28.329C409.337,299.479,396.654,275.343,373.943,268.278z"/>
			<path fill="#303030" d="M384.722,345.438l-217.212-69.972l3.149-22.944c0,0,0,0-36.478-6.841c1.038-5.797-0.381-18.91-4.949-22.6
				c-23.371-1.384-40.346,3.094-43.481,13.171c-5.102,16.403,29.783,43.507,76.148,57.93c1.747,0.543,186.46,56.336,186.46,56.336
				C361.125,354.488,374.34,352.219,384.722,345.438z"/>
			<circle fill="#A0A1A4" cx="170.249" cy="264.312" r="11.381"/>
			<circle fill="#333333" cx="170.248" cy="264.312" r="8.074"/>
			<path fill="#4D4D4D" d="M162.307,219.197c0,0-8.481,1.59-11.916,7.098c1.929,1.853,8.248,5.701,12.18,7.158
				c1.133-3.643,4.021-12.924,4.021-12.924L162.307,219.197z"/>
			<path fill="#4D4D4D" d="M179.733,236.676c-2.665,1.52-16.02-2.868-16.02-2.868l4.02-12.923l12.85,3.998
				C180.583,224.882,180.91,234.596,179.733,236.676z"/>
			
				<rect x="206.343" y="246.384" transform="matrix(0.9549 0.297 -0.297 0.9549 83.244 -50.7274)" fill="#4D4D4D" width="4.487" height="4.486"/>
			
				<rect x="231.044" y="254.067" transform="matrix(0.955 0.2967 -0.2967 0.955 86.5624 -57.6796)" fill="#4D4D4D" width="4.486" height="4.486"/>
			
				<rect x="255.745" y="261.752" transform="matrix(0.9548 0.2971 -0.2971 0.9548 90.081 -64.7275)" fill="#4D4D4D" width="4.487" height="4.486"/>
			
				<rect x="280.445" y="269.435" transform="matrix(0.9548 0.2972 -0.2972 0.9548 93.5013 -71.731)" fill="#4D4D4D" width="4.486" height="4.486"/>
			
				<rect x="305.145" y="277.118" transform="matrix(0.9549 0.297 -0.297 0.9549 96.8258 -78.6801)" fill="#4D4D4D" width="4.486" height="4.487"/>
			
				<rect x="329.846" y="284.804" transform="matrix(0.9548 0.2972 -0.2972 0.9548 100.3237 -85.7316)" fill="#4D4D4D" width="4.485" height="4.486"/>
			
				<rect x="354.546" y="292.487" transform="matrix(0.9549 0.297 -0.297 0.9549 103.6179 -92.657)" fill="#4D4D4D" width="4.486" height="4.486"/>
			
				<rect x="379.246" y="300.172" transform="matrix(0.9548 0.2971 -0.2971 0.9548 107.0718 -99.6848)" fill="#4D4D4D" width="4.487" height="4.485"/>
			<polygon fill="#4D4D4D" points="350,262.111 350.493,247.829 420.668,229.884 445.182,242.834 388.364,272.764 			"/>
			<polygon fill="#F2F2F2" points="356.659,269.791 357.348,249.961 424.01,232.49 445.182,242.834 388.739,286.66 			"/>
			<g>
				<path fill="#D7D7D7" d="M424.048,296.236c-2.673,8.594-11.809,13.395-20.403,10.721l-38.693-12.036
					c-8.595-2.674-13.396-11.811-10.721-20.404l0,0c2.673-8.596,11.809-13.396,20.403-10.722l38.693,12.035
					C421.922,278.505,426.723,287.64,424.048,296.236L424.048,296.236z"/>
				<path fill="#D7D7D7" d="M424.048,296.236c-2.673,8.594-11.809,13.395-20.403,10.721l-38.693-12.036
					c-8.595-2.674-13.396-11.811-10.721-20.404l0,0c2.673-8.596,11.809-13.396,20.403-10.722l38.693,12.035
					C421.922,278.505,426.723,287.64,424.048,296.236L424.048,296.236z"/>
				<g>
					<path fill="#6E6D6D" d="M371.769,263.19c-7.673-0.945-15.161,3.683-17.538,11.326c-2.378,7.643,1.163,15.702,8.019,19.274
						L371.769,263.19z"/>
					<path fill="#6E6D6D" d="M416.302,277.093l-9.492,30.514c7.567,0.789,14.892-3.827,17.238-11.37
						C426.396,288.691,422.982,280.734,416.302,277.093z"/>
				</g>
				<path opacity="0.1" d="M353.896,275.82c-1.832,8.196,2.895,16.562,11.056,19.101l38.693,12.036
					c8.16,2.538,16.798-1.669,19.938-9.457L353.896,275.82z"/>
			</g>
			<polygon fill="#808080" points="436.939,249.234 430.668,245.001 398.294,262.49 407.551,272.055 410.612,269.872 
				404.146,261.805 430.541,248.093 435.107,250.658 			"/>
			<path opacity="0.1" d="M101.625,224.905c-8.509,2.144-14.19,5.938-15.874,11.348c-5.102,16.403,27.307,42.719,73.673,57.143
				c1.746,0.542,188.936,57.123,188.936,57.123c22.71,7.063,46.848-5.62,53.912-28.329c0.359-1.154,0.654-2.315,0.913-3.474
				L101.625,224.905z"/>
			<path fill="#303030" d="M237.462,316.019c88.7,26.967,66.111,85.71,153.222,97.774c1.26-1.017,1.78-3.268,1.363-4.383
				c-9.228-24.686-25.414-63.265-12.082-62.215c1.599-1.226,2.821-1.628,1.364-4.384c-49.326-17.471-111.991-30.056-142.503-31.175
				C235.278,312.834,236.424,315.695,237.462,316.019z"/>
			<path fill="#F2F2F2" d="M238.826,311.637c88.7,26.965,66.111,85.709,153.221,97.773c-5.028-25.993-24.645-67.695-10.718-66.599
				C323.535,321.7,270.579,310.238,238.826,311.637z"/>
			<path opacity="0.1" d="M238.826,311.637c88.7,26.965,66.111,85.709,153.221,97.773c-1.665-8.613-4.934-18.949-8.052-28.883
				c-24.339-9.146-48.488-40.91-58.662-55.601C290.345,315.456,259.909,310.709,238.826,311.637z"/>
		</g>
	</g>
	<g>
		<path fill="#ED1C24" d="M438.457,327.142c6.075,1.456,25.066,17.637,25.066,17.637s-24.264,5.815-30.338,4.359
			c-6.073-1.456-9.818-7.56-8.362-13.634C426.279,329.431,432.384,325.687,438.457,327.142z"/>
		<path fill="#F7931E" d="M435.446,331.437c3.455,0.828,14.256,10.029,14.256,10.029s-13.798,3.307-17.253,2.479
			c-3.453-0.828-5.582-4.299-4.755-7.753C428.522,332.738,431.992,330.609,435.446,331.437z"/>
	</g>
</g>
</svg>
