<?xml version="1.0" encoding="utf-8"?>
<!-- Generator: Adobe Illustrator 25.0.0, SVG Export Plug-In . SVG Version: 6.00 Build 0)  -->
<svg version="1.1" id="Capa_1" xmlns="http://www.w3.org/2000/svg" xmlns:xlink="http://www.w3.org/1999/xlink" x="0px" y="0px"
	 viewBox="0 0 368.2 368.2" style="enable-background:new 0 0 368.2 368.2;" xml:space="preserve">
<style type="text/css">
	.st0{fill:none;stroke:#FFFFFF;stroke-width:7.9999;stroke-linejoin:round;stroke-miterlimit:9.9999;}
	.st1{fill:none;stroke:#FFFFFF;stroke-width:8;stroke-linejoin:round;stroke-miterlimit:10;}
	.st2{fill:none;stroke:#FFFFFF;stroke-width:8;stroke-linecap:round;stroke-linejoin:round;stroke-miterlimit:10;}
</style>
<g>
	
		<rect x="246" y="203.5" transform="matrix(0.7071 -0.7071 0.7071 0.7071 -117.0271 282.5229)" class="st0" width="73" height="158.1"/>
	
		<rect x="49.2" y="6.7" transform="matrix(0.7071 -0.7071 0.7071 0.7071 -35.4927 85.6858)" class="st0" width="73" height="158.1"/>
	<polyline class="st1" points="252.5,172.6 164.2,260.8 107.4,204 195.6,115.7 	"/>
	<polyline class="st1" points="153.2,249.8 131.2,271.8 96.4,237.1 118.4,215 	"/>
	<polygon class="st1" points="263.4,183.5 184.7,104.8 211.1,93.9 274.3,157.1 	"/>
	<line class="st1" x1="297.2" y1="347.9" x2="347.2" y2="297.9"/>
	<line class="st1" x1="281.3" y1="332" x2="331.3" y2="282"/>
	<line class="st1" x1="265.4" y1="316.2" x2="315.5" y2="266.1"/>
	<line class="st1" x1="249.5" y1="300.3" x2="299.6" y2="250.2"/>
	<line class="st1" x1="233.6" y1="284.4" x2="283.7" y2="234.3"/>
	<line class="st1" x1="217.8" y1="268.5" x2="267.8" y2="218.5"/>
	<line class="st1" x1="99.7" y1="150.4" x2="149.8" y2="100.4"/>
	<line class="st1" x1="83.8" y1="134.6" x2="133.9" y2="84.5"/>
	<line class="st1" x1="67.9" y1="118.7" x2="118" y2="68.6"/>
	<line class="st1" x1="52.1" y1="102.8" x2="102.1" y2="52.8"/>
	<line class="st1" x1="36.2" y1="86.9" x2="86.2" y2="36.9"/>
	<line class="st1" x1="20.3" y1="71.1" x2="70.4" y2="21"/>
	<line class="st1" x1="240.6" y1="184.5" x2="183.8" y2="127.6"/>
	<line class="st1" x1="175.7" y1="246.8" x2="121.4" y2="192.5"/>
	<line class="st1" x1="141.8" y1="141.6" x2="155.8" y2="155.6"/>
	<line class="st1" x1="212.6" y1="212.5" x2="225.8" y2="225.6"/>
	
		<rect x="157.8" y="166.6" transform="matrix(0.7071 -0.7071 0.7071 0.7071 -79.1561 182.9083)" class="st0" width="46.8" height="40.8"/>
	<line class="st2" x1="243.6" y1="124.6" x2="259.7" y2="108.5"/>
</g>
</svg>
