<?xml version="1.0" encoding="utf-8"?>
<!-- Generator: Adobe Illustrator 25.0.0, SVG Export Plug-In . SVG Version: 6.00 Build 0)  -->
<svg version="1.1" id="Capa_1" xmlns="http://www.w3.org/2000/svg" xmlns:xlink="http://www.w3.org/1999/xlink" x="0px" y="0px"
	 viewBox="0 0 446.5 446.5" style="enable-background:new 0 0 446.5 446.5;" xml:space="preserve">
<style type="text/css">
	.st0{fill:none;stroke:#FFFFFF;stroke-width:8;stroke-miterlimit:10;}
	.st1{fill:none;stroke:#FFFFFF;stroke-width:8;stroke-linejoin:round;stroke-miterlimit:10;}
</style>
<g>
	<line class="st0" x1="253.6" y1="351.8" x2="192.9" y2="351.8"/>
	<path class="st0" d="M176.5,275.3V114.4c0-39.9,14.8-78.4,41.6-108.1l0,0c2.8-3.1,7.6-3.1,10.4,0l0,0
		C255.2,35.9,270,74.4,270,114.4v161"/>
	<path class="st0" d="M192.9,375.2V211.4c0-27.2,5-54.2,14.6-79.6l0,0c5.5-14.5,26-14.5,31.5,0l0,0c9.7,25.4,14.6,52.4,14.6,79.6
		v163.8"/>
	<line class="st0" x1="230.8" y1="391.5" x2="215.7" y2="391.5"/>
	<path class="st0" d="M253.6,391.5V387v-11.8l64.3-9.9v-17.4c0-7.9-2.9-15.5-8.1-21.5L289,302.9c-22.8-25.9-35.4-59.2-35.4-93.7"/>
	<path class="st0" d="M192.9,391.5V387v-11.8l-64.3-9.9v-17.4c0-7.9,2.9-15.5,8.1-21.5l20.8-23.5c22.8-25.9,35.4-59.2,35.4-93.7"/>
	<line class="st0" x1="318" y1="347.9" x2="253.6" y2="347.9"/>
	<line class="st0" x1="192.9" y1="347.9" x2="128.5" y2="347.9"/>
	<line class="st0" x1="191.9" y1="214" x2="250.9" y2="214"/>
	<line class="st0" x1="203.1" y1="146.4" x2="243.4" y2="146.4"/>
	<path class="st0" d="M206.8,191.7c0-7.8,6.3-14.2,14.2-14.2"/>
	<path class="st0" d="M225.5,177.6c7.8,0,14.2,6.3,14.2,14.2"/>
	<path class="st1" d="M215.7,416.5h-22.8V387c0-12.6,10.2-22.8,22.8-22.8l0,0V416.5z"/>
	<path class="st1" d="M253.6,416.5h-22.8v-52.3l0,0c12.6,0,22.8,10.2,22.8,22.8V416.5z"/>
	<line class="st0" x1="178.7" y1="92.8" x2="265" y2="92.8"/>
	<path class="st0" d="M134.3,329.5V121l17.2-38.4c1.5-3.3,6.3-3.3,7.8,0l17.2,38.4v154.3"/>
	<polyline class="st0" points="176.5,372.7 176.5,394.5 134.3,394.5 134.3,366.2 	"/>
	<polygon class="st0" points="180.6,430 130.2,430 134.3,394.5 176.5,394.5 	"/>
	<polyline class="st0" points="168.1,430 168.9,442.5 141.9,442.5 142.6,430 	"/>
	<polyline class="st0" points="303.9,430 304.6,442.5 277.6,442.5 278.4,430 	"/>
	<polygon class="st0" points="316.3,430 265.9,430 270,394.5 312.2,394.5 	"/>
	<line class="st0" x1="134.3" y1="121" x2="172.7" y2="121"/>
	<path class="st0" d="M270,275.3V121l17.2-38.4c1.5-3.3,6.3-3.3,7.8,0l17.2,38.4v208.5"/>
	<polyline class="st0" points="312.2,366.2 312.2,394.5 270,394.5 270,372.7 	"/>
	<line class="st0" x1="312.2" y1="121" x2="273.8" y2="121"/>
</g>
</svg>
