<?xml version="1.0" encoding="utf-8"?>
<!-- Generator: Adobe Illustrator 16.0.0, SVG Export Plug-In . SVG Version: 6.00 Build 0)  -->
<!DOCTYPE svg PUBLIC "-//W3C//DTD SVG 1.1//EN" "http://www.w3.org/Graphics/SVG/1.1/DTD/svg11.dtd">
<svg version="1.1" id="Telescope" xmlns="http://www.w3.org/2000/svg" xmlns:xlink="http://www.w3.org/1999/xlink" x="0px" y="0px"
	 width="512px" height="512px" viewBox="0 0 512 512" enable-background="new 0 0 512 512" xml:space="preserve">
<circle id="Background_1_" fill="#323653" cx="256" cy="255.999" r="256"/>
<path id="Shadow" opacity="0.1" d="M512,255.999c0-6.87-0.278-13.675-0.81-20.408l-78.079-74.904L92.333,225.5l-9.722,11.627
	l102.28,101.522l-37.431,55.488L265.143,511.82C402.29,507.004,512,394.321,512,255.999z"/>
<g id="Stars">
	<g>
		<path fill="#F2F2F2" d="M271.587,152.785c1.307,4.887-1.34,10.043-5.9,11.522c-4.566,1.474-9.322-1.295-10.627-6.184
			c-1.304-4.889,1.338-10.05,5.896-11.52C265.521,145.129,270.281,147.898,271.587,152.785z"/>
		<polygon fill="#F2F2F2" points="257.778,134.685 261.559,156.021 268.869,176.221 265.086,154.884 		"/>
		<polygon fill="#F2F2F2" points="243.932,161.716 263.823,157.346 282.708,149.192 262.815,153.567 		"/>
	</g>
	<g>
		<path fill="#F9EE50" d="M347.479,47.797c1.307,4.887-1.34,10.043-5.9,11.522c-4.566,1.474-9.322-1.295-10.627-6.184
			c-1.304-4.889,1.338-10.05,5.896-11.52C341.414,40.142,346.174,42.911,347.479,47.797z"/>
		<polygon fill="#F9EE50" points="333.671,29.697 337.451,51.034 344.762,71.234 340.979,49.896 		"/>
		<polygon fill="#F9EE50" points="319.824,56.729 339.716,52.358 358.601,44.205 338.708,48.58 		"/>
	</g>
	<g>
		<path fill="#F2F2F2" d="M278.392,325.171c1.006,3.769-1.035,7.745-4.553,8.883c-3.521,1.137-7.189-0.997-8.193-4.767
			c-1.008-3.771,1.029-7.752,4.545-8.883C273.712,319.266,277.386,321.4,278.392,325.171z"/>
		<polygon fill="#F2F2F2" points="267.739,311.212 270.657,327.667 276.296,343.246 273.376,326.789 		"/>
		<polygon fill="#F2F2F2" points="257.062,332.057 272.403,328.686 286.968,322.398 271.626,325.771 		"/>
	</g>
	<g>
		<path fill="#F2F2F2" d="M72.248,354.928c1.651,6.173-1.692,12.694-7.458,14.557c-5.765,1.861-11.779-1.635-13.427-7.813
			c-1.647-6.178,1.69-12.696,7.451-14.557C64.584,345.252,70.596,348.748,72.248,354.928z"/>
		<polygon fill="#F2F2F2" points="54.799,332.057 59.575,359.019 68.812,384.539 64.032,357.579 		"/>
		<polygon fill="#F2F2F2" points="37.304,366.211 62.441,360.688 86.3,350.387 61.166,355.912 		"/>
	</g>
	<g>
		<path fill="#F2F2F2" d="M467.984,258.149c1.651,6.173-1.692,12.694-7.457,14.557c-5.766,1.861-11.779-1.635-13.428-7.813
			c-1.647-6.178,1.69-12.696,7.451-14.557C460.32,248.474,466.333,251.97,467.984,258.149z"/>
		<polygon fill="#F2F2F2" points="450.535,235.278 455.312,262.24 464.549,287.761 459.77,260.801 		"/>
		<polygon fill="#F2F2F2" points="433.041,269.433 458.178,263.909 482.037,253.608 456.902,259.134 		"/>
	</g>
	<g>
		<path fill="#F2F2F2" d="M271.854,459.461c0.631,2.354-0.645,4.833-2.838,5.544c-2.197,0.712-4.488-0.619-5.117-2.975
			c-0.629-2.354,0.645-4.837,2.84-5.546C268.936,455.772,271.227,457.106,271.854,459.461z"/>
		<polygon fill="#F2F2F2" points="265.205,450.75 267.027,461.021 270.545,470.742 268.727,460.472 		"/>
		<polygon fill="#F2F2F2" points="258.543,463.761 268.121,461.653 277.209,457.732 267.633,459.836 		"/>
	</g>
	<g>
		<path fill="#F2F2F2" d="M452.184,376.547c0.631,2.354-0.645,4.833-2.838,5.544c-2.197,0.712-4.488-0.619-5.117-2.975
			c-0.629-2.354,0.645-4.837,2.84-5.546C449.266,372.858,451.557,374.192,452.184,376.547z"/>
		<polygon fill="#F2F2F2" points="445.535,367.836 447.357,378.106 450.875,387.828 449.057,377.558 		"/>
		<polygon fill="#F2F2F2" points="438.873,380.847 448.451,378.739 457.539,374.818 447.963,376.922 		"/>
	</g>
	<g id="Star_11_">
		<path fill="#F2F2F2" d="M67.735,158.033c0.936,3.509-0.96,7.214-4.236,8.272c-3.276,1.059-6.694-0.929-7.63-4.438
			c-0.938-3.512,0.96-7.217,4.235-8.274C63.381,152.535,66.798,154.522,67.735,158.033z"/>
		<polygon fill="#F2F2F2" points="57.821,145.038 60.535,160.361 65.782,174.863 63.068,159.541 		"/>
		<polygon fill="#F2F2F2" points="47.878,164.445 62.163,161.307 75.724,155.453 61.438,158.594 		"/>
	</g>
	<g>
		<path fill="#F2F2F2" d="M261.104,247.778c1.007,3.769-1.034,7.746-4.552,8.887c-3.521,1.137-7.188-0.999-8.194-4.77
			c-1.007-3.771,1.03-7.751,4.547-8.884C256.425,241.874,260.096,244.01,261.104,247.778z"/>
		<polygon fill="#F2F2F2" points="250.453,233.819 253.368,250.275 259.007,265.854 256.089,249.397 		"/>
		<polygon fill="#F2F2F2" points="239.773,254.667 255.115,251.296 269.68,245.008 254.338,248.382 		"/>
	</g>
</g>
<g id="Telescope_2_">
	<g>
		<g>
			
				<rect x="176.344" y="175.886" transform="matrix(0.9952 -0.098 0.098 0.9952 -18.4995 28.8969)" fill="#46A7A9" width="216.984" height="53.667"/>
			
				<rect x="177.686" y="203.193" transform="matrix(0.9952 -0.098 0.098 0.9952 -19.8282 29.094)" opacity="0.1" width="216.984" height="26.295"/>
			
				<rect x="426.331" y="161.02" transform="matrix(0.9952 -0.0981 0.0981 0.9952 -16.391 43.1854)" fill="#29ABE2" width="9.479" height="54.593"/>
			<g>
				<path fill="#0F67AF" d="M435.381,220.063c0.23,2.348-4.346,4.719-10.223,5.297l-18.156,1.788
					c-5.875,0.579-10.826-0.853-11.059-3.2l-6.277-63.726c-0.23-2.347,4.346-4.719,10.223-5.297l18.156-1.789
					c5.877-0.579,10.826,0.854,11.057,3.202L435.381,220.063z"/>
				<path opacity="0.1" d="M408.965,154.031l-9.076,0.894c-5.877,0.579-10.453,2.95-10.223,5.297l6.277,63.726
					c0.232,2.348,5.184,3.779,11.059,3.2l9.076-0.894L408.965,154.031z"/>
			</g>
			
				<rect x="139.23" y="196.401" transform="matrix(0.9952 -0.098 0.098 0.9952 -20.4197 15.907)" fill="#46A7A9" width="24.994" height="38.861"/>
			
				<rect x="140.183" y="215.784" transform="matrix(0.9952 -0.098 0.098 0.9952 -21.3625 16.0468)" opacity="0.1" width="24.994" height="19.43"/>
			<g>
				<path fill="#0F67AF" d="M179.66,241.712c0.206,2.086-2.697,4.083-6.483,4.456l-11.695,1.151
					c-3.786,0.373-7.022-1.019-7.228-3.105l-5.586-56.712c-0.206-2.089,2.696-4.083,6.482-4.456l11.695-1.152
					c3.787-0.373,7.022,1.017,7.228,3.105L179.66,241.712z"/>
				<path opacity="0.1" d="M160.998,182.469l-5.847,0.576c-3.786,0.373-6.688,2.367-6.482,4.456l5.586,56.712
					c0.206,2.087,3.442,3.479,7.228,3.105l5.848-0.576L160.998,182.469z"/>
			</g>
		</g>
		<polygon fill="#15132B" points="138.451,208.539 92.355,213.079 91.767,207.102 79.77,208.284 80.509,215.788 78.623,215.974 
			79.986,229.81 81.873,229.624 82.611,237.127 94.608,235.945 94.019,229.968 140.115,225.428 		"/>
	</g>
	<g>
		<g>
			<g>
				<path fill="#B3B3B3" d="M350.758,391.066c1.957,3.249,1.932,6.854-0.057,8.049l-4.236,2.552
					c-1.988,1.197-5.184-0.464-7.143-3.713l-66.607-110.577c-1.957-3.249-1.932-6.854,0.057-8.051l4.236-2.552
					c1.986-1.197,5.184,0.465,7.141,3.714L350.758,391.066z"/>
				<path opacity="0.1" d="M277.008,276.774l-2.119,1.275l73.693,122.342l2.119-1.276c1.988-1.195,2.014-4.8,0.057-8.049
					l-66.609-110.578C282.191,277.239,278.994,275.577,277.008,276.774z"/>
			</g>
			<g>
				<path fill="#4D4D4D" d="M285.818,278.369c1.957,3.249,1.934,6.854-0.055,8.052l-8.561,5.155
					c-1.988,1.198-5.186-0.465-7.143-3.716l-29.407-48.816c-1.958-3.25-1.932-6.853,0.056-8.05l8.56-5.157
					c1.988-1.197,5.185,0.465,7.143,3.714L285.818,278.369z"/>
				<path opacity="0.1" d="M249.27,225.837l-5.087,3.064l36.493,60.584l5.088-3.064c1.988-1.197,2.012-4.803,0.055-8.052
					l-29.406-48.818C254.455,226.302,251.258,224.64,249.27,225.837z"/>
			</g>
		</g>
		<g>
			<g>
				<path fill="#B3B3B3" d="M146.69,385.913c-1.83,3.141-1.485,6.823,0.77,8.225l4.807,2.989c2.255,1.402,5.565-0.005,7.396-3.146
					l62.286-106.885c1.83-3.141,1.486-6.823-0.77-8.227l-4.806-2.988c-2.254-1.403-5.566,0.005-7.396,3.146L146.69,385.913z"/>
				<path opacity="0.1" d="M159.663,393.981l62.286-106.885c1.83-3.141,1.486-6.823-0.77-8.227l-2.242-1.395l-69.031,118.183
					l2.361,1.469C154.521,398.529,157.832,397.122,159.663,393.981z"/>
			</g>
			<g>
				<path fill="#4D4D4D" d="M206.983,276.712c-1.83,3.141-1.486,6.824,0.77,8.227l9.711,6.039c2.255,1.403,5.567-0.005,7.397-3.147
					l27.498-47.187c1.83-3.142,1.485-6.822-0.771-8.225l-9.711-6.042c-2.255-1.402-5.566,0.006-7.396,3.146L206.983,276.712z"/>
				<path opacity="0.1" d="M224.862,287.83l27.498-47.187c1.83-3.142,1.485-6.822-0.771-8.225l-5.873-3.654l-33.203,59.133
					l4.951,3.079C219.72,292.381,223.031,290.973,224.862,287.83z"/>
			</g>
		</g>
		<g>
			<g>
				<path fill="#B3B3B3" d="M253.362,424.472c0,3.834-1.881,6.94-4.202,6.94h-4.946c-2.32,0-4.201-3.106-4.201-6.94V293.982
					c0-3.835,1.881-6.941,4.201-6.941h4.946c2.32,0,4.202,3.106,4.202,6.941V424.472z"/>
				<path opacity="0.1" d="M249.16,287.041h-2.473v144.371h2.473c2.32,0,4.202-3.106,4.202-6.94V293.982
					C253.362,290.147,251.48,287.041,249.16,287.041z"/>
			</g>
			<g>
				<path fill="#4D4D4D" d="M255.885,293.017c0,3.835-1.881,6.943-4.202,6.943h-9.993c-2.321,0-4.202-3.108-4.202-6.943v-57.608
					c0-3.834,1.881-6.94,4.202-6.94h9.993c2.321,0,4.202,3.106,4.202,6.94V293.017z"/>
				<path opacity="0.1" d="M251.684,228.468h-5.939v71.492h5.939c2.321,0,4.202-3.108,4.202-6.943v-57.608
					C255.885,231.574,254.004,228.468,251.684,228.468z"/>
			</g>
		</g>
		<g>
			<circle fill="#333333" cx="245.745" cy="221.902" r="13.279"/>
			<circle fill="#B3B3B3" cx="245.745" cy="221.902" r="9.274"/>
			<path opacity="0.1" d="M247.638,212.823c2.651,1.633,4.424,4.553,4.424,7.894c0,5.122-4.152,9.274-9.274,9.274
				c-0.648,0-1.281-0.067-1.893-0.194c1.413,0.87,3.07,1.38,4.851,1.38c5.122,0,9.273-4.152,9.273-9.274
				C255.019,217.43,251.853,213.697,247.638,212.823z"/>
		</g>
	</g>
</g>
</svg>
