<?xml version="1.0" encoding="utf-8"?>
<!-- Generator: Adobe Illustrator 16.0.0, SVG Export Plug-In . SVG Version: 6.00 Build 0)  -->
<!DOCTYPE svg PUBLIC "-//W3C//DTD SVG 1.1//EN" "http://www.w3.org/Graphics/SVG/1.1/DTD/svg11.dtd">
<svg version="1.1" id="UFO" xmlns="http://www.w3.org/2000/svg" xmlns:xlink="http://www.w3.org/1999/xlink" x="0px" y="0px"
	 width="512px" height="512px" viewBox="0 0 512 512" enable-background="new 0 0 512 512" xml:space="preserve">
<circle id="Background_1_" fill="#323653" cx="256" cy="255.999" r="256"/>
<path id="Shadow" opacity="0.2" d="M491.513,356.491l-71.71-71.71l-307.578-45.929l160.589,272.584
	C371.26,505.052,454.537,443.033,491.513,356.491z"/>
<g id="Star_1_">
	<g>
		<circle fill="#E3DFF0" cx="269.036" cy="36.078" r="5.417"/>
		<polygon fill="#E3DFF0" points="273.097,24.036 267.939,35.708 264.975,48.12 270.131,36.447 		"/>
		<polygon fill="#E3DFF0" points="256.993,32.016 268.666,37.173 281.077,40.138 269.404,34.982 		"/>
	</g>
	<g>
		<circle fill="#E3DFF0" cx="489.496" cy="253.883" r="5.417"/>
		<polygon fill="#E3DFF0" points="493.557,241.84 488.399,253.513 485.435,265.925 490.591,254.252 		"/>
		<polygon fill="#E3DFF0" points="477.452,249.821 489.126,254.978 501.537,257.942 489.864,252.787 		"/>
	</g>
	<g id="Star">
		<circle fill="#E3DFF0" cx="89.453" cy="287.532" r="8.081"/>
		<polygon fill="#E3DFF0" points="95.511,269.566 87.817,286.98 83.395,305.494 91.086,288.082 		"/>
		<polygon fill="#E3DFF0" points="71.487,281.471 88.9,289.166 107.415,293.588 90.002,285.897 		"/>
	</g>
</g>
<g id="UFO_1_">
	<g>
		
			<ellipse transform="matrix(0.9476 0.3195 -0.3195 0.9476 86.5849 -77.9034)" fill="#5FB1E3" cx="280.721" cy="224.936" rx="92.936" ry="54.821"/>
		<path opacity="0.1" d="M298.237,172.99c-24.72-8.335-49.083-9.856-68.34-5.575c10.669,1.065,21.861,3.447,33.127,7.246
			c48.637,16.4,80.222,52.951,70.548,81.641c-4.757,14.108-18.609,23.684-37.241,27.827c35.392,3.532,65.022-7.453,72.455-29.498
			C378.46,225.941,346.874,189.39,298.237,172.99z"/>
		
			<ellipse transform="matrix(0.9476 0.3195 -0.3195 0.9476 98.693 -71.4786)" fill="#FBB03B" cx="267.195" cy="265.051" rx="171.5" ry="58"/>
		<path fill="#4EB5A0" d="M381.96,297.193c-26.227-24.464-63.675-45.693-105.446-59.778
			c-70.571-23.795-136.493-19.773-165.967-1.004c0.53,0.81,1.09,1.624,1.678,2.441c10.398-6.61,25.778-11.404,44.645-13.628
			c35.405-4.174,77.555,1.165,118.685,15.034c70.854,23.891,121.2,66.13,132.587,97.222c0.927-0.31,1.825-0.637,2.701-0.975
			C406.383,324.387,396.495,310.752,381.96,297.193z"/>
		<path fill="#B68128" d="M248.663,320.011c53.233,17.95,103.405,25.227,137.559,21.844c-2.579-24.628-50.493-62.665-116.312-84.857
			c-65.818-22.193-126.981-20.937-143.945-2.897C151.096,277.472,195.43,302.062,248.663,320.011z"/>
		<circle fill="#808080" cx="303.934" cy="233.819" r="5.666"/>
		<circle fill="#F2F2F2" cx="305.202" cy="233.191" r="5.666"/>
		<circle fill="#999999" cx="383.581" cy="276.155" r="5.666"/>
		<circle fill="#F2F2F2" cx="384.847" cy="275.527" r="5.666"/>
		<path fill="#808080" d="M422.148,325.567c-2.966-1-6.18,0.594-7.18,3.559c-0.61,1.811-0.25,3.711,0.795,5.146
			c3.634-2.013,6.929-3.928,9.17-6.615C424.295,326.922,423.139,325.901,422.148,325.567z"/>
		<path fill="#F2F2F2" d="M423.416,324.939c-2.966-1-6.18,0.594-7.18,3.559c-0.61,1.811-0.251,3.711,0.795,5.146
			c3.633-2.013,6.604-4.363,8.846-7.051C425.238,325.857,424.406,325.272,423.416,324.939z"/>
		<circle fill="#808080" cx="229.552" cy="211.729" r="5.666"/>
		<circle fill="#F2F2F2" cx="228.924" cy="210.462" r="5.666"/>
		<path opacity="0.6" fill="#E6F0CD" d="M256.218,287.47c-37.368-12.601-66.731-12.607-76.182-0.229L70.511,432.433
			C117.146,481.446,183.004,512,256,512c15.849,0,31.357-1.451,46.41-4.208L316.52,329.55
			C315.302,316.825,290.098,298.893,256.218,287.47z"/>
		<path opacity="0.3" fill="#F7F7D5" d="M256.218,287.47c-10.476-3.533-20.322-6.075-29.278-7.632L110.534,466.66
			C151.846,495.242,201.962,512,256,512c0.23,0,0.459-0.008,0.689-0.009l27.863-212.481
			C276.223,295.109,266.633,290.98,256.218,287.47z"/>
	</g>
	<g>
		<circle fill="#666666" cx="153.371" cy="203.455" r="5.666"/>
		<circle fill="#F2F2F2" cx="152.424" cy="203.135" r="5.665"/>
	</g>
	<g>
		<path fill="#808080" d="M107.877,220.214c-1.279-0.431-2.604-0.378-3.778,0.058c0.384,3.456,1.508,7.073,3.316,10.81
			c1.818-0.449,3.377-1.783,4.02-3.688C112.435,224.428,110.842,221.214,107.877,220.214z"/>
		<path fill="#F2F2F2" d="M107.55,219.489c-1.279-0.432-2.604-0.378-3.777,0.058c0.384,3.456,1.508,7.073,3.316,10.81
			c1.818-0.448,3.377-1.783,4.02-3.688C112.108,223.703,110.515,220.488,107.55,219.489z"/>
	</g>
</g>
</svg>
