<?xml version="1.0" encoding="utf-8"?>
<!-- Generator: Adobe Illustrator 25.0.0, SVG Export Plug-In . SVG Version: 6.00 Build 0)  -->
<svg version="1.1" id="Capa_1" xmlns="http://www.w3.org/2000/svg" xmlns:xlink="http://www.w3.org/1999/xlink" x="0px" y="0px"
	 viewBox="0 0 409.3 409.3" style="enable-background:new 0 0 409.3 409.3;" xml:space="preserve">
<style type="text/css">
	.st0{fill:none;stroke:#FFFFFF;stroke-width:8;stroke-linejoin:round;stroke-miterlimit:10;}
	.st1{fill:none;stroke:#FFFFFF;stroke-width:8;stroke-linecap:round;stroke-linejoin:round;stroke-miterlimit:10;}
</style>
<g>
	<polygon class="st0" points="217.4,277.3 191.9,277.3 191.9,58.9 204.6,23.8 217.4,58.9 	"/>
	<line class="st1" x1="191.9" y1="311.4" x2="191.9" y2="287.9"/>
	<line class="st1" x1="217.4" y1="288.5" x2="217.4" y2="313.2"/>
	<path class="st1" d="M53.1,307.4c-7.6,7.6-7.6,19.9,0,27.4"/>
	<path class="st1" d="M36.9,341.4c-7.2-7.2-19-7.2-26.2,0"/>
	<path class="st1" d="M103.4,343.7c-10.7,0-19.4,8.7-19.4,19.4"/>
	<path class="st1" d="M154.5,375.4c0-7.5-6-13.5-13.5-13.5"/>
	<path class="st1" d="M360.1,336.2c-7.6-7.6-7.6-19.9,0-27.4"/>
	<path class="st1" d="M219.2,343.5c1,0,1.9-0.1,2.7-0.4"/>
	<path class="st1" d="M190.1,322.3c-5.4,0-9.8,4-10.5,9.2c-0.9-0.2-1.8-0.4-2.7-0.4c-5.8,0-10.6,4.7-10.6,10.6
		c0,4.5,2.8,8.3,6.7,9.9c-0.2,0.3-0.3,0.6-0.5,0.8c-2.8-3-6.8-4.8-11.2-4.8c-8.5,0-15.4,6.8-15.6,15.3c-1.9-0.7-4-1.2-6.2-1.2
		c-3.7,0-7.1,1.2-9.9,3.1c-1.5-12-11.8-21.3-24.2-21.3c-2.5,0-4.9,0.4-7.1,1.1c0-0.3,0.1-0.7,0.1-1.1c0-5.2-3.7-9.5-8.6-10.4
		c1.2-2.8,1.9-5.8,1.9-9c0-12.5-10.1-22.6-22.6-22.6c-7.4,0-14,3.6-18.1,9.1c-4.2-4.8-10.3-7.9-17.2-7.9
		c-12.5,0-22.6,10.1-22.6,22.6c0,4.8,1.5,9.3,4.1,12.9C8.5,341.4,4,348.2,4,356.1c0,9.3,6.3,17.1,14.9,19.3
		c-0.5,1.8-0.8,3.7-0.8,5.6c0,1.5,0.2,2.9,0.5,4.3h372.1c0.3-1.4,0.5-2.9,0.5-4.3c0-2-0.3-3.9-0.8-5.6c8.6-2.2,14.9-10.1,14.9-19.3
		c0-7.9-4.5-14.7-11.1-17.9c2.6-3.7,4.1-8.1,4.1-12.9c0-12.5-10.1-22.6-22.6-22.6c-6.9,0-13,3.1-17.2,7.9
		c-4.1-5.5-10.7-9.1-18.1-9.1c-12.5,0-22.6,10.1-22.6,22.6c0,3.2,0.7,6.2,1.9,9c-4.9,0.9-8.6,5.2-8.6,10.4c0,0.4,0,0.7,0.1,1.1
		c-2.2-0.7-4.6-1.1-7.1-1.1c-12.4,0-22.7,9.3-24.2,21.3c-2.8-2-6.2-3.1-9.9-3.1c-1.3,0-2.6,0.2-3.8,0.5c-0.8,0.1-1.6,0.4-2.4,0.6
		c-0.2-8.4-7.1-15.2-15.6-15.2c-4.4,0-8.4,1.9-11.2,4.8c-0.2-0.3-0.3-0.6-0.5-0.8c3.9-1.5,6.7-5.4,6.7-9.9c0-5.8-4.7-10.6-10.6-10.6
		c-1,0-1.9,0.1-2.7,0.4c-0.7-5.2-5.1-9.2-10.5-9.2"/>
	<path class="st1" d="M201.2,357.1c-1.4-6.8-7.2-11.9-14.2-12.4"/>
	<path class="st1" d="M318.5,330.1c1.4,6.8,7.2,11.9,14.2,12.4"/>
	<path class="st1" d="M225.3,367.2c-3.8-6.2-11.2-9.9-18.9-8.7c-8.2,1.3-14.4,7.7-15.7,15.4"/>
	<path class="st1" d="M385.6,304.9c0.4-1.6,0.5-3.3,0.5-5c0-12.8-10.4-23.2-23.2-23.2s-23.2,10.4-23.2,23.2c0,0.5,0,1,0.1,1.5"/>
	<line class="st1" x1="191.9" y1="58.9" x2="213.9" y2="58.9"/>
	<line class="st1" x1="191.9" y1="72.1" x2="213.9" y2="72.1"/>
	<polyline class="st1" points="191.9,194.7 177.3,218.2 177.3,277.3 191.9,277.3 217.4,277.3 232,277.3 232,218.2 217.4,194.7 	"/>
</g>
</svg>
